<svg width="168" height="41" viewBox="0 0 168 41" fill="none" xmlns="http://www.w3.org/2000/svg">
<path d="M49.5166 28.3014H61.4686V24.7014H53.7646V11.1414H49.5166V28.3014Z" fill="#2C2C2C"/>
<path d="M68.55 25.9025C66.846 25.9025 65.958 24.4145 65.958 22.1825C65.958 19.9505 66.846 18.4385 68.55 18.4385C70.254 18.4385 71.166 19.9505 71.166 22.1825C71.166 24.4145 70.254 25.9025 68.55 25.9025ZM68.574 28.6865C72.534 28.6865 75.126 25.8785 75.126 22.1825C75.126 18.4865 72.534 15.6785 68.574 15.6785C64.638 15.6785 61.998 18.4865 61.998 22.1825C61.998 25.8785 64.638 28.6865 68.574 28.6865Z" fill="#2C2C2C"/>
<path d="M81.9808 32.5491C83.8048 32.5491 85.4128 32.1411 86.4928 31.1811C87.4768 30.2931 88.1248 28.9491 88.1248 27.1011V16.0131H84.3808V17.3331H84.3328C83.6128 16.3011 82.5088 15.6531 80.8768 15.6531C77.8288 15.6531 75.7168 18.1971 75.7168 21.7971C75.7168 25.5651 78.2848 27.6291 81.0448 27.6291C82.5328 27.6291 83.4688 27.0291 84.1888 26.2131H84.2848V27.4371C84.2848 28.9251 83.5888 29.7891 81.9328 29.7891C80.6368 29.7891 79.9888 29.2371 79.7728 28.5891H75.9808C76.3648 31.1571 78.5968 32.5491 81.9808 32.5491ZM81.9568 24.7251C80.4928 24.7251 79.5328 23.5251 79.5328 21.6771C79.5328 19.8051 80.4928 18.6051 81.9568 18.6051C83.5888 18.6051 84.4528 19.9971 84.4528 21.6531C84.4528 23.3811 83.6608 24.7251 81.9568 24.7251Z" fill="#2C2C2C"/>
<path d="M95.8225 25.9025C94.1185 25.9025 93.2305 24.4145 93.2305 22.1825C93.2305 19.9505 94.1185 18.4385 95.8225 18.4385C97.5265 18.4385 98.4385 19.9505 98.4385 22.1825C98.4385 24.4145 97.5265 25.9025 95.8225 25.9025ZM95.8465 28.6865C99.8065 28.6865 102.398 25.8785 102.398 22.1825C102.398 18.4865 99.8065 15.6785 95.8465 15.6785C91.9105 15.6785 89.2705 18.4865 89.2705 22.1825C89.2705 25.8785 91.9105 28.6865 95.8465 28.6865Z" fill="#2C2C2C"/>
<path d="M103.541 28.3014H107.453V16.0134H103.541V28.3014ZM103.541 14.3094H107.453V11.1414H103.541V14.3094Z" fill="#2C2C2C"/>
<path d="M109.15 32.3571H113.062V27.0291H113.11C113.878 28.0611 115.006 28.6851 116.59 28.6851C119.806 28.6851 121.942 26.1411 121.942 22.1571C121.942 18.4611 119.95 15.6531 116.686 15.6531C115.006 15.6531 113.806 16.3971 112.966 17.5011H112.894V16.0131H109.15V32.3571ZM115.582 25.6611C113.902 25.6611 112.942 24.2931 112.942 22.3011C112.942 20.3091 113.806 18.7971 115.51 18.7971C117.19 18.7971 117.982 20.1891 117.982 22.3011C117.982 24.3891 117.07 25.6611 115.582 25.6611Z" fill="#2C2C2C"/>
<path d="M128.311 28.6851C131.527 28.6851 133.903 27.2931 133.903 24.6051C133.903 21.4611 131.359 20.9091 129.199 20.5491C127.639 20.2611 126.247 20.1411 126.247 19.2771C126.247 18.5091 126.991 18.1491 127.951 18.1491C129.031 18.1491 129.775 18.4851 129.919 19.5891H133.519C133.327 17.1651 131.455 15.6531 127.975 15.6531C125.071 15.6531 122.671 16.9971 122.671 19.5891C122.671 22.4691 124.951 23.0451 127.087 23.4051C128.719 23.6931 130.207 23.8131 130.207 24.9171C130.207 25.7091 129.463 26.1411 128.287 26.1411C126.991 26.1411 126.175 25.5411 126.031 24.3171H122.335C122.455 27.0291 124.711 28.6851 128.311 28.6851Z" fill="#2C2C2C"/>
<path d="M139.217 28.6624C140.921 28.6624 142.001 27.9904 142.889 26.7904H142.961V28.3024H146.705V16.0144H142.793V22.8784C142.793 24.3424 141.977 25.3504 140.633 25.3504C139.385 25.3504 138.785 24.6064 138.785 23.2624V16.0144H134.897V24.0784C134.897 26.8144 136.385 28.6624 139.217 28.6624Z" fill="#2C2C2C"/>
<path d="M148.407 28.3011H152.319V21.4131C152.319 19.9491 153.039 18.9171 154.263 18.9171C155.439 18.9171 155.991 19.6851 155.991 21.0051V28.3011H159.903V21.4131C159.903 19.9491 160.599 18.9171 161.847 18.9171C163.023 18.9171 163.575 19.6851 163.575 21.0051V28.3011H167.487V20.3091C167.487 17.5491 166.095 15.6531 163.311 15.6531C161.727 15.6531 160.407 16.3251 159.447 17.8131H159.399C158.775 16.4931 157.551 15.6531 155.943 15.6531C154.167 15.6531 152.991 16.4931 152.223 17.7651H152.151V16.0131H148.407V28.3011Z" fill="#2C2C2C"/>
<path d="M25.6492 1.32608L21.7162 0.272217L18.4018 12.6418L15.4095 1.47446L11.4764 2.52832L14.7094 14.5938L6.65672 6.5412L3.77753 9.42039L12.6103 18.2532L1.6105 15.3058L0.556641 19.2388L12.5753 22.4592C12.4377 21.8657 12.3649 21.2473 12.3649 20.6119C12.3649 16.1143 16.0109 12.4683 20.5085 12.4683C25.0061 12.4683 28.6521 16.1143 28.6521 20.6119C28.6521 21.2432 28.5802 21.8578 28.4443 22.4478L39.367 25.3745L40.4208 21.4415L28.3544 18.2083L39.3549 15.2607L38.301 11.3277L26.2351 14.5607L34.2877 6.50814L31.4085 3.62895L22.6983 12.3392L25.6492 1.32608Z" fill="#3797E4"/>
<path d="M28.4331 22.4939C28.0959 23.9195 27.384 25.2002 26.4072 26.2263L34.3202 34.1394L37.1994 31.2602L28.4331 22.4939Z" fill="#3797E4"/>
<path d="M26.3274 26.3093C25.3388 27.319 24.0895 28.0725 22.6885 28.4608L25.5679 39.2068L29.5009 38.1529L26.3274 26.3093Z" fill="#3797E4"/>
<path d="M22.5416 28.4996C21.8916 28.6667 21.2103 28.7555 20.5082 28.7555C19.756 28.7555 19.0276 28.6535 18.3361 28.4626L15.4541 39.2184L19.3871 40.2722L22.5416 28.4996Z" fill="#3797E4"/>
<path d="M18.197 28.4233C16.8174 28.0157 15.5903 27.2526 14.6219 26.24L6.68945 34.1725L9.56864 37.0517L18.197 28.4233Z" fill="#3797E4"/>
<path d="M14.5565 26.1694C13.6047 25.1504 12.9114 23.8868 12.5814 22.4832L1.62305 25.4195L2.6769 29.3525L14.5565 26.1694Z" fill="#3797E4"/>
</svg>
