<svg width="202" height="41" viewBox="0 0 202 41" fill="none" xmlns="http://www.w3.org/2000/svg">
<path fill-rule="evenodd" clip-rule="evenodd" d="M25.5557 11.9575C23.9112 10.8587 21.9778 10.2722 20 10.2722V0.272217C23.9556 0.272217 27.8224 1.4452 31.1114 3.64283C34.4004 5.84045 36.9638 8.96403 38.4776 12.6185C39.9913 16.273 40.3874 20.2944 39.6157 24.174C38.844 28.0536 36.9392 31.6173 34.1421 34.4143C31.3451 37.2114 27.7814 39.1162 23.9018 39.8879C20.0222 40.6596 16.0008 40.2635 12.3463 38.7498C8.6918 37.236 5.56823 34.6726 3.37061 31.3836C1.17298 28.0946 0 24.2278 0 20.2722H10C10 22.25 10.5865 24.1834 11.6853 25.8279C12.7841 27.4724 14.3459 28.7541 16.1732 29.511C18.0004 30.2679 20.0111 30.4659 21.9509 30.08C23.8907 29.6942 25.6725 28.7418 27.0711 27.3433C28.4696 25.9447 29.422 24.1629 29.8078 22.2231C30.1937 20.2833 29.9957 18.2726 29.2388 16.4454C28.4819 14.6181 27.2002 13.0563 25.5557 11.9575Z" fill="#3797E4"/>
<path fill-rule="evenodd" clip-rule="evenodd" d="M9.99999 0.272222C9.99999 1.58544 9.74134 2.8858 9.23879 4.09906C8.73624 5.31231 7.99965 6.4147 7.07106 7.34329C6.14248 8.27188 5.04009 9.00847 3.82683 9.51102C2.61357 10.0136 1.31321 10.2722 4.3711e-07 10.2722L0 20.2722C2.62643 20.2722 5.22715 19.7549 7.65367 18.7498C10.0802 17.7447 12.285 16.2715 14.1421 14.4143C15.9993 12.5572 17.4725 10.3524 18.4776 7.92589C19.4827 5.49937 20 2.89865 20 0.272217L9.99999 0.272222Z" fill="#3797E4"/>
<path d="M125.619 14.7253H120.767V30.1376H125.619V14.7253Z" fill="#2C2C2C"/>
<path d="M121.307 11.8388C121.814 12.3462 122.448 12.5999 123.209 12.5999C123.97 12.5999 124.594 12.3462 125.08 11.8388C125.567 11.3103 125.81 10.676 125.81 9.93607C125.81 9.17499 125.567 8.54071 125.08 8.03333C124.594 7.52591 123.97 7.27222 123.209 7.27222C122.448 7.27222 121.814 7.52591 121.307 8.03333C120.82 8.54071 120.577 9.17499 120.577 9.93607C120.577 10.676 120.82 11.3103 121.307 11.8388Z" fill="#2C2C2C"/>
<path d="M51.1562 30.1369V7.7478H56.1352V25.7606H66.0613V30.1369H51.1562Z" fill="#2C2C2C"/>
<path fill-rule="evenodd" clip-rule="evenodd" d="M75.0273 30.4857C73.4417 30.4857 72.0041 30.1369 70.7144 29.4392C69.4459 28.7204 68.4417 27.7479 67.7017 26.5216C66.9618 25.2954 66.5918 23.9212 66.5918 22.399C66.5918 20.8768 66.9618 19.5132 67.7017 18.3081C68.4417 17.103 69.4459 16.1516 70.7144 15.454C71.9829 14.7351 73.4206 14.3757 75.0273 14.3757C76.6341 14.3757 78.0717 14.7246 79.3402 15.4222C80.6087 16.1199 81.613 17.0819 82.3529 18.3081C83.0929 19.5132 83.4629 20.8768 83.4629 22.399C83.4629 23.9212 83.0929 25.2954 82.3529 26.5216C81.613 27.7479 80.6087 28.7204 79.3402 29.4392C78.0717 30.1369 76.6341 30.4857 75.0273 30.4857ZM75.0273 26.0777C75.725 26.0777 76.3381 25.9297 76.8667 25.6337C77.3952 25.3166 77.7969 24.8832 78.0717 24.3335C78.3677 23.7627 78.5157 23.1178 78.5157 22.399C78.5157 21.6802 78.3677 21.0565 78.0717 20.528C77.7757 19.9783 77.3635 19.5555 76.8349 19.2595C76.3275 18.9423 75.725 18.7838 75.0273 18.7838C74.3508 18.7838 73.7483 18.9423 73.2197 19.2595C72.6912 19.5555 72.2789 19.9783 71.9829 20.528C71.6869 21.0777 71.539 21.7119 71.539 22.4307C71.539 23.1284 71.6869 23.7627 71.9829 24.3335C72.2789 24.8832 72.6912 25.3166 73.2197 25.6337C73.7483 25.9297 74.3508 26.0777 75.0273 26.0777Z" fill="#2C2C2C"/>
<path fill-rule="evenodd" clip-rule="evenodd" d="M87.3056 36.1619C88.5952 36.7538 90.0857 37.0498 91.7771 37.0498C93.4261 37.0498 94.8955 36.7221 96.1851 36.0667C97.4748 35.4113 98.4895 34.5023 99.2295 33.3395C99.9694 32.1767 100.34 30.8025 100.34 29.2168V14.7242H95.5825V15.7597C95.2287 15.4619 94.8269 15.2119 94.3775 15.0096C93.5529 14.6079 92.6121 14.407 91.5551 14.407C90.1386 14.407 88.8806 14.7453 87.7813 15.4218C86.6818 16.0772 85.8151 16.9863 85.1808 18.1491C84.5465 19.2908 84.2295 20.5804 84.2295 22.0181C84.2295 23.4346 84.5465 24.7242 85.1808 25.887C85.8151 27.0498 86.6818 27.9695 87.7813 28.646C88.8806 29.3225 90.1386 29.6608 91.5551 29.6608C92.591 29.6608 93.5318 29.46 94.3775 29.0583C94.7871 28.8637 95.1571 28.6344 95.4874 28.3703V29.3437C95.4874 30.4219 95.1386 31.257 94.4409 31.849C93.7644 32.441 92.8236 32.7369 91.6185 32.7369C90.646 32.7369 89.8109 32.5678 89.1132 32.2295C88.4367 31.8913 87.8235 31.3944 87.2738 30.739L84.2929 33.72C85.0328 34.7771 86.0371 35.5911 87.3056 36.1619ZM94.2189 24.9039C93.7326 25.1999 93.1513 25.3479 92.4747 25.3479C91.7982 25.3479 91.2062 25.1999 90.6988 24.9039C90.2125 24.6079 89.832 24.2062 89.5572 23.6988C89.2823 23.1703 89.1449 22.61 89.1449 22.0181C89.1449 21.3838 89.2823 20.813 89.5572 20.3056C89.832 19.7982 90.2231 19.3965 90.7305 19.1005C91.2379 18.8045 91.8193 18.6565 92.4747 18.6565C93.1513 18.6565 93.7326 18.8045 94.2189 19.1005C94.7263 19.3965 95.1068 19.7982 95.3606 20.3056C95.6354 20.813 95.7728 21.3838 95.7728 22.0181C95.7728 22.6523 95.6354 23.2231 95.3606 23.7305C95.1068 24.2168 94.7263 24.6079 94.2189 24.9039Z" fill="#2C2C2C"/>
<path fill-rule="evenodd" clip-rule="evenodd" d="M110.551 30.4857C108.965 30.4857 107.527 30.1369 106.238 29.4392C104.969 28.7204 103.965 27.7479 103.225 26.5216C102.485 25.2954 102.115 23.9212 102.115 22.399C102.115 20.8768 102.485 19.5132 103.225 18.3081C103.965 17.103 104.969 16.1516 106.238 15.454C107.506 14.7351 108.944 14.3757 110.551 14.3757C112.157 14.3757 113.595 14.7246 114.863 15.4222C116.132 16.1199 117.136 17.0819 117.876 18.3081C118.616 19.5132 118.986 20.8768 118.986 22.399C118.986 23.9212 118.616 25.2954 117.876 26.5216C117.136 27.7479 116.132 28.7204 114.863 29.4392C113.595 30.1369 112.157 30.4857 110.551 30.4857ZM110.551 26.0777C111.248 26.0777 111.861 25.9297 112.39 25.6337C112.918 25.3166 113.32 24.8832 113.595 24.3335C113.891 23.7627 114.039 23.1178 114.039 22.399C114.039 21.6802 113.891 21.0565 113.595 20.528C113.299 19.9783 112.887 19.5555 112.358 19.2595C111.851 18.9423 111.248 18.7838 110.551 18.7838C109.874 18.7838 109.271 18.9423 108.743 19.2595C108.214 19.5555 107.802 19.9783 107.506 20.528C107.21 21.0777 107.062 21.7119 107.062 22.4307C107.062 23.1284 107.21 23.7627 107.506 24.3335C107.802 24.8832 108.214 25.3166 108.743 25.6337C109.271 25.9297 109.874 26.0777 110.551 26.0777Z" fill="#2C2C2C"/>
<path fill-rule="evenodd" clip-rule="evenodd" d="M137.281 30.4536C136.246 30.4536 135.294 30.2528 134.427 29.8511C133.971 29.6397 133.559 29.3873 133.191 29.0939V36.6376H128.402V14.7242H133.254V15.7879C133.606 15.5 133.997 15.2511 134.427 15.0413C135.294 14.6184 136.246 14.407 137.281 14.407C138.74 14.407 140.03 14.7559 141.15 15.4536C142.292 16.1512 143.18 17.1026 143.814 18.3077C144.47 19.5128 144.797 20.887 144.797 22.4303C144.797 23.9737 144.47 25.3479 143.814 26.553C143.18 27.7581 142.292 28.7094 141.15 29.4071C140.03 30.1048 138.74 30.4536 137.281 30.4536ZM136.394 26.0773C137.091 26.0773 137.694 25.9187 138.201 25.6016C138.73 25.2845 139.142 24.851 139.438 24.3014C139.734 23.7517 139.882 23.128 139.882 22.4303C139.882 21.7115 139.734 21.0773 139.438 20.5276C139.142 19.9779 138.73 19.5551 138.201 19.2591C137.694 18.9419 137.102 18.7834 136.425 18.7834C135.749 18.7834 135.146 18.9419 134.618 19.2591C134.11 19.5551 133.709 19.9779 133.413 20.5276C133.117 21.0773 132.969 21.7115 132.969 22.4303C132.969 23.128 133.106 23.7517 133.381 24.3014C133.677 24.851 134.089 25.2845 134.618 25.6016C135.146 25.9187 135.738 26.0773 136.394 26.0773Z" fill="#2C2C2C"/>
<path d="M149.546 30.168C150.434 30.4006 151.332 30.5168 152.241 30.5168C154.165 30.5168 155.687 30.0729 156.808 29.1849C157.949 28.297 158.52 27.1025 158.52 25.6014C158.52 24.6289 158.341 23.8466 157.981 23.2547C157.622 22.6416 157.157 22.1553 156.586 21.7959C156.015 21.4365 155.412 21.151 154.778 20.9396C154.144 20.7282 153.541 20.5485 152.971 20.4005C152.4 20.2525 151.935 20.0834 151.575 19.8931C151.216 19.7028 151.036 19.4491 151.036 19.132C151.036 18.836 151.174 18.614 151.448 18.466C151.723 18.2969 152.135 18.2124 152.685 18.2124C153.256 18.2124 153.837 18.3286 154.429 18.5612C155.042 18.7937 155.592 19.1955 156.078 19.7663L158.837 16.9756C158.14 16.0876 157.231 15.4216 156.11 14.9777C155.011 14.5126 153.806 14.28 152.495 14.28C151.248 14.28 150.159 14.4914 149.229 14.9142C148.298 15.3371 147.579 15.9185 147.072 16.6584C146.565 17.3772 146.311 18.2335 146.311 19.2272C146.311 20.1574 146.491 20.9291 146.85 21.5422C147.209 22.1341 147.675 22.5993 148.245 22.9375C148.816 23.2758 149.419 23.5401 150.053 23.7303C150.687 23.9206 151.29 24.1003 151.861 24.2695C152.431 24.4175 152.897 24.5972 153.256 24.8086C153.637 24.9989 153.827 25.2843 153.827 25.6648C153.827 25.9608 153.668 26.1933 153.351 26.3625C153.055 26.5316 152.622 26.6162 152.051 26.6162C151.226 26.6162 150.465 26.4682 149.768 26.1722C149.07 25.8551 148.467 25.4217 147.96 24.872L145.201 27.6627C145.73 28.2335 146.364 28.741 147.104 29.1849C147.865 29.6077 148.679 29.9354 149.546 30.168Z" fill="#2C2C2C"/>
<path d="M167.368 30.4864C165.952 30.4864 164.694 30.201 163.595 29.6302C162.516 29.0382 161.671 28.2348 161.058 27.22C160.444 26.1841 160.138 25.0002 160.138 23.6682V14.7253H164.99V23.6048C164.99 24.1333 165.074 24.5879 165.244 24.9684C165.434 25.349 165.709 25.645 166.068 25.8564C166.428 26.0678 166.861 26.1735 167.368 26.1735C168.087 26.1735 168.658 25.9515 169.081 25.5075C169.504 25.0424 169.715 24.4082 169.715 23.6048V14.7253H174.567V23.6365C174.567 24.9896 174.261 26.1841 173.647 27.22C173.034 28.2348 172.189 29.0382 171.11 29.6302C170.032 30.201 168.785 30.4864 167.368 30.4864Z" fill="#2C2C2C"/>
<path d="M181.831 14.7242H176.979V30.1365H181.831V21.1301C181.831 20.6016 181.937 20.1576 182.148 19.7982C182.381 19.4388 182.688 19.1639 183.068 18.9737C183.449 18.7622 183.882 18.6565 184.368 18.6565C185.066 18.6565 185.647 18.8785 186.112 19.3225C186.599 19.7453 186.842 20.3479 186.842 21.1301V30.1365H191.694V21.1301C191.694 20.6016 191.8 20.1576 192.011 19.7982C192.244 19.4388 192.55 19.1639 192.931 18.9737C193.311 18.7622 193.745 18.6565 194.231 18.6565C194.929 18.6565 195.51 18.8785 195.975 19.3225C196.461 19.7453 196.704 20.3479 196.704 21.1301V30.1365H201.557V20.591C201.557 19.3014 201.282 18.202 200.732 17.2929C200.203 16.3626 199.474 15.6544 198.544 15.1682C197.635 14.6607 196.588 14.407 195.404 14.407C194.199 14.407 193.11 14.6713 192.138 15.1999C191.506 15.5366 190.954 15.9712 190.481 16.5036C190.04 15.9467 189.504 15.491 188.871 15.1364C188.026 14.6502 187.064 14.407 185.986 14.407C184.844 14.407 183.819 14.6502 182.91 15.1364C182.514 15.3387 182.155 15.581 181.831 15.8633V14.7242Z" fill="#2C2C2C"/>
</svg>
