<svg width="168" height="40" viewBox="0 0 168 40" fill="none" xmlns="http://www.w3.org/2000/svg">
<path d="M49.2021 28.0213H61.1541V24.4213H53.4501V10.8613H49.2021V28.0213Z" fill="white"/>
<path d="M68.2356 25.6224C66.5316 25.6224 65.6436 24.1344 65.6436 21.9024C65.6436 19.6704 66.5316 18.1584 68.2356 18.1584C69.9396 18.1584 70.8516 19.6704 70.8516 21.9024C70.8516 24.1344 69.9396 25.6224 68.2356 25.6224ZM68.2596 28.4064C72.2196 28.4064 74.8116 25.5984 74.8116 21.9024C74.8116 18.2064 72.2196 15.3984 68.2596 15.3984C64.3236 15.3984 61.6836 18.2064 61.6836 21.9024C61.6836 25.5984 64.3236 28.4064 68.2596 28.4064Z" fill="white"/>
<path d="M81.6663 32.269C83.4903 32.269 85.0983 31.861 86.1783 30.901C87.1623 30.013 87.8103 28.669 87.8103 26.821V15.733H84.0663V17.053H84.0183C83.2983 16.021 82.1943 15.373 80.5623 15.373C77.5143 15.373 75.4023 17.917 75.4023 21.517C75.4023 25.285 77.9703 27.349 80.7303 27.349C82.2183 27.349 83.1543 26.749 83.8743 25.933H83.9703V27.157C83.9703 28.645 83.2743 29.509 81.6183 29.509C80.3223 29.509 79.6743 28.957 79.4583 28.309H75.6663C76.0503 30.877 78.2823 32.269 81.6663 32.269ZM81.6423 24.445C80.1783 24.445 79.2183 23.245 79.2183 21.397C79.2183 19.525 80.1783 18.325 81.6423 18.325C83.2743 18.325 84.1383 19.717 84.1383 21.373C84.1383 23.101 83.3463 24.445 81.6423 24.445Z" fill="white"/>
<path d="M95.5081 25.6224C93.8041 25.6224 92.9161 24.1344 92.9161 21.9024C92.9161 19.6704 93.8041 18.1584 95.5081 18.1584C97.2121 18.1584 98.1241 19.6704 98.1241 21.9024C98.1241 24.1344 97.2121 25.6224 95.5081 25.6224ZM95.5321 28.4064C99.4921 28.4064 102.084 25.5984 102.084 21.9024C102.084 18.2064 99.4921 15.3984 95.5321 15.3984C91.5961 15.3984 88.9561 18.2064 88.9561 21.9024C88.9561 25.5984 91.5961 28.4064 95.5321 28.4064Z" fill="white"/>
<path d="M103.227 28.0213H107.139V15.7333H103.227V28.0213ZM103.227 14.0293H107.139V10.8613H103.227V14.0293Z" fill="white"/>
<path d="M108.836 32.077H112.748V26.749H112.796C113.564 27.781 114.692 28.405 116.276 28.405C119.492 28.405 121.628 25.861 121.628 21.877C121.628 18.181 119.636 15.373 116.372 15.373C114.692 15.373 113.492 16.117 112.652 17.221H112.58V15.733H108.836V32.077ZM115.268 25.381C113.588 25.381 112.628 24.013 112.628 22.021C112.628 20.029 113.492 18.517 115.196 18.517C116.876 18.517 117.668 19.909 117.668 22.021C117.668 24.109 116.756 25.381 115.268 25.381Z" fill="white"/>
<path d="M127.997 28.405C131.213 28.405 133.589 27.013 133.589 24.325C133.589 21.181 131.045 20.629 128.885 20.269C127.325 19.981 125.933 19.861 125.933 18.997C125.933 18.229 126.677 17.869 127.637 17.869C128.717 17.869 129.46 18.205 129.604 19.309H133.205C133.013 16.885 131.141 15.373 127.661 15.373C124.757 15.373 122.357 16.717 122.357 19.309C122.357 22.189 124.637 22.765 126.773 23.125C128.405 23.413 129.893 23.533 129.893 24.637C129.893 25.429 129.149 25.861 127.973 25.861C126.677 25.861 125.861 25.261 125.717 24.037H122.021C122.141 26.749 124.397 28.405 127.997 28.405Z" fill="white"/>
<path d="M138.903 28.3824C140.607 28.3824 141.687 27.7104 142.575 26.5104H142.647V28.0224H146.391V15.7344H142.479V22.5984C142.479 24.0624 141.663 25.0704 140.319 25.0704C139.071 25.0704 138.471 24.3264 138.471 22.9824V15.7344H134.583V23.7984C134.583 26.5344 136.071 28.3824 138.903 28.3824Z" fill="white"/>
<path d="M148.093 28.021H152.005V21.133C152.005 19.669 152.725 18.637 153.949 18.637C155.125 18.637 155.677 19.405 155.677 20.725V28.021H159.589V21.133C159.589 19.669 160.285 18.637 161.533 18.637C162.709 18.637 163.261 19.405 163.261 20.725V28.021H167.173V20.029C167.173 17.269 165.781 15.373 162.997 15.373C161.413 15.373 160.093 16.045 159.133 17.533H159.085C158.461 16.213 157.237 15.373 155.629 15.373C153.853 15.373 152.677 16.213 151.909 17.485H151.837V15.733H148.093V28.021Z" fill="white"/>
<path d="M25.3347 1.04605L21.4017 -0.0078125L18.0873 12.3618L15.095 1.19443L11.1619 2.24829L14.3949 14.3138L6.34226 6.26117L3.46307 9.14036L12.2958 17.9732L1.29604 15.0258L0.242188 18.9588L12.2608 22.1792C12.1232 21.5857 12.0504 20.9673 12.0504 20.3319C12.0504 15.8343 15.6964 12.1883 20.194 12.1883C24.6916 12.1883 28.3376 15.8343 28.3376 20.3319C28.3376 20.9632 28.2657 21.5778 28.1298 22.1678L39.0525 25.0945L40.1063 21.1615L28.0399 17.9283L39.0404 14.9807L37.9865 11.0477L25.9206 14.2807L33.9732 6.22811L31.094 3.34892L22.3838 12.0592L25.3347 1.04605Z" fill="white"/>
<path d="M28.1187 22.2139C27.7815 23.6395 27.0696 24.9202 26.0928 25.9463L34.0058 33.8594L36.885 30.9802L28.1187 22.2139Z" fill="white"/>
<path d="M26.0129 26.0293C25.0243 27.039 23.775 27.7925 22.374 28.1808L25.2534 38.9268L29.1864 37.8729L26.0129 26.0293Z" fill="white"/>
<path d="M22.2271 28.2196C21.5771 28.3867 20.8958 28.4755 20.1937 28.4755C19.4415 28.4755 18.7131 28.3735 18.0216 28.1826L15.1396 38.9384L19.0726 39.9922L22.2271 28.2196Z" fill="white"/>
<path d="M17.8826 28.1433C16.503 27.7357 15.2759 26.9726 14.3075 25.96L6.375 33.8925L9.25419 36.7717L17.8826 28.1433Z" fill="white"/>
<path d="M14.2421 25.8893C13.2903 24.8703 12.597 23.6067 12.267 22.2031L1.30859 25.1394L2.36244 29.0724L14.2421 25.8893Z" fill="white"/>
</svg>
