<svg width="170" height="40" viewBox="0 0 170 40" fill="none" xmlns="http://www.w3.org/2000/svg">
<path d="M51.7725 27.992H63.7245V24.392H56.0205V10.832H51.7725V27.992Z" fill="white"/>
<path d="M70.8049 25.5922C69.1009 25.5922 68.2129 24.1042 68.2129 21.8722C68.2129 19.6402 69.1009 18.1282 70.8049 18.1282C72.5089 18.1282 73.4209 19.6402 73.4209 21.8722C73.4209 24.1042 72.5089 25.5922 70.8049 25.5922ZM70.8289 28.3762C74.7889 28.3762 77.3809 25.5682 77.3809 21.8722C77.3809 18.1762 74.7889 15.3682 70.8289 15.3682C66.8929 15.3682 64.2529 18.1762 64.2529 21.8722C64.2529 25.5682 66.8929 28.3762 70.8289 28.3762Z" fill="white"/>
<path d="M84.2357 32.2398C86.0597 32.2398 87.6677 31.8317 88.7477 30.8717C89.7317 29.9837 90.3797 28.6397 90.3797 26.7917V15.7038H86.6357V17.0238H86.5877C85.8677 15.9918 84.7637 15.3438 83.1317 15.3438C80.0837 15.3438 77.9717 17.8878 77.9717 21.4878C77.9717 25.2558 80.5397 27.3197 83.2997 27.3197C84.7877 27.3197 85.7237 26.7197 86.4437 25.9037H86.5397V27.1278C86.5397 28.6158 85.8437 29.4797 84.1877 29.4797C82.8917 29.4797 82.2437 28.9278 82.0277 28.2798H78.2357C78.6197 30.8478 80.8517 32.2398 84.2357 32.2398ZM84.2117 24.4158C82.7477 24.4158 81.7877 23.2158 81.7877 21.3678C81.7877 19.4958 82.7477 18.2957 84.2117 18.2957C85.8437 18.2957 86.7077 19.6877 86.7077 21.3438C86.7077 23.0718 85.9157 24.4158 84.2117 24.4158Z" fill="white"/>
<path d="M98.0784 25.5922C96.3744 25.5922 95.4864 24.1042 95.4864 21.8722C95.4864 19.6402 96.3744 18.1282 98.0784 18.1282C99.7824 18.1282 100.694 19.6402 100.694 21.8722C100.694 24.1042 99.7824 25.5922 98.0784 25.5922ZM98.1024 28.3762C102.062 28.3762 104.654 25.5682 104.654 21.8722C104.654 18.1762 102.062 15.3682 98.1024 15.3682C94.1664 15.3682 91.5264 18.1762 91.5264 21.8722C91.5264 25.5682 94.1664 28.3762 98.1024 28.3762Z" fill="white"/>
<path d="M105.796 27.992H109.708V15.704H105.796V27.992ZM105.796 14H109.708V10.832H105.796V14Z" fill="white"/>
<path d="M111.406 32.0478H115.318V26.7197H115.366C116.134 27.7517 117.262 28.3757 118.846 28.3757C122.062 28.3757 124.198 25.8317 124.198 21.8477C124.198 18.1517 122.206 15.3438 118.942 15.3438C117.262 15.3438 116.062 16.0877 115.222 17.1917H115.15V15.7038H111.406V32.0478ZM117.838 25.3517C116.158 25.3517 115.198 23.9838 115.198 21.9918C115.198 19.9998 116.062 18.4878 117.766 18.4878C119.446 18.4878 120.238 19.8798 120.238 21.9918C120.238 24.0798 119.326 25.3517 117.838 25.3517Z" fill="white"/>
<path d="M130.567 28.3757C133.783 28.3757 136.159 26.9837 136.159 24.2957C136.159 21.1517 133.615 20.5998 131.455 20.2397C129.895 19.9517 128.503 19.8318 128.503 18.9678C128.503 18.1998 129.247 17.8398 130.207 17.8398C131.287 17.8398 132.031 18.1758 132.175 19.2798H135.775C135.583 16.8558 133.711 15.3438 130.231 15.3438C127.327 15.3438 124.927 16.6878 124.927 19.2798C124.927 22.1598 127.207 22.7358 129.343 23.0958C130.975 23.3838 132.463 23.5037 132.463 24.6077C132.463 25.3997 131.719 25.8318 130.543 25.8318C129.247 25.8318 128.431 25.2317 128.287 24.0077H124.591C124.711 26.7197 126.967 28.3757 130.567 28.3757Z" fill="white"/>
<path d="M141.473 28.3521C143.177 28.3521 144.257 27.6801 145.145 26.4801H145.217V27.9921H148.961V15.7041H145.049V22.5681C145.049 24.0321 144.233 25.0401 142.889 25.0401C141.641 25.0401 141.041 24.2961 141.041 22.9521V15.7041H137.153V23.7681C137.153 26.5041 138.641 28.3521 141.473 28.3521Z" fill="white"/>
<path d="M150.662 27.9918H154.574V21.1038C154.574 19.6398 155.294 18.6077 156.518 18.6077C157.694 18.6077 158.246 19.3757 158.246 20.6957V27.9918H162.158V21.1038C162.158 19.6398 162.854 18.6077 164.102 18.6077C165.278 18.6077 165.83 19.3757 165.83 20.6957V27.9918H169.742V19.9998C169.742 17.2398 168.35 15.3438 165.566 15.3438C163.982 15.3438 162.662 16.0157 161.702 17.5037H161.654C161.03 16.1837 159.806 15.3438 158.198 15.3438C156.422 15.3438 155.246 16.1837 154.478 17.4557H154.406V15.7038H150.662V27.9918Z" fill="white"/>
<path fill-rule="evenodd" clip-rule="evenodd" d="M20.5957 39.9922C31.6414 39.9922 40.5957 31.0379 40.5957 19.9922C40.5957 8.9465 31.6414 -0.0078125 20.5957 -0.0078125C9.54999 -0.0078125 0.595703 8.9465 0.595703 19.9922C0.595703 31.0379 9.54999 39.9922 20.5957 39.9922ZM26.835 9.30903C27.1387 8.23024 26.0918 7.59232 25.1357 8.27349L11.7888 17.7818C10.7519 18.5205 10.915 19.9922 12.0338 19.9922H15.5484V19.965H22.3982L16.8169 21.9343L14.3564 30.6754C14.0527 31.7542 15.0995 32.3921 16.0557 31.7109L29.4026 22.2027C30.4395 21.464 30.2763 19.9922 29.1576 19.9922H23.8278L26.835 9.30903Z" fill="white"/>
</svg>
