<svg width="202" height="40" viewBox="0 0 202 40" fill="none" xmlns="http://www.w3.org/2000/svg">
<path fill-rule="evenodd" clip-rule="evenodd" d="M25.6641 11.6775C24.0196 10.5787 22.0862 9.99219 20.1084 9.99219V-0.0078125C24.064 -0.0078125 27.9308 1.16517 31.2198 3.3628C34.5088 5.56042 37.0722 8.684 38.586 12.3385C40.0997 15.993 40.4958 20.0144 39.7241 23.894C38.9524 27.7736 37.0476 31.3373 34.2505 34.1343C31.4535 36.9314 27.8898 38.8362 24.0102 39.6079C20.1306 40.3796 16.1092 39.9835 12.4547 38.4698C8.8002 36.956 5.67663 34.3926 3.47901 31.1036C1.28138 27.8146 0.108398 23.9478 0.108398 19.9922H10.1084C10.1084 21.97 10.6949 23.9034 11.7937 25.5479C12.8925 27.1924 14.4543 28.4741 16.2816 29.231C18.1088 29.9879 20.1195 30.1859 22.0593 29.8C23.9991 29.4142 25.7809 28.4618 27.1795 27.0633C28.578 25.6647 29.5304 23.8829 29.9162 21.9431C30.3021 20.0033 30.1041 17.9926 29.3472 16.1654C28.5903 14.3381 27.3086 12.7763 25.6641 11.6775Z" fill="white"/>
<path fill-rule="evenodd" clip-rule="evenodd" d="M10.1084 -0.00780722C10.1084 1.30541 9.84974 2.60577 9.34719 3.81903C8.84464 5.03228 8.10805 6.13467 7.17946 7.06326C6.25088 7.99185 5.14849 8.72844 3.93523 9.23099C2.72197 9.73353 1.42161 9.99219 0.108399 9.99219L0.108398 19.9922C2.73483 19.9922 5.33555 19.4749 7.76207 18.4698C10.1886 17.4647 12.3934 15.9915 14.2505 14.1343C16.1077 12.2772 17.5809 10.0724 18.586 7.64586C19.5911 5.21934 20.1084 2.61862 20.1084 -0.0078125L10.1084 -0.00780722Z" fill="white"/>
<path d="M125.727 14.4453H120.875V29.8576H125.727V14.4453Z" fill="white"/>
<path d="M121.416 11.5588C121.923 12.0662 122.557 12.3199 123.318 12.3199C124.079 12.3199 124.703 12.0662 125.189 11.5588C125.676 11.0303 125.919 10.396 125.919 9.65604C125.919 8.89496 125.676 8.26068 125.189 7.7533C124.703 7.24588 124.079 6.99219 123.318 6.99219C122.557 6.99219 121.923 7.24588 121.416 7.7533C120.929 8.26068 120.686 8.89496 120.686 9.65604C120.686 10.396 120.929 11.0303 121.416 11.5588Z" fill="white"/>
<path d="M51.2646 29.8569V7.46777H56.2435V25.4806H66.1697V29.8569H51.2646Z" fill="white"/>
<path fill-rule="evenodd" clip-rule="evenodd" d="M75.1357 30.2057C73.5501 30.2057 72.1125 29.8569 70.8228 29.1592C69.5543 28.4404 68.5501 27.4679 67.8101 26.2416C67.0702 25.0154 66.7002 23.6412 66.7002 22.119C66.7002 20.5968 67.0702 19.2332 67.8101 18.0281C68.5501 16.823 69.5543 15.8716 70.8228 15.174C72.0913 14.4551 73.529 14.0957 75.1357 14.0957C76.7425 14.0957 78.1801 14.4446 79.4486 15.1422C80.7171 15.8399 81.7214 16.8019 82.4613 18.0281C83.2013 19.2332 83.5713 20.5968 83.5713 22.119C83.5713 23.6412 83.2013 25.0154 82.4613 26.2416C81.7214 27.4679 80.7171 28.4404 79.4486 29.1592C78.1801 29.8569 76.7425 30.2057 75.1357 30.2057ZM75.1357 25.7977C75.8334 25.7977 76.4465 25.6497 76.9751 25.3537C77.5036 25.0366 77.9053 24.6032 78.1801 24.0535C78.4761 23.4827 78.6241 22.8378 78.6241 22.119C78.6241 21.4002 78.4761 20.7765 78.1801 20.248C77.8841 19.6983 77.4719 19.2755 76.9433 18.9795C76.4359 18.6623 75.8334 18.5038 75.1357 18.5038C74.4592 18.5038 73.8567 18.6623 73.3281 18.9795C72.7996 19.2755 72.3873 19.6983 72.0913 20.248C71.7953 20.7977 71.6474 21.4319 71.6474 22.1507C71.6474 22.8484 71.7953 23.4827 72.0913 24.0535C72.3873 24.6032 72.7996 25.0366 73.3281 25.3537C73.8567 25.6497 74.4592 25.7977 75.1357 25.7977Z" fill="white"/>
<path fill-rule="evenodd" clip-rule="evenodd" d="M87.414 35.8819C88.7036 36.4738 90.1941 36.7698 91.8855 36.7698C93.5345 36.7698 95.0039 36.4421 96.2935 35.7867C97.5832 35.1313 98.5979 34.2223 99.3379 33.0595C100.078 31.8967 100.448 30.5225 100.448 28.9368V14.4442H95.6909V15.4797C95.3371 15.1819 94.9353 14.9319 94.4859 14.7296C93.6613 14.3279 92.7205 14.127 91.6635 14.127C90.247 14.127 88.989 14.4653 87.8897 15.1418C86.7902 15.7972 85.9235 16.7063 85.2892 17.8691C84.6549 19.0108 84.3379 20.3004 84.3379 21.7381C84.3379 23.1546 84.6549 24.4442 85.2892 25.607C85.9235 26.7698 86.7902 27.6895 87.8897 28.366C88.989 29.0425 90.247 29.3808 91.6635 29.3808C92.6994 29.3808 93.6402 29.18 94.4859 28.7783C94.8955 28.5837 95.2655 28.3544 95.5958 28.0903V29.0637C95.5958 30.1419 95.247 30.977 94.5493 31.569C93.8728 32.161 92.932 32.4569 91.7269 32.4569C90.7544 32.4569 89.9193 32.2878 89.2216 31.9495C88.5451 31.6113 87.9319 31.1144 87.3822 30.459L84.4013 33.44C85.1412 34.4971 86.1455 35.3111 87.414 35.8819ZM94.3273 24.6239C93.841 24.9199 93.2597 25.0679 92.5831 25.0679C91.9066 25.0679 91.3146 24.9199 90.8072 24.6239C90.3209 24.3279 89.9404 23.9262 89.6656 23.4188C89.3907 22.8903 89.2533 22.33 89.2533 21.7381C89.2533 21.1038 89.3907 20.533 89.6656 20.0256C89.9404 19.5182 90.3315 19.1165 90.8389 18.8205C91.3463 18.5245 91.9277 18.3765 92.5831 18.3765C93.2597 18.3765 93.841 18.5245 94.3273 18.8205C94.8347 19.1165 95.2152 19.5182 95.469 20.0256C95.7438 20.533 95.8812 21.1038 95.8812 21.7381C95.8812 22.3723 95.7438 22.9431 95.469 23.4505C95.2152 23.9368 94.8347 24.3279 94.3273 24.6239Z" fill="white"/>
<path fill-rule="evenodd" clip-rule="evenodd" d="M110.66 30.2057C109.074 30.2057 107.636 29.8569 106.347 29.1592C105.078 28.4404 104.074 27.4679 103.334 26.2416C102.594 25.0154 102.224 23.6412 102.224 22.119C102.224 20.5968 102.594 19.2332 103.334 18.0281C104.074 16.823 105.078 15.8716 106.347 15.174C107.615 14.4551 109.053 14.0957 110.66 14.0957C112.266 14.0957 113.704 14.4446 114.972 15.1422C116.241 15.8399 117.245 16.8019 117.985 18.0281C118.725 19.2332 119.095 20.5968 119.095 22.119C119.095 23.6412 118.725 25.0154 117.985 26.2416C117.245 27.4679 116.241 28.4404 114.972 29.1592C113.704 29.8569 112.266 30.2057 110.66 30.2057ZM110.66 25.7977C111.357 25.7977 111.97 25.6497 112.499 25.3537C113.027 25.0366 113.429 24.6032 113.704 24.0535C114 23.4827 114.148 22.8378 114.148 22.119C114.148 21.4002 114 20.7765 113.704 20.248C113.408 19.6983 112.996 19.2755 112.467 18.9795C111.96 18.6623 111.357 18.5038 110.66 18.5038C109.983 18.5038 109.38 18.6623 108.852 18.9795C108.323 19.2755 107.911 19.6983 107.615 20.248C107.319 20.7977 107.171 21.4319 107.171 22.1507C107.171 22.8484 107.319 23.4827 107.615 24.0535C107.911 24.6032 108.323 25.0366 108.852 25.3537C109.38 25.6497 109.983 25.7977 110.66 25.7977Z" fill="white"/>
<path fill-rule="evenodd" clip-rule="evenodd" d="M137.39 30.1736C136.355 30.1736 135.403 29.9728 134.536 29.5711C134.08 29.3597 133.668 29.1073 133.3 28.8139V36.3576H128.511V14.4442H133.363V15.5079C133.715 15.22 134.106 14.9711 134.536 14.7613C135.403 14.3384 136.355 14.127 137.39 14.127C138.849 14.127 140.139 14.4759 141.259 15.1736C142.401 15.8712 143.289 16.8226 143.923 18.0277C144.579 19.2328 144.906 20.607 144.906 22.1503C144.906 23.6937 144.579 25.0679 143.923 26.273C143.289 27.4781 142.401 28.4294 141.259 29.1271C140.139 29.8248 138.849 30.1736 137.39 30.1736ZM136.503 25.7973C137.2 25.7973 137.803 25.6387 138.31 25.3216C138.839 25.0045 139.251 24.571 139.547 24.0214C139.843 23.4717 139.991 22.848 139.991 22.1503C139.991 21.4315 139.843 20.7973 139.547 20.2476C139.251 19.6979 138.839 19.2751 138.31 18.9791C137.803 18.6619 137.211 18.5034 136.534 18.5034C135.858 18.5034 135.255 18.6619 134.727 18.9791C134.219 19.2751 133.818 19.6979 133.522 20.2476C133.226 20.7973 133.078 21.4315 133.078 22.1503C133.078 22.848 133.215 23.4717 133.49 24.0214C133.786 24.571 134.198 25.0045 134.727 25.3216C135.255 25.6387 135.847 25.7973 136.503 25.7973Z" fill="white"/>
<path d="M149.655 29.888C150.543 30.1206 151.441 30.2368 152.35 30.2368C154.274 30.2368 155.796 29.7929 156.917 28.9049C158.058 28.017 158.629 26.8225 158.629 25.3214C158.629 24.3489 158.45 23.5666 158.09 22.9747C157.731 22.3616 157.266 21.8753 156.695 21.5159C156.124 21.1565 155.521 20.871 154.887 20.6596C154.253 20.4482 153.65 20.2685 153.08 20.1205C152.509 19.9725 152.044 19.8034 151.684 19.6131C151.325 19.4228 151.145 19.1691 151.145 18.852C151.145 18.556 151.283 18.334 151.557 18.186C151.832 18.0169 152.244 17.9324 152.794 17.9324C153.365 17.9324 153.946 18.0486 154.538 18.2812C155.151 18.5137 155.701 18.9155 156.187 19.4863L158.946 16.6956C158.249 15.8076 157.34 15.1416 156.219 14.6977C155.12 14.2326 153.915 14 152.604 14C151.357 14 150.268 14.2114 149.338 14.6342C148.407 15.0571 147.688 15.6385 147.181 16.3784C146.674 17.0972 146.42 17.9535 146.42 18.9472C146.42 19.8774 146.6 20.6491 146.959 21.2622C147.318 21.8541 147.784 22.3193 148.354 22.6575C148.925 22.9958 149.528 23.2601 150.162 23.4503C150.796 23.6406 151.399 23.8203 151.97 23.9895C152.54 24.1375 153.006 24.3172 153.365 24.5286C153.746 24.7189 153.936 25.0043 153.936 25.3848C153.936 25.6808 153.777 25.9133 153.46 26.0825C153.164 26.2516 152.731 26.3362 152.16 26.3362C151.335 26.3362 150.574 26.1882 149.877 25.8922C149.179 25.5751 148.576 25.1417 148.069 24.592L145.31 27.3827C145.839 27.9535 146.473 28.461 147.213 28.9049C147.974 29.3277 148.788 29.6554 149.655 29.888Z" fill="white"/>
<path d="M167.476 30.2064C166.06 30.2064 164.802 29.921 163.703 29.3502C162.624 28.7582 161.779 27.9548 161.166 26.94C160.552 25.9041 160.246 24.7202 160.246 23.3882V14.4453H165.098V23.3248C165.098 23.8533 165.182 24.3079 165.352 24.6884C165.542 25.069 165.817 25.365 166.176 25.5764C166.536 25.7878 166.969 25.8935 167.476 25.8935C168.195 25.8935 168.766 25.6715 169.189 25.2275C169.612 24.7624 169.823 24.1282 169.823 23.3248V14.4453H174.675V23.3565C174.675 24.7096 174.369 25.9041 173.755 26.94C173.142 27.9548 172.297 28.7582 171.218 29.3502C170.14 29.921 168.893 30.2064 167.476 30.2064Z" fill="white"/>
<path d="M181.939 14.4442H177.087V29.8565H181.939V20.8501C181.939 20.3216 182.045 19.8776 182.256 19.5182C182.489 19.1588 182.796 18.8839 183.176 18.6937C183.557 18.4822 183.99 18.3765 184.476 18.3765C185.174 18.3765 185.755 18.5985 186.22 19.0425C186.707 19.4653 186.95 20.0679 186.95 20.8501V29.8565H191.802V20.8501C191.802 20.3216 191.908 19.8776 192.119 19.5182C192.352 19.1588 192.658 18.8839 193.039 18.6937C193.419 18.4822 193.853 18.3765 194.339 18.3765C195.037 18.3765 195.618 18.5985 196.083 19.0425C196.569 19.4653 196.812 20.0679 196.812 20.8501V29.8565H201.665V20.311C201.665 19.0214 201.39 17.922 200.84 17.0129C200.311 16.0826 199.582 15.3744 198.652 14.8882C197.743 14.3807 196.696 14.127 195.512 14.127C194.307 14.127 193.218 14.3913 192.246 14.9199C191.614 15.2566 191.062 15.6912 190.589 16.2236C190.148 15.6667 189.612 15.211 188.979 14.8564C188.134 14.3702 187.172 14.127 186.094 14.127C184.952 14.127 183.927 14.3702 183.018 14.8564C182.622 15.0587 182.263 15.301 181.939 15.5833V14.4442Z" fill="white"/>
</svg>
