<svg width="168" height="40" viewBox="0 0 168 40" fill="none" xmlns="http://www.w3.org/2000/svg">
<path d="M49.2715 28.492H61.2235V24.892H53.5195V11.332H49.2715V28.492Z" fill="white"/>
<path d="M68.3049 26.0922C66.6009 26.0922 65.7129 24.6042 65.7129 22.3722C65.7129 20.1402 66.6009 18.6282 68.3049 18.6282C70.0089 18.6282 70.9209 20.1402 70.9209 22.3722C70.9209 24.6042 70.0089 26.0922 68.3049 26.0922ZM68.3289 28.8762C72.2889 28.8762 74.8809 26.0682 74.8809 22.3722C74.8809 18.6762 72.2889 15.8682 68.3289 15.8682C64.3929 15.8682 61.7529 18.6762 61.7529 22.3722C61.7529 26.0682 64.3929 28.8762 68.3289 28.8762Z" fill="white"/>
<path d="M81.7347 32.7397C83.5587 32.7397 85.1667 32.3317 86.2467 31.3717C87.2307 30.4837 87.8787 29.1397 87.8787 27.2917V16.2038H84.1347V17.5238H84.0867C83.3667 16.4918 82.2627 15.8438 80.6307 15.8438C77.5827 15.8438 75.4707 18.3878 75.4707 21.9878C75.4707 25.7558 78.0387 27.8197 80.7987 27.8197C82.2867 27.8197 83.2227 27.2198 83.9427 26.4038H84.0387V27.6278C84.0387 29.1158 83.3427 29.9798 81.6867 29.9798C80.3907 29.9798 79.7427 29.4278 79.5267 28.7798H75.7347C76.1187 31.3478 78.3507 32.7397 81.7347 32.7397ZM81.7107 24.9158C80.2467 24.9158 79.2867 23.7158 79.2867 21.8678C79.2867 19.9958 80.2467 18.7958 81.7107 18.7958C83.3427 18.7958 84.2067 20.1877 84.2067 21.8438C84.2067 23.5718 83.4147 24.9158 81.7107 24.9158Z" fill="white"/>
<path d="M95.5774 26.0922C93.8734 26.0922 92.9854 24.6042 92.9854 22.3722C92.9854 20.1402 93.8734 18.6282 95.5774 18.6282C97.2814 18.6282 98.1934 20.1402 98.1934 22.3722C98.1934 24.6042 97.2814 26.0922 95.5774 26.0922ZM95.6014 28.8762C99.5614 28.8762 102.154 26.0682 102.154 22.3722C102.154 18.6762 99.5614 15.8682 95.6014 15.8682C91.6654 15.8682 89.0254 18.6762 89.0254 22.3722C89.0254 26.0682 91.6654 28.8762 95.6014 28.8762Z" fill="white"/>
<path d="M103.296 28.492H107.208V16.204H103.296V28.492ZM103.296 14.5H107.208V11.332H103.296V14.5Z" fill="white"/>
<path d="M108.904 32.5478H112.816V27.2198H112.864C113.632 28.2518 114.76 28.8758 116.344 28.8758C119.56 28.8758 121.696 26.3317 121.696 22.3477C121.696 18.6517 119.704 15.8438 116.44 15.8438C114.76 15.8438 113.56 16.5878 112.72 17.6918H112.648V16.2038H108.904V32.5478ZM115.336 25.8518C113.656 25.8518 112.696 24.4838 112.696 22.4918C112.696 20.4998 113.56 18.9878 115.264 18.9878C116.944 18.9878 117.736 20.3798 117.736 22.4918C117.736 24.5798 116.824 25.8518 115.336 25.8518Z" fill="white"/>
<path d="M128.067 28.8758C131.283 28.8758 133.659 27.4838 133.659 24.7958C133.659 21.6518 131.115 21.0998 128.955 20.7397C127.395 20.4517 126.003 20.3318 126.003 19.4678C126.003 18.6998 126.747 18.3398 127.707 18.3398C128.787 18.3398 129.531 18.6758 129.675 19.7798H133.275C133.083 17.3558 131.211 15.8438 127.731 15.8438C124.827 15.8438 122.427 17.1878 122.427 19.7798C122.427 22.6598 124.707 23.2358 126.843 23.5958C128.475 23.8838 129.963 24.0037 129.963 25.1077C129.963 25.8997 129.219 26.3318 128.043 26.3318C126.747 26.3318 125.931 25.7318 125.787 24.5078H122.091C122.211 27.2198 124.467 28.8758 128.067 28.8758Z" fill="white"/>
<path d="M138.971 28.8521C140.675 28.8521 141.755 28.1801 142.643 26.9801H142.715V28.4921H146.459V16.2041H142.547V23.0681C142.547 24.5321 141.731 25.5401 140.387 25.5401C139.139 25.5401 138.539 24.7961 138.539 23.4521V16.2041H134.651V24.2681C134.651 27.0041 136.139 28.8521 138.971 28.8521Z" fill="white"/>
<path d="M148.162 28.4918H152.074V21.6038C152.074 20.1398 152.794 19.1077 154.018 19.1077C155.194 19.1077 155.746 19.8758 155.746 21.1958V28.4918H159.658V21.6038C159.658 20.1398 160.354 19.1077 161.602 19.1077C162.778 19.1077 163.33 19.8758 163.33 21.1958V28.4918H167.242V20.4998C167.242 17.7398 165.85 15.8438 163.066 15.8438C161.482 15.8438 160.162 16.5157 159.202 18.0037H159.154C158.53 16.6837 157.306 15.8438 155.698 15.8438C153.922 15.8438 152.746 16.6838 151.978 17.9558H151.906V16.2038H148.162V28.4918Z" fill="white"/>
<path fill-rule="evenodd" clip-rule="evenodd" d="M9.29492 3.59005C7.86426 4.59041 6.57056 5.77316 5.44751 7.10458C10.0368 6.67851 15.8673 7.37423 22.6365 10.7589C29.8651 14.3731 35.6859 14.4953 39.7369 13.7139C39.3693 12.601 38.9065 11.5314 38.3584 10.5146C33.7211 11.0037 27.7761 10.3563 20.8477 6.89216C16.4481 4.69236 12.5699 3.78619 9.29492 3.59005ZM35.6495 6.65883C31.9874 2.56718 26.6655 -0.0078125 20.7421 -0.0078125C19.0026 -0.0078125 17.3148 0.214294 15.7058 0.631667C17.885 1.22627 20.2 2.09617 22.6365 3.31445C27.7091 5.85071 32.0885 6.66734 35.6495 6.65883ZM40.603 17.6203C35.709 18.5867 28.9509 18.3882 20.8477 14.3366C13.2721 10.5488 7.24262 10.5965 3.17609 11.5002C2.96619 11.5468 2.76123 11.5958 2.56122 11.6468C2.02881 12.8047 1.60382 14.0223 1.29889 15.2867C1.62457 15.1997 1.96112 15.117 2.30835 15.0398C7.24176 13.9435 14.2122 13.9911 22.6365 18.2033C30.2122 21.9911 36.2417 21.9434 40.3083 21.0397C40.4476 21.0088 40.5849 20.9768 40.7199 20.9438C40.7347 20.6285 40.7421 20.3112 40.7421 19.9922C40.7421 19.1897 40.6949 18.3982 40.603 17.6203ZM40.0669 25.1645C35.2204 26.0118 28.6591 25.6866 20.8477 21.781C13.2721 17.9932 7.24262 18.0409 3.17609 18.9446C2.27344 19.1451 1.46143 19.3894 0.745118 19.6473C0.743165 19.762 0.742188 19.877 0.742188 19.9922C0.742188 31.0379 9.69648 39.9922 20.7421 39.9922C29.9992 39.9922 37.7874 33.7031 40.0669 25.1645Z" fill="white"/>
</svg>
