<svg width="168" height="40" viewBox="0 0 168 40" fill="none" xmlns="http://www.w3.org/2000/svg">
<path d="M49.625 28.0213H61.577V24.4213H53.873V10.8613H49.625V28.0213Z" fill="white"/>
<path d="M68.6584 25.6224C66.9544 25.6224 66.0664 24.1344 66.0664 21.9024C66.0664 19.6704 66.9544 18.1584 68.6584 18.1584C70.3624 18.1584 71.2744 19.6704 71.2744 21.9024C71.2744 24.1344 70.3624 25.6224 68.6584 25.6224ZM68.6824 28.4064C72.6424 28.4064 75.2344 25.5984 75.2344 21.9024C75.2344 18.2064 72.6424 15.3984 68.6824 15.3984C64.7464 15.3984 62.1064 18.2064 62.1064 21.9024C62.1064 25.5984 64.7464 28.4064 68.6824 28.4064Z" fill="white"/>
<path d="M82.0892 32.269C83.9132 32.269 85.5212 31.861 86.6012 30.901C87.5852 30.013 88.2332 28.669 88.2332 26.821V15.733H84.4892V17.053H84.4412C83.7212 16.021 82.6172 15.373 80.9852 15.373C77.9372 15.373 75.8252 17.917 75.8252 21.517C75.8252 25.285 78.3932 27.349 81.1532 27.349C82.6412 27.349 83.5772 26.749 84.2972 25.933H84.3932V27.157C84.3932 28.645 83.6972 29.509 82.0412 29.509C80.7452 29.509 80.0972 28.957 79.8812 28.309H76.0892C76.4732 30.877 78.7052 32.269 82.0892 32.269ZM82.0652 24.445C80.6012 24.445 79.6412 23.245 79.6412 21.397C79.6412 19.525 80.6012 18.325 82.0652 18.325C83.6972 18.325 84.5612 19.717 84.5612 21.373C84.5612 23.101 83.7692 24.445 82.0652 24.445Z" fill="white"/>
<path d="M95.9309 25.6224C94.2269 25.6224 93.3389 24.1344 93.3389 21.9024C93.3389 19.6704 94.2269 18.1584 95.9309 18.1584C97.6349 18.1584 98.5469 19.6704 98.5469 21.9024C98.5469 24.1344 97.6349 25.6224 95.9309 25.6224ZM95.9549 28.4064C99.9149 28.4064 102.506 25.5984 102.506 21.9024C102.506 18.2064 99.9149 15.3984 95.9549 15.3984C92.0189 15.3984 89.3789 18.2064 89.3789 21.9024C89.3789 25.5984 92.0189 28.4064 95.9549 28.4064Z" fill="white"/>
<path d="M103.649 28.0213H107.561V15.7333H103.649V28.0213ZM103.649 14.0293H107.561V10.8613H103.649V14.0293Z" fill="white"/>
<path d="M109.259 32.077H113.171V26.749H113.219C113.987 27.781 115.115 28.405 116.699 28.405C119.915 28.405 122.051 25.861 122.051 21.877C122.051 18.181 120.059 15.373 116.795 15.373C115.115 15.373 113.915 16.117 113.075 17.221H113.003V15.733H109.259V32.077ZM115.691 25.381C114.011 25.381 113.051 24.013 113.051 22.021C113.051 20.029 113.915 18.517 115.619 18.517C117.299 18.517 118.091 19.909 118.091 22.021C118.091 24.109 117.179 25.381 115.691 25.381Z" fill="white"/>
<path d="M128.419 28.405C131.635 28.405 134.011 27.013 134.011 24.325C134.011 21.181 131.467 20.629 129.307 20.269C127.747 19.981 126.355 19.861 126.355 18.997C126.355 18.229 127.099 17.869 128.059 17.869C129.139 17.869 129.883 18.205 130.027 19.309H133.627C133.435 16.885 131.563 15.373 128.083 15.373C125.179 15.373 122.779 16.717 122.779 19.309C122.779 22.189 125.059 22.765 127.195 23.125C128.827 23.413 130.315 23.533 130.315 24.637C130.315 25.429 129.571 25.861 128.395 25.861C127.099 25.861 126.283 25.261 126.139 24.037H122.443C122.563 26.749 124.819 28.405 128.419 28.405Z" fill="white"/>
<path d="M139.326 28.3824C141.03 28.3824 142.11 27.7104 142.998 26.5104H143.07V28.0224H146.814V15.7344H142.902V22.5984C142.902 24.0624 142.086 25.0704 140.742 25.0704C139.494 25.0704 138.894 24.3264 138.894 22.9824V15.7344H135.006V23.7984C135.006 26.5344 136.494 28.3824 139.326 28.3824Z" fill="white"/>
<path d="M148.516 28.021H152.428V21.133C152.428 19.669 153.148 18.637 154.372 18.637C155.548 18.637 156.1 19.405 156.1 20.725V28.021H160.012V21.133C160.012 19.669 160.708 18.637 161.956 18.637C163.132 18.637 163.684 19.405 163.684 20.725V28.021H167.596V20.029C167.596 17.269 166.204 15.373 163.42 15.373C161.836 15.373 160.516 16.045 159.556 17.533H159.508C158.884 16.213 157.66 15.373 156.052 15.373C154.276 15.373 153.1 16.213 152.332 17.485H152.26V15.733H148.516V28.021Z" fill="white"/>
<path d="M25.7576 1.04605L21.8246 -0.0078125L18.5102 12.3618L15.5179 1.19443L11.5848 2.24829L14.8178 14.3138L6.76512 6.26117L3.88593 9.14036L12.7187 17.9732L1.7189 15.0258L0.665039 18.9588L12.6837 22.1792C12.5461 21.5857 12.4733 20.9673 12.4733 20.3319C12.4733 15.8343 16.1193 12.1883 20.6169 12.1883C25.1145 12.1883 28.7605 15.8343 28.7605 20.3319C28.7605 20.9632 28.6886 21.5778 28.5527 22.1678L39.4754 25.0945L40.5292 21.1615L28.4628 17.9283L39.4633 14.9807L38.4094 11.0477L26.3435 14.2807L34.3961 6.22811L31.5169 3.34892L22.8067 12.0592L25.7576 1.04605Z" fill="white"/>
<path d="M28.5415 22.2139C28.2043 23.6395 27.4924 24.9202 26.5156 25.9463L34.4286 33.8594L37.3078 30.9802L28.5415 22.2139Z" fill="white"/>
<path d="M26.4358 26.0293C25.4472 27.039 24.1979 27.7925 22.7969 28.1808L25.6763 38.9268L29.6093 37.8729L26.4358 26.0293Z" fill="white"/>
<path d="M22.65 28.2196C22 28.3867 21.3187 28.4755 20.6166 28.4755C19.8644 28.4755 19.136 28.3735 18.4445 28.1826L15.5625 38.9384L19.4955 39.9922L22.65 28.2196Z" fill="white"/>
<path d="M18.3054 28.1433C16.9258 27.7357 15.6987 26.9726 14.7303 25.96L6.79785 33.8925L9.67704 36.7717L18.3054 28.1433Z" fill="white"/>
<path d="M14.6649 25.8893C13.7131 24.8703 13.0198 23.6067 12.6898 22.2031L1.73145 25.1394L2.7853 29.0724L14.6649 25.8893Z" fill="white"/>
</svg>
