<svg width="140" height="141" viewBox="0 0 140 141" fill="none" xmlns="http://www.w3.org/2000/svg">
<path d="M140 70.9861C140 109.646 108.66 140.986 70 140.986C31.3401 140.986 0 109.646 0 70.9861C0 32.3262 31.3401 0.986084 70 0.986084C108.66 0.986084 140 32.3262 140 70.9861ZM34.523 70.9861C34.523 90.5795 50.4066 106.463 70 106.463C89.5934 106.463 105.477 90.5795 105.477 70.9861C105.477 51.3927 89.5934 35.5091 70 35.5091C50.4066 35.5091 34.523 51.3927 34.523 70.9861Z" fill="#3797E4"/>
<circle cx="70.0012" cy="70.9861" r="35.5452" fill="white"/>
<path d="M69.3414 86.5657C69.2711 86.4866 69.1819 86.3942 69.0755 86.2916C69.0216 86.2411 68.9647 86.1865 68.9013 86.1327C68.8699 86.1054 68.8377 86.0774 68.804 86.0495C68.7698 86.0221 68.7348 85.9942 68.6991 85.9656C68.5543 85.8535 68.3907 85.7392 68.2083 85.6324C68.0259 85.5256 67.8249 85.4264 67.6117 85.3396C67.5588 85.3171 67.5037 85.2966 67.4488 85.2756C67.422 85.2659 67.395 85.2561 67.368 85.2463L67.3275 85.2317L67.2838 85.2171C67.1701 85.1773 67.0537 85.1455 66.936 85.1157C66.7007 85.0563 66.4595 85.015 66.2182 84.9812C65.9767 84.9495 65.7349 84.9263 65.4968 84.9125C65.4373 84.9094 65.378 84.905 65.319 84.9029C65.2601 84.9008 65.2014 84.8987 65.143 84.8966C65.0847 84.8953 65.0268 84.8939 64.9692 84.8926C64.9117 84.8912 64.8542 84.8918 64.7974 84.8914C64.5726 84.8908 64.3514 84.8951 64.143 84.9099C63.9345 84.9247 63.7385 84.9476 63.5588 84.9746C63.1992 85.0292 62.9053 85.1009 62.7022 85.1583C62.6514 85.1723 62.6062 85.1857 62.5671 85.1981C62.5278 85.2101 62.4946 85.2205 62.4679 85.2293C62.4143 85.2471 62.3857 85.2567 62.3857 85.2567C62.3857 85.2567 62.4157 85.2536 62.4719 85.2479C62.528 85.2413 62.6101 85.2337 62.7145 85.2235C62.8188 85.2135 62.9454 85.2022 63.0904 85.1918C63.2354 85.1813 63.3987 85.1716 63.5767 85.1654C63.7546 85.1591 63.9471 85.1562 64.1501 85.159C64.2517 85.1615 64.3555 85.1626 64.4622 85.1682C64.5157 85.1708 64.5696 85.1735 64.6241 85.1762C64.6793 85.1788 64.735 85.1815 64.7901 85.1851C64.901 85.192 65.0137 85.1991 65.1278 85.2062C65.2417 85.2152 65.3571 85.2243 65.4734 85.2335C65.7055 85.2542 65.9406 85.2778 66.1737 85.3103C66.4069 85.3412 66.6384 85.3803 66.8621 85.4294C66.9176 85.4427 66.9736 85.4543 67.0278 85.4694C67.0551 85.4764 67.0824 85.4833 67.1096 85.4902C67.1364 85.4979 67.1631 85.5056 67.1898 85.5132L67.2286 85.5245L67.2698 85.5374C67.2971 85.546 67.3244 85.5546 67.3516 85.5632C67.4038 85.5813 67.4561 85.5966 67.5077 85.6153C67.7145 85.6871 67.9101 85.7665 68.091 85.8533C68.2721 85.9396 68.4385 86.0325 68.5896 86.124C68.6273 86.1473 68.6641 86.1701 68.7001 86.1923C68.7355 86.2156 68.7701 86.2384 68.8038 86.2606C68.8724 86.3038 68.9339 86.3499 68.9938 86.3906C69.1117 86.4747 69.2136 86.5504 69.2961 86.6148C69.3798 86.678 69.4438 86.73 69.4879 86.7651C69.5325 86.7999 69.5562 86.8184 69.5562 86.8184C69.5562 86.8184 69.5371 86.7951 69.5014 86.7515C69.4646 86.7085 69.4134 86.6429 69.3414 86.5657Z" fill="#2C2C2C"/>
<path d="M83.5018 86.151L83.5018 86.1513C83.4895 86.3706 83.4798 86.5898 83.4689 86.809L83.4414 87.4667C83.4237 87.9051 83.4104 88.3435 83.3947 88.782C83.3874 89.0192 83.3806 89.2565 83.374 89.4938C83.4594 89.432 83.5445 89.3699 83.629 89.3069C83.624 89.1319 83.619 88.957 83.6136 88.782C83.5979 88.3435 83.5846 87.9051 83.5668 87.4667L83.5393 86.809C83.5285 86.5898 83.5188 86.3706 83.5065 86.1513L83.5107 86.1091L83.5018 86.151Z" fill="#2C2C2C"/>
<path d="M80.588 84.3977C80.588 84.1168 80.5306 83.8389 80.4193 83.5811L80.4173 83.5765C80.1049 82.854 79.7621 82.5779 79.7621 82.5779C80.4873 82.9405 80.8298 82.9808 80.8298 82.9808C79.2182 82.2757 78.3721 80.8858 78.7548 79.7576C79.1376 78.6295 79.7218 77.7834 80.3664 76.897C81.0111 76.0107 81.8571 75.9301 81.8571 75.9301C81.8571 76.3044 81.8064 76.677 81.7064 77.0377L81.1818 78.9289C81.1243 79.1361 81.156 79.3579 81.2693 79.5408L81.3081 79.6036C81.3401 79.6552 81.3779 79.7033 81.4223 79.7449C82.1475 80.4243 83.3273 80.4272 83.9005 80.3812C84.107 80.3646 84.2979 80.2654 84.4306 80.1062C84.5004 80.0225 84.5516 79.9249 84.5809 79.82L85.4027 76.8769C86.5106 78.5489 86.5711 81.2483 85.5034 82.4369C84.4916 83.5632 82.8289 83.5317 82.6575 83.5253C84.3391 83.6026 85.0602 83.1621 85.0602 83.1621C84.5608 84.1139 84.2239 85.139 84.06 86.1954V88.9804C86.9736 86.7011 89.3202 83.7301 90.851 80.3137L69.9972 58.7827L49.1523 80.3044C51.8353 86.2991 57.0274 90.9252 63.3928 92.8477C63.4045 92.096 63.4101 91.4125 63.4075 90.8264H67.1738C67.146 91.3326 67.091 92.3722 67.0361 93.6285C68.0075 93.7546 68.998 93.8199 70.0038 93.8199C73.8237 93.8199 77.4242 92.8811 80.5881 91.2228L80.588 84.3977ZM63.8553 70.9865H69.3492V76.3875H63.8553V70.9865ZM63.8553 77.2867H69.3492V82.6876H63.8553V77.2867ZM71.91 90.0733C71.1237 89.287 69.7394 87.7698 68.5877 87.4155C67.436 87.0611 67.1924 88.3014 67.1924 90.4941H63.405V89.2235C63.405 88.6472 63.1761 88.0946 62.7686 87.6872C62.5415 87.46 62.2676 87.2842 61.9645 87.1779C61.402 86.9805 60.4823 86.8618 59.374 87.4819H57.4471C57.3247 87.1273 57.1923 86.6159 57.1739 85.9906C57.1512 85.2189 57.3117 84.5968 57.4471 84.2039C58.0155 84.2039 58.584 84.2039 59.1525 84.2039C59.1525 84.2039 59.7726 84.6469 60.3264 84.8241C60.7416 84.957 61.5431 84.903 62.2917 84.7369C63.022 84.5748 63.7676 84.4911 64.5156 84.5015C65.4307 84.5143 66.5788 84.5938 67.4139 84.8683C69.0307 85.3999 70.4925 86.463 72.9952 90.8927C72.9952 90.8928 72.6962 90.8596 71.91 90.0733ZM75.7421 82.6876H70.2483V77.2867H75.7421V82.6876ZM75.7421 76.3875H70.2483V70.9865H75.7421V76.3875Z" fill="#2C2C2C"/>
<path d="M79.2765 79.9353C79.2765 79.9353 79.2692 79.9466 79.2565 79.9687C79.2503 79.9799 79.2419 79.9935 79.2335 80.0101C79.2253 80.0268 79.2163 80.0462 79.2065 80.0684C79.1966 80.0906 79.1888 80.1159 79.1787 80.1437C79.169 80.1715 79.1624 80.2024 79.1534 80.2356C79.1403 80.3022 79.1275 80.3796 79.1271 80.4645C79.126 80.5493 79.1316 80.6423 79.1502 80.7381C79.1684 80.8339 79.1956 80.9339 79.2344 81.0327C79.254 81.0822 79.2746 81.1309 79.3005 81.1816C79.3129 81.2068 79.3258 81.233 79.3378 81.2544L79.3569 81.288L79.3664 81.3049L79.3712 81.3133L79.3783 81.3249C79.4354 81.4196 79.5008 81.511 79.5713 81.5974C79.5886 81.6193 79.6078 81.6395 79.6261 81.6604C79.6448 81.681 79.6626 81.7024 79.6821 81.7221C79.7203 81.7621 79.7593 81.801 79.7998 81.8375C79.8199 81.8558 79.8394 81.8748 79.8599 81.8922C79.8806 81.9093 79.9013 81.9264 79.9219 81.9433C79.9623 81.9779 80.0052 82.0083 80.0465 82.039C80.0888 82.0684 80.1303 82.0973 80.172 82.1238C80.2146 82.149 80.2549 82.1755 80.2962 82.1978C80.3378 82.2197 80.3771 82.2426 80.417 82.2615C80.457 82.2801 80.4948 82.2992 80.5323 82.3153C80.5701 82.3308 80.6058 82.346 80.6404 82.3595C80.6752 82.3722 80.7082 82.3842 80.7395 82.3947C80.7706 82.4054 80.8003 82.4147 80.828 82.4222C80.8556 82.4301 80.8808 82.4373 80.9037 82.4432C80.9493 82.4546 80.9861 82.4608 81.0108 82.4663C81.0356 82.4713 81.0491 82.4733 81.0491 82.4733C81.0491 82.4733 81.0387 82.4645 81.0187 82.449C80.9985 82.4338 80.9692 82.4106 80.9315 82.3829C80.8949 82.3534 80.8496 82.3215 80.7991 82.2817C80.774 82.2617 80.7466 82.242 80.7185 82.2199C80.6907 82.1973 80.661 82.1748 80.6305 82.1507C80.5698 82.1021 80.5048 82.0494 80.4377 81.9928C80.4045 81.9642 80.3704 81.9348 80.3355 81.9048C80.3016 81.8742 80.267 81.8429 80.2317 81.811C80.2146 81.7947 80.1976 81.7779 80.18 81.7617C80.1622 81.7457 80.1447 81.729 80.1278 81.7117C80.0933 81.6776 80.0587 81.6431 80.0248 81.6076C79.9566 81.5367 79.8902 81.4627 79.8275 81.3862L79.7806 81.3288C79.7648 81.3098 79.7509 81.2896 79.7359 81.2701C79.706 81.2311 79.6783 81.1911 79.6501 81.1517L79.6475 81.148L79.6462 81.1461C79.6468 81.1471 79.644 81.1426 79.6473 81.1481L79.6467 81.1471L79.6414 81.1389L79.631 81.1226L79.6101 81.0902C79.5948 81.0681 79.5837 81.0492 79.5717 81.0298C79.5474 80.9921 79.5255 80.9499 79.5026 80.9105C79.4591 80.8299 79.4223 80.7495 79.3914 80.6713C79.3596 80.5933 79.337 80.5168 79.3188 80.4449C79.3144 80.4268 79.3101 80.409 79.306 80.3917C79.3028 80.3742 79.2999 80.3571 79.2964 80.3402C79.289 80.3065 79.2871 80.2743 79.2817 80.2435C79.2792 80.213 79.2761 80.1838 79.2746 80.1568C79.2738 80.1298 79.2722 80.1046 79.2721 80.0817C79.2725 80.059 79.2727 80.0384 79.2725 80.0202C79.2728 80.0022 79.2743 79.9869 79.275 79.9744C79.2763 79.9492 79.2765 79.9353 79.2765 79.9353Z" fill="#2C2C2C"/>
<path d="M70.0013 48.1521C57.3908 48.1521 47.168 58.375 47.168 70.9855C47.168 73.3403 47.5246 75.6117 48.1865 77.749L69.9947 55.2325L83.1203 68.7847L83.3646 69.0369C83.4294 68.4263 83.5528 67.9023 83.5962 67.5443C83.7133 66.5777 83.3472 65.8306 82.9517 65.2448C82.6745 64.8341 82.2533 64.4953 82.0262 64.3295C81.9268 64.2569 81.8678 64.1413 81.8678 64.0182V64.0164V63.7227C81.8678 63.7023 81.8607 63.6835 81.8487 63.6687H86.6398C86.6279 63.6835 86.6207 63.7022 86.6207 63.7227V64.0164C86.6207 64.1405 86.5608 64.2569 86.4601 64.3294C86.2295 64.4951 85.8017 64.8339 85.52 65.2447C85.1184 65.8306 84.7466 66.5776 84.8656 67.5443C84.9479 68.2131 85.3139 69.4616 85.0447 70.7715L86.9425 72.731L89.2311 75.0939L91.8129 77.7597C92.477 75.6193 92.8347 73.3442 92.8347 70.9855C92.8347 58.375 82.6119 48.1521 70.0013 48.1521ZM86.7922 63.5512C86.7922 63.5517 86.7921 63.5521 86.7921 63.5526H81.6964C81.6964 63.5521 81.6964 63.5517 81.6964 63.5512V61.484H86.7922V63.5512ZM86.8012 61.3679H81.6874L81.4691 58.5402L81.6317 58.6099L81.7944 58.5402L81.9454 58.5983L82.1545 58.5402L82.3287 58.6099L82.5146 58.5402L82.6656 58.6332L82.8863 58.5402L83.107 58.6332L83.3393 58.5402L83.5949 58.6564L83.7924 58.5402L84.0131 58.668L84.2443 58.5402L84.4755 58.668L84.6962 58.5402L84.8937 58.6564L85.1492 58.5402L85.3815 58.6332L85.6022 58.5402L85.8229 58.6332L85.9739 58.5402L86.1598 58.6099L86.334 58.5402L86.5431 58.5983L86.6941 58.5402L86.8567 58.6099L87.0193 58.5402L86.8012 61.3679Z" fill="#3797E4"/>
<path d="M74.5634 16.2699C73.7913 16.2087 73.1093 15.9923 72.5172 15.6205C71.9327 15.2422 71.4881 14.7479 71.1833 14.1376C70.8785 13.5272 70.7553 12.8536 70.8136 12.1166C70.872 11.3797 71.0997 10.7338 71.4968 10.1791C71.8939 9.6243 72.4105 9.20968 73.0467 8.93518C73.6905 8.65423 74.3984 8.54432 75.1705 8.60548C75.8443 8.65885 76.4419 8.82625 76.9635 9.1077C77.485 9.38914 77.907 9.76863 78.2293 10.2462L76.8077 11.3413C76.3761 10.728 75.8198 10.3943 75.139 10.3404C74.7389 10.3087 74.374 10.3681 74.0443 10.5186C73.7216 10.6696 73.4597 10.8995 73.2587 11.2085C73.0652 11.511 72.9521 11.8693 72.9193 12.2834C72.8865 12.6975 72.9415 13.0727 73.0844 13.4089C73.2348 13.7386 73.4575 14.0034 73.7524 14.2034C74.0544 14.4039 74.4054 14.5199 74.8054 14.5516C75.4863 14.6056 76.0881 14.3637 76.6109 13.8259L77.8424 15.1312C77.4489 15.552 76.9724 15.8604 76.4131 16.0562C75.8538 16.252 75.2372 16.3233 74.5634 16.2699Z" fill="white"/>
<path d="M82.2131 17.3952C81.6159 17.2591 81.1052 17.0128 80.6809 16.6561C80.2567 16.2995 79.9573 15.8703 79.7828 15.3684C79.6152 14.868 79.5947 14.3398 79.7214 13.7838C79.8466 13.2346 80.093 12.7708 80.4608 12.3925C80.8355 12.0157 81.2871 11.7611 81.8155 11.6288C82.3523 11.4911 82.9228 11.4911 83.5269 11.6288C84.131 11.7664 84.6452 12.0135 85.0694 12.3701C85.4952 12.7199 85.7919 13.1449 85.9595 13.6453C86.1287 14.1388 86.15 14.6635 86.0233 15.2196C85.8966 15.7756 85.6493 16.2428 85.2815 16.6212C84.9137 16.9995 84.4614 17.2575 83.9245 17.3952C83.3877 17.5328 82.8172 17.5328 82.2131 17.3952ZM82.5674 15.8403C82.9106 15.9185 83.2187 15.8659 83.4915 15.6826C83.7659 15.4924 83.9508 15.1879 84.0462 14.7691C84.1401 14.3572 84.1037 14.0096 83.9372 13.7261C83.7708 13.4427 83.5159 13.2618 83.1726 13.1836C82.8294 13.1054 82.5214 13.158 82.2485 13.3414C81.9757 13.5247 81.7923 13.8223 81.6985 14.2342C81.6031 14.653 81.6378 15.0075 81.8028 15.2978C81.9693 15.5813 82.2241 15.7621 82.5674 15.8403Z" fill="white"/>
<path d="M92.0645 14.2395C92.7308 14.4879 93.1914 14.885 93.4463 15.4308C93.7077 15.9791 93.6897 16.6524 93.3921 17.4507L92.2485 20.5184L90.3683 19.8175L91.3976 17.0565C91.6705 16.3243 91.5135 15.8487 90.9263 15.6298C90.603 15.5093 90.3031 15.5177 90.0265 15.655C89.7565 15.7948 89.5428 16.0758 89.3854 16.498L88.4189 19.0907L86.5387 18.3898L88.5381 13.0263L90.3292 13.694L90.1116 14.2779C90.4038 14.1389 90.716 14.0674 91.0481 14.0634C91.3826 14.0529 91.7214 14.1116 92.0645 14.2395Z" fill="white"/>
<path d="M96.828 22.5828C96.6297 22.6019 96.4077 22.5817 96.162 22.5221C95.9226 22.4657 95.6801 22.3763 95.4344 22.2537C94.7665 21.9207 94.3346 21.5008 94.1389 20.9941C93.9431 20.4874 94.007 19.9095 94.3306 19.2605L95.1883 17.5404L94.4417 17.1681L95.1109 15.826L95.8575 16.1983L96.522 14.8657L98.3178 15.7611L97.6533 17.0937L98.8252 17.6781L98.156 19.0202L96.9841 18.4358L96.1358 20.137C96.0447 20.3198 96.0197 20.4882 96.0608 20.6425C96.1113 20.7936 96.2185 20.9099 96.3823 20.9916C96.5902 21.0953 96.7997 21.1329 97.0106 21.1043L96.828 22.5828Z" fill="white"/>
<path d="M102.318 19.4034C103.12 19.9123 103.616 20.4848 103.805 21.1212C103.997 21.7515 103.854 22.4443 103.375 23.1996L101.673 25.8845L100.094 24.8838L100.49 24.2594C99.9485 24.5747 99.3239 24.508 98.6162 24.0595C98.2416 23.822 97.9589 23.5512 97.7683 23.247C97.5777 22.9428 97.4807 22.6354 97.4774 22.3249C97.4839 22.0122 97.5776 21.7132 97.7585 21.4277C98.0487 20.9698 98.4484 20.7272 98.9576 20.6998C99.4705 20.6665 100.093 20.8816 100.824 21.3452L101.788 21.9559C102.082 21.4256 101.902 20.9532 101.248 20.5385C101.016 20.3915 100.757 20.2813 100.47 20.2078C100.187 20.1284 99.9204 20.1014 99.671 20.1267L99.8294 18.6141C100.21 18.6053 100.621 18.674 101.062 18.8201C101.512 18.964 101.931 19.1584 102.318 19.4034ZM99.7674 23.2887C99.9637 23.4131 100.166 23.4748 100.375 23.4739C100.584 23.473 100.78 23.4011 100.962 23.2582L101.228 22.839L100.496 22.3753C100.003 22.0625 99.6524 22.0696 99.4451 22.3967C99.3508 22.5454 99.3319 22.7001 99.3884 22.8609C99.4448 23.0217 99.5712 23.1643 99.7674 23.2887Z" fill="white"/>
<path d="M105.103 28.7107C104.614 28.3072 104.258 27.8485 104.034 27.3347C103.81 26.821 103.733 26.3007 103.803 25.7739C103.878 25.2516 104.097 24.7707 104.46 24.331C104.824 23.8913 105.252 23.5879 105.746 23.4208C106.251 23.2528 106.774 23.233 107.316 23.3614C107.863 23.4843 108.381 23.7476 108.869 24.1511C109.369 24.5637 109.71 25.0287 109.895 25.5463C110.083 26.0584 110.097 26.5672 109.935 27.0727L108.234 26.6947C108.36 26.1325 108.231 25.6922 107.845 25.3739C107.569 25.1452 107.262 25.0469 106.925 25.079C106.593 25.1156 106.293 25.2967 106.024 25.6224C105.75 25.9535 105.624 26.288 105.647 26.626C105.679 26.963 105.833 27.2459 106.11 27.4746C106.495 27.7929 106.952 27.8369 107.48 27.6066L108.173 29.206C107.707 29.4604 107.202 29.546 106.659 29.4626C106.121 29.3739 105.602 29.1233 105.103 28.7107Z" fill="white"/>
<path d="M111.11 33.955C110.916 33.9088 110.713 33.8177 110.5 33.6818C110.292 33.5508 110.091 33.3876 109.898 33.192C109.374 32.6605 109.102 32.1233 109.081 31.5805C109.06 31.0376 109.308 30.5117 109.824 30.0026L111.193 28.6534L110.608 28.0592L111.676 27.0065L112.261 27.6007L113.322 26.5554L114.731 27.9845L113.67 29.0298L114.589 29.9625L113.521 31.0152L112.602 30.0825L111.248 31.4169C111.103 31.5603 111.024 31.7115 111.013 31.8708C111.012 32.0301 111.076 32.1749 111.204 32.3053C111.367 32.4708 111.553 32.5742 111.762 32.6155L111.11 33.955Z" fill="white"/>
<path d="M123.865 39.2145L117.715 43.3174L116.76 41.8854L118.225 36.9845L114.948 39.1708L113.811 37.4665L119.961 33.3635L120.916 34.7955L119.451 39.6964L122.727 37.5101L123.865 39.2145Z" fill="white"/>
<path d="M119.717 47.5602C119.455 47.0066 119.333 46.4528 119.351 45.8989C119.369 45.345 119.521 44.8444 119.808 44.3969C120.098 43.9559 120.5 43.6133 121.016 43.3692C121.525 43.1281 122.042 43.0352 122.567 43.0904C123.094 43.1521 123.574 43.3497 124.004 43.6832C124.444 44.0202 124.797 44.4686 125.062 45.0285C125.327 45.5885 125.451 46.1454 125.433 46.6993C125.421 47.2502 125.27 47.7462 124.981 48.1872C124.697 48.6252 124.298 48.9663 123.782 49.2104C123.267 49.4546 122.747 49.549 122.222 49.4937C121.697 49.4384 121.215 49.2424 120.775 48.9054C120.335 48.5685 119.982 48.1201 119.717 47.5602ZM121.158 46.8775C121.309 47.1957 121.541 47.4053 121.854 47.5065C122.173 47.6046 122.526 47.5617 122.915 47.3779C123.296 47.1971 123.547 46.9536 123.667 46.6475C123.787 46.3414 123.772 46.0293 123.621 45.7112C123.47 45.393 123.238 45.1834 122.926 45.0822C122.613 44.9811 122.266 45.0209 121.884 45.2017C121.496 45.3856 121.238 45.6321 121.112 45.9412C120.992 46.2472 121.008 46.5594 121.158 46.8775Z" fill="white"/>
<path d="M129.802 58.8376L123.734 58.517L123.18 56.6545L125.858 54.7333L122.553 54.5491L121.999 52.6867L126.903 49.1001L127.446 50.9221L124.46 53.0339L128.127 53.2097L128.615 54.8495L125.602 56.9804L129.299 57.1472L129.802 58.8376Z" fill="white"/>
<path d="M124.658 65.2714C124.626 64.935 124.711 64.6404 124.913 64.3875C125.115 64.1347 125.387 63.9918 125.731 63.9588C126.081 63.9252 126.376 64.01 126.615 64.2134C126.854 64.4238 126.99 64.7007 127.023 65.0441C127.057 65.3946 126.976 65.6923 126.78 65.9375C126.585 66.1826 126.311 66.322 125.961 66.3557C125.618 66.3887 125.323 66.3003 125.076 66.0906C124.83 65.8879 124.691 65.6148 124.658 65.2714Z" fill="white"/>
<path d="M124.665 76.0984C124.734 75.3269 124.957 74.6469 125.334 74.0583C125.718 73.4774 126.216 73.0373 126.829 72.7382C127.442 72.4391 128.117 72.3222 128.853 72.3874C129.59 72.4526 130.234 72.6863 130.785 73.0886C131.336 73.4908 131.745 74.0113 132.014 74.65C132.289 75.2963 132.392 76.0052 132.324 76.7767C132.264 77.45 132.091 78.046 131.805 78.5649C131.519 79.0838 131.135 79.5023 130.655 79.8202L129.573 78.3885C130.19 77.9625 130.529 77.4094 130.589 76.7291C130.625 76.3293 130.569 75.9639 130.421 75.6328C130.273 75.3087 130.046 75.0447 129.739 74.8407C129.438 74.6445 129.081 74.528 128.667 74.4914C128.253 74.4547 127.878 74.5063 127.54 74.646C127.209 74.7934 126.942 75.0136 126.739 75.3067C126.536 75.6067 126.417 75.9566 126.381 76.3564C126.321 77.0367 126.557 77.6407 127.09 78.1686L125.774 79.3878C125.356 78.9904 125.053 78.5111 124.862 77.95C124.671 77.3889 124.606 76.7717 124.665 76.0984Z" fill="white"/>
<path d="M123.468 83.7395C123.61 83.1436 123.861 82.6352 124.222 82.2144C124.582 81.7936 125.015 81.4983 125.518 81.3285C126.02 81.1657 126.548 81.1502 127.103 81.2821C127.651 81.4125 128.113 81.6633 128.487 82.0347C128.861 82.4129 129.111 82.8669 129.238 83.3965C129.371 83.9346 129.365 84.5051 129.222 85.1079C129.079 85.7106 128.827 86.2224 128.466 86.6433C128.112 87.0657 127.684 87.3584 127.183 87.5213C126.688 87.6858 126.163 87.7021 125.608 87.5701C125.053 87.4382 124.588 87.1865 124.213 86.8151C123.838 86.4437 123.585 85.989 123.452 85.4508C123.32 84.9127 123.325 84.3423 123.468 83.7395ZM125.02 84.1085C124.938 84.451 124.988 84.7595 125.169 85.0341C125.356 85.3103 125.659 85.498 126.077 85.5974C126.488 85.6952 126.836 85.6621 127.121 85.4983C127.406 85.3345 127.589 85.0814 127.671 84.7389C127.752 84.3964 127.702 84.0879 127.522 83.8133C127.341 83.5387 127.045 83.3526 126.634 83.2548C126.216 83.1555 125.861 83.1869 125.569 83.349C125.284 83.5129 125.101 83.766 125.02 84.1085Z" fill="white"/>
<path d="M126.533 93.6137C126.279 94.2777 125.877 94.7346 125.329 94.9843C124.778 95.2407 124.105 95.2163 123.31 94.9113L120.253 93.7391L120.971 91.8656L123.723 92.9205C124.452 93.2003 124.929 93.0477 125.154 92.4626C125.277 92.1405 125.272 91.8405 125.137 91.5626C125 91.2913 124.721 91.075 124.3 90.9136L121.716 89.923L122.435 88.0494L127.779 90.0988L127.095 91.8836L126.513 91.6605C126.65 91.9541 126.718 92.2669 126.719 92.599C126.726 92.9336 126.664 93.2719 126.533 93.6137Z" fill="white"/>
<path d="M118.145 98.3024C118.128 98.1039 118.15 97.8821 118.212 97.637C118.271 97.3982 118.363 97.1565 118.487 96.9119C118.827 96.2472 119.251 95.8193 119.759 95.6283C120.268 95.4373 120.845 95.5066 121.491 95.8363L123.203 96.7101L123.582 95.967L124.918 96.6487L124.539 97.3918L125.865 98.0688L124.953 99.8561L123.626 99.1791L123.031 100.346L121.695 99.6638L122.291 98.4973L120.597 97.6331C120.416 97.5403 120.247 97.5137 120.093 97.5534C119.941 97.6025 119.824 97.7086 119.741 97.8716C119.635 98.0786 119.595 98.2877 119.622 98.4988L118.145 98.3024Z" fill="white"/>
<path d="M121.273 103.818C120.757 104.616 120.18 105.106 119.542 105.289C118.91 105.476 118.218 105.326 117.468 104.84L114.799 103.114L115.814 101.544L116.435 101.946C116.124 101.401 116.197 100.777 116.652 100.074C116.893 99.7013 117.166 99.4212 117.472 99.2334C117.778 99.0456 118.086 98.9515 118.397 98.9511C118.71 98.9605 119.008 99.0569 119.292 99.2405C119.747 99.5349 119.986 99.9369 120.008 100.446C120.037 100.959 119.816 101.58 119.346 102.307L118.726 103.264C119.254 103.564 119.728 103.388 120.148 102.738C120.297 102.507 120.41 102.249 120.486 101.963C120.568 101.681 120.598 101.415 120.575 101.165L122.086 101.337C122.091 101.718 122.019 102.128 121.868 102.568C121.72 103.017 121.522 103.434 121.273 103.818ZM117.412 101.232C117.286 101.427 117.222 101.629 117.221 101.838C117.22 102.047 117.29 102.243 117.431 102.427L117.848 102.697L118.319 101.969C118.636 101.479 118.632 101.128 118.307 100.918C118.159 100.822 118.005 100.802 117.843 100.857C117.682 100.912 117.538 101.037 117.412 101.232Z" fill="white"/>
<path d="M111.942 106.518C112.35 106.033 112.812 105.681 113.328 105.462C113.844 105.243 114.365 105.171 114.891 105.246C115.413 105.326 115.892 105.549 116.328 105.917C116.764 106.284 117.064 106.715 117.226 107.211C117.389 107.717 117.404 108.24 117.271 108.781C117.143 109.327 116.875 109.842 116.467 110.327C116.05 110.822 115.581 111.16 115.062 111.339C114.548 111.524 114.039 111.532 113.535 111.366L113.929 109.668C114.49 109.8 114.932 109.674 115.254 109.292C115.485 109.017 115.586 108.711 115.557 108.374C115.524 108.042 115.345 107.74 115.022 107.468C114.693 107.191 114.36 107.063 114.022 107.082C113.685 107.111 113.4 107.262 113.169 107.537C112.847 107.92 112.799 108.376 113.024 108.906L111.419 109.584C111.169 109.116 111.088 108.61 111.176 108.068C111.27 107.53 111.525 107.014 111.942 106.518Z" fill="white"/>
<path d="M106.641 112.478C106.689 112.284 106.782 112.082 106.92 111.87C107.052 111.663 107.218 111.464 107.415 111.273C107.951 110.754 108.491 110.487 109.034 110.471C109.577 110.455 110.101 110.707 110.605 111.229L111.941 112.61L112.541 112.03L113.584 113.108L112.984 113.688L114.02 114.758L112.577 116.153L111.542 115.083L110.601 115.994L109.558 114.916L110.499 114.005L109.177 112.639C109.035 112.492 108.885 112.413 108.726 112.4C108.566 112.397 108.421 112.46 108.289 112.587C108.122 112.748 108.017 112.933 107.974 113.142L106.641 112.478Z" fill="white"/>
<path d="M101.266 125.18L97.2207 118.993L98.6615 118.051L103.549 119.562L101.393 116.265L103.108 115.143L107.153 121.331L105.713 122.273L100.825 120.762L102.981 124.059L101.266 125.18Z" fill="white"/>
<path d="M92.9554 120.958C93.5114 120.701 94.0663 120.584 94.62 120.607C95.1737 120.631 95.6729 120.788 96.1176 121.079C96.5559 121.372 96.8947 121.778 97.1339 122.296C97.3702 122.807 97.4583 123.325 97.3981 123.849C97.3315 124.376 97.1294 124.854 96.7918 125.281C96.4508 125.718 95.999 126.066 95.4366 126.326C94.8742 126.586 94.3161 126.705 93.7624 126.681C93.2117 126.664 92.7171 126.509 92.2788 126.215C91.8435 125.928 91.5062 125.525 91.2669 125.007C91.0277 124.49 90.9381 123.969 90.9983 123.445C91.0585 122.92 91.2592 122.44 91.6002 122.003C91.9412 121.566 92.3929 121.218 92.9554 120.958ZM93.6244 122.405C93.3049 122.553 93.093 122.783 92.989 123.095C92.8878 123.413 92.9274 123.767 93.1075 124.157C93.2848 124.54 93.5259 124.793 93.8308 124.916C94.1358 125.039 94.448 125.026 94.7676 124.879C95.0871 124.731 95.2989 124.501 95.403 124.189C95.5071 123.878 95.4705 123.53 95.2933 123.147C95.1131 122.757 94.8691 122.497 94.5612 122.368C94.2562 122.245 93.944 122.258 93.6244 122.405Z" fill="white"/>
<path d="M81.5823 130.934L81.96 124.87L83.8276 124.333L85.7236 127.03L85.9389 123.726L87.8065 123.189L91.3467 128.128L89.5197 128.653L87.4361 125.647L87.2258 129.312L85.5815 129.785L83.479 126.752L83.2774 130.447L81.5823 130.934Z" fill="white"/>
<path d="M75.1988 125.732C75.5355 125.703 75.8293 125.79 76.0802 125.995C76.3312 126.199 76.4715 126.473 76.5013 126.817C76.5318 127.167 76.4442 127.461 76.2385 127.698C76.0259 127.936 75.7478 128.069 75.4041 128.099C75.0533 128.13 74.7563 128.046 74.513 127.848C74.2697 127.65 74.1328 127.375 74.1024 127.025C74.0726 126.681 74.1637 126.387 74.3758 126.142C74.5807 125.898 74.8551 125.762 75.1988 125.732Z" fill="white"/>
<path d="M64.3717 125.64C65.1425 125.715 65.8205 125.944 66.4055 126.327C66.9829 126.716 67.4183 127.218 67.7117 127.834C68.005 128.45 68.1157 129.126 68.0437 129.862C67.9716 130.598 67.7319 131.239 67.3246 131.786C66.9173 132.334 66.393 132.739 65.7518 133.001C65.1029 133.27 64.3931 133.367 63.6223 133.291C62.9496 133.226 62.3552 133.047 61.839 132.756C61.3227 132.465 60.9079 132.078 60.5945 131.594L62.0362 130.526C62.4564 131.147 63.0063 131.491 63.686 131.557C64.0854 131.596 64.4514 131.544 64.7839 131.4C65.1093 131.255 65.3754 131.03 65.5822 130.724C65.7812 130.426 65.901 130.069 65.9415 129.656C65.982 129.243 65.9339 128.866 65.7973 128.528C65.653 128.195 65.4353 127.926 65.1442 127.721C64.846 127.515 64.4972 127.392 64.0978 127.353C63.4181 127.287 62.8119 127.517 62.2791 128.045L61.0721 126.717C61.4734 126.304 61.9555 126.004 62.5184 125.819C63.0813 125.633 63.6991 125.574 64.3717 125.64Z" fill="white"/>
<path d="M56.7381 124.37C57.3327 124.517 57.8386 124.773 58.256 125.137C58.6734 125.502 58.9646 125.937 59.1296 126.442C59.2877 126.945 59.2982 127.474 59.161 128.027C59.0255 128.574 58.7703 129.033 58.3953 129.405C58.0136 129.774 57.5573 130.02 57.0265 130.142C56.4871 130.27 55.9168 130.259 55.3154 130.11C54.714 129.961 54.2046 129.704 53.7872 129.34C53.3681 128.982 53.0795 128.551 52.9214 128.048C52.7616 127.551 52.7502 127.026 52.8874 126.473C53.0246 125.919 53.2807 125.457 53.6556 125.085C54.0305 124.714 54.4877 124.465 55.027 124.337C55.5664 124.21 56.1367 124.22 56.7381 124.37ZM56.3545 125.917C56.0128 125.833 55.7038 125.879 55.4275 126.058C55.1496 126.243 54.9589 126.544 54.8556 126.96C54.754 127.37 54.7837 127.719 54.9448 128.005C55.1059 128.292 55.3573 128.477 55.699 128.562C56.0407 128.647 56.3497 128.6 56.626 128.422C56.9022 128.244 57.0912 127.95 57.1928 127.54C57.2961 127.123 57.2681 126.768 57.1087 126.474C56.9476 126.188 56.6962 126.002 56.3545 125.917Z" fill="white"/>
<path d="M46.8442 127.345C46.1826 127.084 45.7295 126.678 45.4849 126.128C45.2337 125.574 45.2643 124.902 45.5767 124.109L46.7773 121.063L48.6441 121.799L47.5636 124.54C47.277 125.267 47.4252 125.746 48.0081 125.976C48.3291 126.102 48.6291 126.099 48.9083 125.967C49.1808 125.832 49.3997 125.556 49.565 125.136L50.5797 122.562L52.4465 123.298L50.3474 128.623L48.569 127.922L48.7975 127.343C48.5027 127.476 48.1892 127.542 47.8571 127.539C47.5224 127.544 47.1848 127.479 46.8442 127.345Z" fill="white"/>
<path d="M42.231 118.91C42.4296 118.894 42.6512 118.919 42.8957 118.983C43.134 119.044 43.3748 119.138 43.6182 119.265C44.2797 119.611 44.7036 120.038 44.8899 120.549C45.0761 121.059 45.0014 121.636 44.6657 122.278L43.7759 123.982L44.5154 124.368L43.8212 125.698L43.0816 125.311L42.3923 126.631L40.6137 125.702L41.303 124.383L40.1422 123.776L40.8364 122.447L41.9972 123.053L42.8773 121.368C42.9718 121.187 42.9999 121.019 42.9617 120.864C42.914 120.712 42.809 120.594 42.6468 120.509C42.4408 120.402 42.2321 120.36 42.0207 120.385L42.231 118.91Z" fill="white"/>
<path d="M36.6879 121.99C35.8946 121.466 35.4097 120.884 35.233 120.245C35.0524 119.611 35.2084 118.921 35.7011 118.175L37.4524 115.522L39.0124 116.552L38.6051 117.169C39.1525 116.863 39.7758 116.942 40.475 117.403C40.8452 117.648 41.1227 117.924 41.3077 118.231C41.4926 118.539 41.5838 118.848 41.5813 119.159C41.5691 119.471 41.4699 119.768 41.2837 120.05C40.985 120.503 40.5809 120.738 40.0713 120.756C39.5578 120.78 38.9397 120.553 38.217 120.076L37.2651 119.448C36.9609 119.972 37.132 120.448 37.7783 120.875C38.0075 121.026 38.2648 121.141 38.5502 121.22C38.8318 121.304 39.0975 121.336 39.3474 121.316L39.1609 122.825C38.7801 122.827 38.3707 122.751 37.9326 122.596C37.4847 122.444 37.0698 122.242 36.6879 121.99ZM39.3097 118.152C39.1157 118.024 38.9143 117.959 38.7054 117.956C38.4964 117.953 38.2995 118.021 38.1146 118.161L37.8411 118.575L38.5639 119.052C39.0516 119.374 39.4021 119.373 39.6154 119.05C39.7124 118.903 39.7341 118.749 39.6807 118.587C39.6272 118.425 39.5036 118.28 39.3097 118.152Z" fill="white"/>
<path d="M34.0743 112.63C34.5553 113.043 34.903 113.508 35.1174 114.026C35.3318 114.544 35.3992 115.065 35.3196 115.591C35.2346 116.112 35.0065 116.588 34.6352 117.021C34.2639 117.454 33.8296 117.75 33.3324 117.907C32.8253 118.066 32.3018 118.076 31.7619 117.938C31.2175 117.805 30.7048 117.532 30.2238 117.119C29.7322 116.698 29.399 116.226 29.2243 115.705C29.045 115.19 29.041 114.681 29.2123 114.179L30.9063 114.588C30.7694 115.148 30.8907 115.59 31.2701 115.916C31.5426 116.15 31.8477 116.254 32.1852 116.228C32.5174 116.197 32.8211 116.022 33.0961 115.701C33.3757 115.375 33.5076 115.043 33.4917 114.705C33.4658 114.367 33.3166 114.082 33.0441 113.848C32.6647 113.522 32.2088 113.47 31.6764 113.69L31.0137 112.078C31.4843 111.833 31.9902 111.756 32.5316 111.85C33.0684 111.948 33.5827 112.209 34.0743 112.63Z" fill="white"/>
<path d="M28.1636 107.276C28.3566 107.326 28.5583 107.421 28.7689 107.56C28.9746 107.695 29.172 107.862 29.3611 108.061C29.875 108.602 30.1374 109.145 30.1483 109.688C30.1592 110.231 29.9018 110.752 29.3759 111.251L27.9822 112.575L28.5568 113.18L27.4694 114.213L26.8948 113.608L25.8151 114.633L24.4333 113.178L25.513 112.153L24.6112 111.203L25.6986 110.171L26.6004 111.12L27.9788 109.811C28.1268 109.67 28.2079 109.521 28.2219 109.362C28.226 109.202 28.1651 109.056 28.039 108.924C27.879 108.755 27.695 108.648 27.487 108.603L28.1636 107.276Z" fill="white"/>
<path d="M15.5122 101.784L21.7368 97.7955L22.6655 99.245L21.1092 104.118L24.426 101.993L25.5313 103.718L19.3066 107.706L18.378 106.257L19.9343 101.384L16.6175 103.509L15.5122 101.784Z" fill="white"/>
<path d="M19.8105 93.5083C20.0623 94.0667 20.1739 94.6226 20.1454 95.1761C20.1169 95.7296 19.9551 96.2273 19.66 96.6692C19.3621 97.1047 18.9532 97.4397 18.4333 97.6741C17.9198 97.9055 17.4012 97.9887 16.8776 97.9236C16.351 97.852 15.8756 97.6454 15.4513 97.3038C15.0177 96.9587 14.6736 96.5037 14.4189 95.9389C14.1643 95.374 14.0512 94.8149 14.0798 94.2614C14.1019 93.7108 14.2619 93.2178 14.5598 92.7823C14.8513 92.3497 15.2571 92.0162 15.777 91.7818C16.2969 91.5474 16.8186 91.4628 17.3423 91.5279C17.8659 91.5931 18.3445 91.7982 18.7782 92.1433C19.2118 92.4885 19.5559 92.9434 19.8105 93.5083ZM18.3567 94.1637C18.2121 93.8427 17.9843 93.6288 17.6735 93.5218C17.3562 93.4176 17.0018 93.4538 16.6103 93.6303C16.2252 93.804 15.9698 94.0426 15.8442 94.3464C15.7185 94.6502 15.7281 94.9626 15.8727 95.2835C16.0174 95.6044 16.2452 95.8184 16.556 95.9254C16.8668 96.0324 17.2148 95.9991 17.5999 95.8255C17.9914 95.649 18.2532 95.4074 18.3853 95.1007C18.5109 94.797 18.5014 94.4846 18.3567 94.1637Z" fill="white"/>
<path d="M9.9418 82.0446L16.0024 82.4794L16.5216 84.352L13.8071 86.2225L17.1085 86.4689L17.6276 88.3414L12.6562 91.835L12.1483 90.0031L15.1732 87.9479L11.5106 87.7031L11.0535 86.0544L14.1061 83.9806L10.413 83.7442L9.9418 82.0446Z" fill="white"/>
<path d="M15.2031 75.7089C15.2291 76.0459 15.1388 76.3389 14.9321 76.5879C14.7254 76.8369 14.45 76.9747 14.1061 77.0013C13.7551 77.0285 13.4621 76.9381 13.2271 76.7303C12.9916 76.5155 12.8605 76.2361 12.8339 75.8922C12.8068 75.5412 12.8933 75.245 13.0936 75.0035C13.2938 74.762 13.5694 74.6277 13.9204 74.6006C14.2644 74.574 14.5576 74.6678 14.8002 74.8821C15.0422 75.0893 15.1765 75.365 15.2031 75.7089Z" fill="white"/>
<path d="M15.3948 64.8861C15.3122 65.6561 15.0768 66.3319 14.6886 66.9134C14.2942 67.4871 13.7878 67.9178 13.1691 68.2055C12.5505 68.4931 11.8737 68.5975 11.1387 68.5186C10.4036 68.4397 9.76435 68.1941 9.22088 67.7817C8.67741 67.3693 8.27734 66.8413 8.02069 66.1977C7.75778 65.5464 7.66765 64.8357 7.75029 64.0656C7.82242 63.3936 8.00642 62.8008 8.30229 62.2873C8.59815 61.7738 8.98926 61.3626 9.47561 61.0537L10.5307 62.5052C9.90556 62.9197 9.55656 63.4664 9.48368 64.1454C9.44086 64.5445 9.49004 64.9109 9.63125 65.2447C9.7732 65.5715 9.9958 65.8397 10.299 66.0493C10.596 66.2511 10.951 66.3742 11.3641 66.4185C11.7771 66.4628 12.1536 66.4182 12.4937 66.2848C12.8275 66.1436 13.0984 65.9284 13.3065 65.6391C13.5153 65.3429 13.6411 64.9953 13.684 64.5962C13.7568 63.9172 13.5318 63.3088 13.0089 62.7712L14.3479 61.5766C14.7577 61.9817 15.0526 62.4665 15.2328 63.0311C15.4129 63.5957 15.4669 64.214 15.3948 64.8861Z" fill="white"/>
<path d="M16.7379 57.2615C16.585 57.8546 16.3242 58.3581 15.9557 58.7721C15.5872 59.186 15.1496 59.473 14.643 59.6332C14.1381 59.7866 13.6095 59.7921 13.0573 59.6496C12.5119 59.509 12.0553 59.2494 11.6875 58.871C11.3215 58.4858 11.0799 58.0272 10.9626 57.4953C10.8402 56.9547 10.8564 56.3845 11.0111 55.7845C11.1659 55.1846 11.4275 54.6776 11.796 54.2637C12.1577 53.848 12.591 53.5635 13.0959 53.4101C13.5939 53.255 14.1191 53.2487 14.6713 53.3911C15.2236 53.5335 15.6835 53.7939 16.0513 54.1723C16.4191 54.5507 16.6641 55.0102 16.7865 55.5507C16.9088 56.0913 16.8926 56.6615 16.7379 57.2615ZM15.1937 56.8632C15.2816 56.5223 15.2378 56.2129 15.0623 55.935C14.8799 55.6553 14.5808 55.4618 14.165 55.3545C13.7559 55.2491 13.4073 55.2755 13.1193 55.4339C12.8312 55.5923 12.6432 55.8419 12.5553 56.1828C12.4674 56.5237 12.5112 56.8331 12.6868 57.111C12.8623 57.389 13.1546 57.5807 13.5636 57.6862C13.9795 57.7934 14.3349 57.7687 14.6298 57.6121C14.9178 57.4537 15.1058 57.2041 15.1937 56.8632Z" fill="white"/>
<path d="M13.8525 47.3466C14.1194 46.6875 14.5293 46.2382 15.082 45.9986C15.6374 45.7526 16.31 45.7895 17.0996 46.1093L20.1341 47.3382L19.3809 49.198L16.6498 48.092C15.9255 47.7987 15.4457 47.9424 15.2105 48.5232C15.081 48.843 15.081 49.143 15.2105 49.4234C15.3427 49.6972 15.6176 49.9187 16.0353 50.0878L18.5999 51.1264L17.8467 52.9863L12.5412 50.8377L13.2587 49.0659L13.8363 49.2998C13.7055 49.0038 13.6428 48.6897 13.6481 48.3576C13.647 48.0229 13.7151 47.6859 13.8525 47.3466Z" fill="white"/>
<path d="M22.3326 42.8076C22.3461 43.0064 22.3197 43.2278 22.2532 43.4717C22.1901 43.7093 22.0939 43.9493 21.9645 44.1915C21.6128 44.8497 21.181 45.2696 20.6689 45.4511C20.1569 45.6325 19.5811 45.5524 18.9414 45.2107L17.2461 44.305L16.853 45.0409L15.5302 44.3342L15.9234 43.5983L14.6099 42.8967L15.5554 41.1268L16.8689 41.8285L17.4859 40.6734L18.8087 41.3801L18.1916 42.5351L19.8683 43.4309C20.0484 43.5271 20.2161 43.5568 20.3715 43.5201C20.5239 43.4738 20.6433 43.3699 20.7295 43.2084C20.839 43.0035 20.8824 42.7952 20.8598 42.5836L22.3326 42.8076Z" fill="white"/>
<path d="M19.3036 37.2395C19.8345 36.4511 20.4207 35.9715 21.062 35.8008C21.6975 35.6261 22.386 35.7885 23.1276 36.288L25.7642 38.0639L24.72 39.6143L24.1068 39.2013C24.4069 39.7514 24.3229 40.374 23.8548 41.0689C23.6071 41.4368 23.3285 41.7118 23.0191 41.8939C22.7097 42.076 22.3997 42.1643 22.0893 42.1589C21.7769 42.1438 21.4806 42.0418 21.2003 41.853C20.7506 41.5502 20.5192 41.1439 20.506 40.6342C20.4869 40.1205 20.7193 39.5045 21.2031 38.7862L21.8403 37.8402C21.3184 37.5312 20.8411 37.6978 20.4085 38.3402C20.2551 38.5679 20.1377 38.8242 20.0563 39.1089C19.969 39.3897 19.9346 39.6551 19.9529 39.9051L18.4454 39.7046C18.4472 39.3239 18.5272 38.9151 18.6855 38.4785C18.8419 38.032 19.0479 37.619 19.3036 37.2395ZM23.1164 39.8967C23.2462 39.704 23.3135 39.5031 23.3184 39.2942C23.3233 39.0853 23.2569 38.8878 23.1191 38.7016L22.7074 38.4243L22.2237 39.1426C21.8972 39.6273 21.8946 39.9778 22.2158 40.1941C22.3617 40.2924 22.5159 40.3156 22.6782 40.2637C22.8405 40.2117 22.9866 40.0894 23.1164 39.8967Z" fill="white"/>
<path d="M28.6868 34.7097C28.2698 35.1868 27.8014 35.5301 27.2816 35.7397C26.7618 35.9493 26.2396 36.0119 25.7149 35.9274C25.195 35.8376 24.7203 35.6051 24.2909 35.2298C23.8615 34.8545 23.5701 34.4175 23.4168 33.9189C23.2629 33.4103 23.2576 32.8867 23.401 32.3482C23.5391 31.805 23.8167 31.2948 24.2337 30.8177C24.66 30.33 25.1343 30.0012 25.6568 29.8313C26.174 29.6569 26.683 29.6576 27.1838 29.8335L26.7586 31.5236C26.2001 31.3816 25.7564 31.4987 25.4275 31.8751C25.1912 32.1455 25.0844 32.4495 25.1071 32.7873C25.1345 33.1198 25.3072 33.425 25.6252 33.703C25.9486 33.9857 26.2795 34.1206 26.618 34.1078C26.9558 34.0851 27.2428 33.9385 27.4791 33.6682C27.8081 33.2918 27.8648 32.8364 27.6492 32.302L29.2672 31.6543C29.5086 32.1271 29.5801 32.6337 29.4817 33.1743C29.378 33.7101 29.113 34.2219 28.6868 34.7097Z" fill="white"/>
<path d="M34.096 28.8498C34.0444 29.0423 33.9477 29.2432 33.8059 29.4524C33.6692 29.6568 33.5004 29.8527 33.2996 30.0399C32.7537 30.5488 32.2092 30.8062 31.666 30.8121C31.1228 30.818 30.6039 30.5557 30.1094 30.0253L28.7987 28.6194L28.1885 29.1883L27.1658 28.0914L27.7761 27.5225L26.7606 26.4333L28.2283 25.065L29.2438 26.1541L30.2016 25.2611L31.2243 26.3581L30.2664 27.2511L31.5627 28.6415C31.7019 28.7909 31.851 28.8733 32.0098 28.8888C32.1691 28.8944 32.3156 28.8348 32.4495 28.7099C32.6195 28.5515 32.728 28.3685 32.7751 28.1609L34.096 28.8498Z" fill="white"/>
<path d="M39.7044 16.2507L43.6346 22.5121L42.1766 23.4273L37.3184 21.8257L39.4126 25.1622L37.6773 26.2514L33.7471 19.99L35.2051 19.0748L40.0633 20.6764L37.9691 17.3399L39.7044 16.2507Z" fill="white"/>
<path d="M47.9427 20.6235C47.3819 20.87 46.8249 20.9763 46.2718 20.9426C45.7186 20.9089 45.2224 20.7424 44.7833 20.4432C44.3506 20.1412 44.0195 19.7291 43.7901 19.207C43.5634 18.6914 43.4852 18.172 43.5552 17.649C43.6317 17.1232 43.8428 16.6497 44.1884 16.2287C44.5376 15.7983 44.9958 15.4585 45.563 15.2092C46.1302 14.9599 46.6904 14.8521 47.2436 14.8859C47.7939 14.9132 48.2855 15.0778 48.7181 15.3799C49.148 15.6754 49.4777 16.0843 49.7071 16.6064C49.9366 17.1285 50.0163 17.651 49.9462 18.174C49.8761 18.697 49.6665 19.1737 49.3173 19.604C48.9681 20.0344 48.5099 20.3742 47.9427 20.6235ZM47.301 19.1636C47.6233 19.0219 47.8394 18.7962 47.9493 18.4864C48.0565 18.1702 48.0236 17.8154 47.8508 17.4223C47.6808 17.0355 47.4445 16.7779 47.142 16.6494C46.8394 16.5209 46.527 16.5275 46.2047 16.6691C45.8824 16.8108 45.6663 17.0365 45.5563 17.3463C45.4464 17.6561 45.4764 18.0044 45.6464 18.3911C45.8192 18.7843 46.0583 19.0484 46.3637 19.1833C46.6663 19.3118 46.9787 19.3052 47.301 19.1636Z" fill="white"/>
<path d="M59.5001 10.8636L59.0081 16.9198L57.1307 17.4213L55.2859 14.6894L55.0084 17.9882L53.131 18.4897L49.6846 13.4856L51.5212 12.995L53.5477 16.0391L53.8271 12.379L55.48 11.9375L57.5249 15.0095L57.7962 11.3188L59.5001 10.8636Z" fill="white"/>
<path d="M65.7852 16.1848C65.4481 16.2078 65.1559 16.1147 64.9088 15.9057C64.6617 15.6967 64.5265 15.4201 64.5031 15.0759C64.4792 14.7246 64.5723 14.4325 64.7822 14.1995C64.9992 13.9659 65.2798 13.8375 65.624 13.8141C65.9753 13.7902 66.2707 13.8795 66.5103 14.082C66.7498 14.2844 66.8816 14.5613 66.9055 14.9125C66.9289 15.2567 66.8323 15.5491 66.6158 15.7896C66.4063 16.0297 66.1294 16.1614 65.7852 16.1848Z" fill="white"/>
</svg>
