<svg width="170" height="61" viewBox="0 0 170 61" fill="none" xmlns="http://www.w3.org/2000/svg">
<path d="M29.1718 50.92C29.0794 50.8161 28.9622 50.6947 28.8225 50.5599C28.7516 50.4935 28.6769 50.4218 28.5936 50.3511C28.5523 50.3153 28.51 50.2784 28.4657 50.2418C28.4208 50.2059 28.3749 50.1692 28.3279 50.1316C28.1377 49.9843 27.9228 49.8341 27.683 49.6938C27.4434 49.5535 27.1793 49.4232 26.8992 49.3091C26.8297 49.2796 26.7573 49.2527 26.6853 49.225C26.65 49.2122 26.6146 49.1995 26.5791 49.1866L26.5258 49.1674L26.4685 49.1482C26.3191 49.0959 26.1661 49.0541 26.0115 49.0149C25.7024 48.9369 25.3854 48.8827 25.0685 48.8383C24.7511 48.7966 24.4335 48.7661 24.1206 48.748C24.0424 48.7439 23.9646 48.7381 23.887 48.7353C23.8096 48.7326 23.7325 48.7298 23.6558 48.7271C23.5792 48.7254 23.5031 48.7236 23.4275 48.7218C23.3519 48.72 23.2764 48.7209 23.2018 48.7203C22.9064 48.7195 22.6157 48.7251 22.3419 48.7446C22.068 48.7641 21.8105 48.7941 21.5744 48.8296C21.102 48.9013 20.7158 48.9955 20.449 49.0709C20.3822 49.0893 20.3228 49.107 20.2714 49.1232C20.2199 49.139 20.1763 49.1526 20.1411 49.1642C20.0707 49.1877 20.0332 49.2002 20.0332 49.2002C20.0332 49.2002 20.0726 49.1962 20.1464 49.1887C20.2201 49.18 20.328 49.17 20.4651 49.1566C20.6022 49.1434 20.7685 49.1286 20.959 49.115C21.1495 49.1012 21.3641 49.0884 21.598 49.0803C21.8317 49.072 22.0845 49.0682 22.3513 49.0718C22.4848 49.0751 22.6211 49.0766 22.7614 49.0839C22.8316 49.0874 22.9025 49.0909 22.9741 49.0945C23.0465 49.0979 23.1197 49.1014 23.1921 49.1061C23.3378 49.1152 23.4859 49.1245 23.6358 49.1339C23.7855 49.1457 23.9371 49.1576 24.0898 49.1697C24.3948 49.197 24.7036 49.228 25.0099 49.2707C25.3164 49.3113 25.6205 49.3626 25.9144 49.4271C25.9873 49.4446 26.0608 49.4599 26.1321 49.4797C26.168 49.4888 26.2038 49.4979 26.2395 49.507C26.2747 49.5171 26.3099 49.5272 26.3449 49.5373L26.396 49.552L26.45 49.569C26.486 49.5804 26.5217 49.5917 26.5575 49.6029C26.626 49.6267 26.6948 49.6468 26.7626 49.6713C27.0343 49.7657 27.2913 49.87 27.5289 49.984C27.7669 50.0974 27.9856 50.2195 28.1841 50.3397C28.2335 50.3703 28.2819 50.4002 28.3292 50.4295C28.3758 50.4601 28.4212 50.49 28.4655 50.5192C28.5555 50.576 28.6364 50.6365 28.7151 50.69C28.87 50.8005 29.0038 50.9 29.1123 50.9846C29.2222 51.0675 29.3063 51.1359 29.3643 51.182C29.4228 51.2277 29.454 51.2521 29.454 51.2521C29.454 51.2521 29.4289 51.2215 29.3819 51.1641C29.3337 51.1077 29.2664 51.0214 29.1718 50.92Z" fill="white"/>
<path d="M47.7753 50.3753L47.7753 50.3758C47.7591 50.6638 47.7464 50.9518 47.7321 51.2398L47.696 52.1039C47.6727 52.6799 47.6552 53.2559 47.6346 53.832C47.6251 54.1437 47.616 54.4554 47.6074 54.7672C47.7196 54.686 47.8314 54.6044 47.9424 54.5217C47.9358 54.2918 47.9292 54.0619 47.9222 53.832C47.9015 53.2559 47.884 52.6799 47.8608 52.1039L47.8246 51.2398C47.8103 50.9518 47.7976 50.6638 47.7815 50.3758L47.787 50.3203L47.7753 50.3753Z" fill="white"/>
<path d="M43.9478 48.0718C43.9478 47.7028 43.8723 47.3376 43.726 46.9989L43.7235 46.9929C43.313 46.0436 42.8626 45.6809 42.8626 45.6809C43.8154 46.1573 44.2654 46.2103 44.2654 46.2103C42.148 45.2839 41.0364 43.4577 41.5393 41.9755C42.0421 40.4933 42.8097 39.3818 43.6566 38.2172C44.5036 37.0527 45.6152 36.9468 45.6152 36.9468C45.6152 37.4386 45.5485 37.9281 45.4171 38.4019L44.7279 40.8867C44.6524 41.1589 44.694 41.4504 44.8428 41.6907L44.8938 41.7731C44.9359 41.841 44.9855 41.9042 45.0438 41.9588C45.9967 42.8514 47.5466 42.8552 48.2998 42.7948C48.5711 42.773 48.822 42.6427 48.9963 42.4335C49.0879 42.3235 49.1552 42.1953 49.1938 42.0574L50.2734 38.1907C51.7291 40.3875 51.8085 43.934 50.4058 45.4956C49.0765 46.9754 46.8918 46.934 46.6667 46.9256C48.8761 47.0272 49.8235 46.4484 49.8235 46.4484C49.1673 47.6989 48.7247 49.0458 48.5094 50.4337V54.0927C52.3374 51.098 55.4203 47.1947 57.4317 42.7062L30.0331 14.418L2.64648 42.6939C6.17139 50.5699 12.993 56.6478 21.356 59.1737C21.3714 58.1861 21.3788 57.2881 21.3754 56.518H26.3237C26.2872 57.1831 26.215 58.549 26.1428 60.1996C27.4191 60.3652 28.7204 60.451 30.0418 60.451C35.0606 60.451 39.791 59.2176 43.9478 57.0388L43.9478 48.0718ZM21.9638 30.4518H29.1818V37.5477H21.9638V30.4518ZM21.9638 38.7291H29.1818V45.825H21.9638V38.7291ZM32.5462 55.5286C31.5132 54.4956 29.6945 52.5023 28.1813 52.0366C26.6682 51.5711 26.3481 53.2006 26.3481 56.0815H21.3721V54.4121C21.3721 53.655 21.0714 52.9289 20.536 52.3937C20.2376 52.0952 19.8778 51.8642 19.4795 51.7245C18.7405 51.4652 17.5322 51.3092 16.076 52.1239H13.5444C13.3836 51.6581 13.2096 50.9862 13.1855 50.1646C13.1557 49.1508 13.3665 48.3334 13.5444 47.8172C14.2913 47.8172 15.0381 47.8172 15.785 47.8172C15.785 47.8172 16.5998 48.3992 17.3273 48.632C17.8729 48.8066 18.9259 48.7357 19.9094 48.5174C20.8689 48.3045 21.8485 48.1945 22.8313 48.2082C24.0336 48.225 25.542 48.3295 26.6391 48.6902C28.7633 49.3885 30.6839 50.7853 33.9721 56.6052C33.9721 56.6053 33.5793 56.5617 32.5462 55.5286ZM37.5811 45.825H30.3631V38.7291H37.5811V45.825ZM37.5811 37.5477H30.3631V30.4518H37.5811V37.5477Z" fill="white"/>
<path d="M42.2249 42.21C42.2249 42.21 42.2152 42.2248 42.1985 42.2539C42.1904 42.2685 42.1794 42.2864 42.1683 42.3082C42.1575 42.3301 42.1457 42.3557 42.1328 42.3848C42.1198 42.414 42.1095 42.4473 42.0963 42.4837C42.0836 42.5203 42.0749 42.5609 42.0631 42.6045C42.0458 42.692 42.0291 42.7937 42.0285 42.9053C42.0271 43.0166 42.0344 43.1388 42.0588 43.2647C42.0828 43.3906 42.1185 43.5219 42.1695 43.6517C42.1952 43.7167 42.2223 43.7808 42.2563 43.8474C42.2727 43.8805 42.2895 43.9149 42.3054 43.943L42.3304 43.9872L42.3429 44.0094L42.3492 44.0205L42.3586 44.0357C42.4336 44.1601 42.5195 44.2801 42.6121 44.3937C42.6349 44.4225 42.6601 44.449 42.6841 44.4765C42.7087 44.5035 42.7321 44.5317 42.7576 44.5575C42.8079 44.61 42.8592 44.6612 42.9123 44.7091C42.9388 44.7332 42.9643 44.7581 42.9912 44.781C43.0186 44.8035 43.0457 44.8259 43.0727 44.8482C43.1259 44.8936 43.1822 44.9335 43.2365 44.9738C43.292 45.0125 43.3465 45.0505 43.4014 45.0853C43.4573 45.1184 43.5102 45.1532 43.5646 45.1825C43.6192 45.2112 43.6708 45.2414 43.7232 45.2662C43.7757 45.2907 43.8254 45.3158 43.8747 45.3368C43.9244 45.3572 43.9713 45.3773 44.0167 45.395C44.0625 45.4117 44.1059 45.4274 44.147 45.4411C44.1878 45.4552 44.2268 45.4675 44.2632 45.4774C44.2995 45.4876 44.3325 45.4972 44.3627 45.5049C44.4226 45.5199 44.4709 45.528 44.5033 45.5353C44.536 45.5418 44.5538 45.5445 44.5538 45.5445C44.5538 45.5445 44.54 45.5329 44.5137 45.5125C44.4873 45.4926 44.4488 45.4621 44.3992 45.4257C44.351 45.387 44.2916 45.345 44.2253 45.2927C44.1923 45.2664 44.1562 45.2405 44.1193 45.2116C44.0828 45.1819 44.0438 45.1522 44.0037 45.1206C43.9239 45.0568 43.8386 44.9876 43.7504 44.9131C43.7067 44.8756 43.662 44.837 43.6162 44.7976C43.5716 44.7573 43.5261 44.7162 43.4798 44.6743C43.4573 44.6529 43.435 44.6308 43.4118 44.6096C43.3884 44.5885 43.3655 44.5666 43.3432 44.5439C43.2979 44.4991 43.2525 44.4537 43.2079 44.407C43.1183 44.3139 43.0311 44.2167 42.9488 44.1161L42.8872 44.0408C42.8663 44.0158 42.8481 43.9893 42.8284 43.9637C42.7891 43.9124 42.7527 43.8599 42.7157 43.8081L42.7122 43.8032L42.7105 43.8008C42.7113 43.802 42.7076 43.7962 42.712 43.8033L42.7112 43.802L42.7043 43.7913L42.6905 43.7699L42.6631 43.7273C42.643 43.6982 42.6284 43.6734 42.6127 43.648C42.5808 43.5985 42.552 43.543 42.5218 43.4912C42.4647 43.3853 42.4164 43.2797 42.3757 43.177C42.334 43.0744 42.3043 42.974 42.2804 42.8795C42.2747 42.8557 42.269 42.8323 42.2635 42.8096C42.2593 42.7866 42.2556 42.7641 42.251 42.742C42.2412 42.6977 42.2388 42.6554 42.2317 42.6149C42.2284 42.5748 42.2243 42.5365 42.2222 42.501C42.2212 42.4655 42.2191 42.4323 42.219 42.4024C42.2196 42.3725 42.2198 42.3454 42.2195 42.3215C42.2199 42.2978 42.2219 42.2778 42.2228 42.2613C42.2245 42.2282 42.2249 42.21 42.2249 42.21Z" fill="white"/>
<path d="M30.0383 0.451172C13.4702 0.451172 0.0390625 13.8823 0.0390625 30.4504C0.0390625 33.5443 0.507603 36.5286 1.3772 39.3366L30.0296 9.75361L47.2745 27.5589L47.5955 27.8903C47.6805 27.0881 47.8426 26.3996 47.8997 25.9293C48.0536 24.6593 47.5725 23.6779 47.053 22.9081C46.6887 22.3685 46.1354 21.9235 45.837 21.7056C45.7064 21.6102 45.6289 21.4583 45.6289 21.2966V21.2942V20.9084C45.6289 20.8815 45.6195 20.8569 45.6038 20.8375H51.8986C51.8829 20.8568 51.8734 20.8815 51.8734 20.9084V21.2942C51.8734 21.4573 51.7947 21.6102 51.6624 21.7054C51.3595 21.9232 50.7973 22.3683 50.4273 22.9081C49.8997 23.6778 49.4112 24.6592 49.5675 25.9293C49.6756 26.808 50.1565 28.4484 49.8029 30.1694L52.2962 32.7438L55.303 35.8483L58.6951 39.3507C59.5676 36.5386 60.0376 33.5494 60.0376 30.4504C60.0376 13.8823 46.6065 0.451172 30.0383 0.451172ZM52.0987 20.6831C52.0987 20.6837 52.0986 20.6843 52.0986 20.6849H45.4037C45.4037 20.6843 45.4036 20.6836 45.4036 20.6831V17.9671H52.0987V20.6831ZM52.1105 17.8145H45.3919L45.1051 14.0995L45.3187 14.191L45.5324 14.0995L45.7308 14.1758L46.0056 14.0995L46.2345 14.191L46.4787 14.0995L46.6771 14.2216L46.967 14.0995L47.257 14.2216L47.5622 14.0995L47.898 14.2521L48.1574 14.0995L48.4474 14.2673L48.7512 14.0995L49.055 14.2673L49.3449 14.0995L49.6044 14.2521L49.9401 14.0995L50.2453 14.2216L50.5353 14.0995L50.8253 14.2216L51.0237 14.0995L51.2678 14.191L51.4968 14.0995L51.7714 14.1758L51.9699 14.0995L52.1835 14.191L52.3971 14.0995L52.1105 17.8145Z" fill="#3797E4"/>
<path d="M162.607 36.7969C162.607 35.8987 162.927 35.1306 163.565 34.4924C164.203 33.8542 164.995 33.5352 165.94 33.5352C166.933 33.5352 167.736 33.8542 168.351 34.4924C168.965 35.1306 169.273 35.8987 169.273 36.7969C169.273 37.6951 168.965 38.4632 168.351 39.1014C167.736 39.7396 166.933 40.0586 165.94 40.0586C164.995 40.0586 164.203 39.7396 163.565 39.1014C162.927 38.4632 162.607 37.6951 162.607 36.7969Z" fill="#3797E4"/>
<path d="M155.141 22.8988V39.2075H149.858V22.8988H155.141ZM159.856 28.4296C159.573 28.1459 159.265 27.9214 158.935 27.7559C158.627 27.5905 158.237 27.5078 157.765 27.5078C157.245 27.5078 156.784 27.6496 156.382 27.9332C155.98 28.2168 155.673 28.6305 155.46 29.1741C155.247 29.7177 155.141 30.3795 155.141 31.1595L153.865 29.2804C153.865 27.9805 154.113 26.8223 154.609 25.806C155.129 24.7896 155.803 23.986 156.63 23.3951C157.457 22.8042 158.32 22.5088 159.218 22.5088C159.809 22.5088 160.376 22.627 160.92 22.8633C161.464 23.0997 161.877 23.4306 162.161 23.856L159.856 28.4296Z" fill="white"/>
<path d="M137.832 39.5622C135.941 39.5622 134.298 39.2195 132.903 38.5341C131.533 37.825 130.469 36.8323 129.713 35.5559C128.956 34.2796 128.578 32.7787 128.578 31.0533C128.578 29.3043 128.944 27.7916 129.677 26.5152C130.41 25.2389 131.462 24.258 132.833 23.5726C134.227 22.8872 135.87 22.5444 137.761 22.5444C139.651 22.5444 141.247 22.8753 142.547 23.5371C143.847 24.1753 144.84 25.1089 145.525 26.338C146.21 27.567 146.553 29.0561 146.553 30.8051C146.553 31.0651 146.553 31.3251 146.553 31.5851C146.553 31.8215 146.53 32.0224 146.482 32.1878H131.592V29.2097H141.661L140.384 30.8406C140.502 30.6751 140.597 30.4742 140.668 30.2379C140.762 29.9779 140.81 29.7652 140.81 29.5997C140.81 28.8906 140.68 28.2761 140.42 27.7561C140.16 27.2361 139.793 26.8343 139.321 26.5507C138.848 26.2671 138.292 26.1253 137.654 26.1253C136.851 26.1253 136.177 26.3025 135.633 26.6571C135.09 27.0116 134.676 27.5552 134.393 28.2879C134.133 28.997 133.991 29.8952 133.967 30.9824C133.967 31.9751 134.109 32.826 134.393 33.5351C134.676 34.2442 135.102 34.7878 135.669 35.1659C136.236 35.5205 136.933 35.6978 137.761 35.6978C138.706 35.6978 139.51 35.5205 140.171 35.1659C140.857 34.8114 141.401 34.2796 141.802 33.5705L146.589 34.7405C145.738 36.3477 144.58 37.5532 143.114 38.3568C141.672 39.1604 139.911 39.5622 137.832 39.5622Z" fill="white"/>
<path d="M128.264 22.8989L117.628 47.0074H112.239L116.21 37.8958L109.154 22.8989H115.04L120.322 35.9813L117.557 35.9459L122.769 22.8989H128.264Z" fill="white"/>
<path d="M101.448 16.7653C101.448 15.9144 101.756 15.229 102.37 14.709C102.985 14.1654 103.717 13.8936 104.568 13.8936C105.443 13.8936 106.175 14.1654 106.766 14.709C107.381 15.229 107.688 15.9144 107.688 16.7653C107.688 17.6162 107.381 18.3135 106.766 18.8571C106.175 19.4007 105.443 19.6725 104.568 19.6725C103.717 19.6725 102.985 19.4007 102.37 18.8571C101.756 18.3135 101.448 17.6162 101.448 16.7653ZM101.98 22.8988H107.156V39.2075H101.98V22.8988Z" fill="white"/>
<path d="M76.2979 14.3901H82.4668V39.2077H76.2979V14.3901ZM85.1613 39.2077H80.2687V33.8897H84.9486C85.894 33.8897 86.804 33.7715 87.6785 33.5351C88.5766 33.2988 89.3566 32.9088 90.0184 32.3652C90.7039 31.8215 91.2475 31.1006 91.6493 30.2025C92.0511 29.2807 92.252 28.1462 92.252 26.7989C92.252 25.4517 92.0511 24.329 91.6493 23.4308C91.2475 22.509 90.7039 21.7763 90.0184 21.2327C89.3566 20.6891 88.5766 20.2991 87.6785 20.0627C86.804 19.8264 85.894 19.7082 84.9486 19.7082H80.2687V14.3901H85.1613C87.8794 14.3901 90.2312 14.8983 92.2166 15.9146C94.202 16.931 95.7383 18.361 96.8255 20.2045C97.9128 22.0481 98.4564 24.2463 98.4564 26.7989C98.4564 29.328 97.9128 31.5261 96.8255 33.3933C95.7383 35.2369 94.202 36.6669 92.2166 37.6832C90.2312 38.6996 87.8794 39.2077 85.1613 39.2077Z" fill="white"/>
</svg>
