<svg width="50" height="51" viewBox="0 0 50 51" fill="none" xmlns="http://www.w3.org/2000/svg">
<path d="M45.6055 7.87256H4.39453C1.97637 7.87256 0 9.84023 0 12.2671V38.6343C0 41.062 1.97764 43.0288 4.39453 43.0288H45.6055C48.0236 43.0288 50 41.0611 50 38.6343V12.2671C50 9.83965 48.0227 7.87256 45.6055 7.87256ZM44.9307 10.8022C43.5099 12.2277 26.8208 28.9712 26.1352 29.6591C25.5625 30.2335 24.4378 30.2339 23.8648 29.6591L5.06934 10.8022H44.9307ZM2.92969 38.0957V12.8057L15.5337 25.4507L2.92969 38.0957ZM5.06934 40.0991L17.602 27.5257L21.7899 31.7273C23.5062 33.4491 26.4945 33.4484 28.2102 31.7273L32.3981 27.5258L44.9307 40.0991H5.06934ZM47.0703 38.0957L34.4663 25.4507L47.0703 12.8057V38.0957Z" fill="#3797E4"/>
</svg>
