<svg width="51" height="51" viewBox="0 0 51 51" fill="none" xmlns="http://www.w3.org/2000/svg">
<path d="M42.3645 14.8642C40.896 14.8642 39.7008 16.0594 39.7008 17.5279V17.8156H38.2634V14.6053C39.6506 13.575 40.4721 11.9527 40.4721 10.2157C40.4721 8.03805 39.1813 6.06995 37.1837 5.20144C37.0355 5.1369 36.8658 5.15204 36.7312 5.23969C36.5965 5.32813 36.5152 5.47873 36.5152 5.63968V9.81252L35.0061 10.7201L33.4969 9.81252V5.64048C33.4969 5.47952 33.4157 5.32893 33.281 5.24048C33.1464 5.15204 32.9758 5.1377 32.8284 5.20224C30.8309 6.07075 29.54 8.03885 29.54 10.2165C29.54 11.9535 30.3607 13.5758 31.7488 14.6061V17.8164H29.0859V15.4228C29.0859 13.5678 27.5767 12.0595 25.7226 12.0595C23.8684 12.0595 22.3593 13.5686 22.3593 15.4228V17.8164H16.1195V15.6833H16.6191C16.8829 15.6833 17.0972 15.469 17.0972 15.2053V13.0953C17.0972 12.5049 17.5777 12.0244 18.1681 12.0244C18.7585 12.0244 19.239 12.5049 19.239 13.0953C19.239 13.3591 19.4534 13.5734 19.7171 13.5734H21.9633C22.227 13.5734 22.4413 13.3591 22.4413 13.0953V6.03649C22.4413 5.77275 22.227 5.55841 21.9633 5.55841H19.7171C19.4534 5.55841 19.239 5.77275 19.239 6.03649C19.239 6.62692 18.7585 7.10739 18.1681 7.10739C17.5777 7.10739 17.0972 6.62692 17.0972 6.03649C17.0972 5.77275 16.8829 5.55841 16.6191 5.55841H12.4152C12.4112 5.55841 12.4073 5.55841 12.4033 5.55841C10.8559 5.59586 9.64076 6.10422 8.79137 7.06755C7.40415 8.64202 7.32765 11.0754 7.50773 12.8404C7.52924 13.0475 7.68223 13.2172 7.88621 13.2595C8.09019 13.3017 8.29816 13.2077 8.40015 13.026C9.16746 11.6603 9.89893 10.9025 10.6352 10.7097C11.0423 10.6029 11.4702 10.6651 11.9379 10.9009V15.2045C11.9379 15.4682 12.1523 15.6825 12.416 15.6825H12.9156V17.8156H11.2981V17.5279C11.2981 16.0594 10.1029 14.8642 8.6344 14.8642C7.1659 14.8642 5.9707 16.0594 5.9707 17.5279V30.7381V41.5706C5.9707 43.5506 7.58183 45.1617 9.56188 45.1617H41.4379C43.4179 45.1617 45.029 43.5506 45.029 41.5706V30.7381V17.5279C45.0282 16.0594 43.833 14.8642 42.3645 14.8642ZM42.3645 15.8204C43.3063 15.8204 44.0721 16.5861 44.0721 17.5279V30.26H40.657V17.5279C40.657 16.5869 41.4227 15.8204 42.3645 15.8204ZM38.2634 21.6737H39.7008V30.26H38.2634V21.6737ZM39.7008 18.7717V20.7175H38.2634V18.7717H39.7008ZM30.497 10.2165C30.497 8.67629 31.2795 7.26276 32.5416 6.43967V10.0842C32.5416 10.2524 32.6292 10.4077 32.7735 10.4938L34.7607 11.689C34.9121 11.7798 35.1017 11.7798 35.2539 11.689L37.2411 10.4938C37.3845 10.4077 37.473 10.2516 37.473 10.0842V6.43887C38.7343 7.26276 39.5176 8.67549 39.5176 10.2157C39.5176 11.7201 38.771 13.12 37.5208 13.9607C37.3885 14.0499 37.3096 14.1981 37.3096 14.3575V30.2592H32.7073V14.3583C32.7073 14.1989 32.6284 14.0507 32.4962 13.9615C31.2436 13.1208 30.497 11.7209 30.497 10.2165ZM12.9148 23.6242H12.765C12.5013 23.6242 12.2869 23.8386 12.2869 24.1023V30.26H11.2981V21.6737H12.9148V23.6242ZM13.2431 24.5804H15.7913V30.26H13.2431V24.5804ZM16.2701 23.6242H16.1203V21.6737H22.3601V23.3294C22.3601 24.272 22.7505 25.1254 23.3776 25.7366H22.8382C22.5744 25.7366 22.3601 25.9509 22.3601 26.2146V28.7477C22.3601 29.0114 22.5744 29.2257 22.8382 29.2257H24.3776V30.26H16.749V24.1023C16.7482 23.8386 16.5339 23.6242 16.2701 23.6242ZM23.3154 28.2696V26.6927H28.1297V28.2696H23.3154ZM25.3329 29.2257H26.1122V30.26H25.3329V29.2257ZM27.0692 29.2257H28.6086C28.8723 29.2257 29.0867 29.0114 29.0867 28.7477V26.2146C29.0867 25.9509 28.8723 25.7366 28.6086 25.7366H28.0691C28.6962 25.1254 29.0867 24.272 29.0867 23.3294V21.6737H31.7496V30.26H27.0692V29.2257ZM31.7488 18.7717V20.7175H29.0859V18.7717H31.7488ZM23.3154 15.422C23.3154 14.0945 24.3951 13.0149 25.7226 13.0149C27.05 13.0149 28.1297 14.0945 28.1297 15.422V23.3294C28.1297 24.6569 27.05 25.7366 25.7226 25.7366C24.3951 25.7366 23.3154 24.6569 23.3154 23.3294V15.422ZM22.3593 18.7717V20.7175H16.1195V18.7717H22.3593ZM12.663 10.2117C11.883 9.73762 11.1188 9.5942 10.3921 9.78543C9.68459 9.97109 9.0336 10.4563 8.39377 11.285C8.41768 10.0069 8.68062 8.63963 9.50849 7.70021C10.173 6.94564 11.1531 6.54724 12.4208 6.51536H16.1984C16.4136 7.403 17.2151 8.06434 18.1681 8.06434C19.1211 8.06434 19.9227 7.403 20.1378 6.51536H21.4844V12.6173H20.1378C19.9227 11.7296 19.1211 11.0683 18.1681 11.0683C17.0502 11.0683 16.1411 11.9774 16.1411 13.0953V14.7272H12.8933V10.6205C12.8933 10.4531 12.8057 10.2986 12.663 10.2117ZM15.1642 15.6825V23.625H13.871V15.6825H15.1642ZM12.9148 18.7717V20.7175H11.2981V18.7717H12.9148ZM8.6344 15.8204C9.57622 15.8204 10.3419 16.5861 10.3419 17.5279V30.26H6.92686V17.5279C6.92686 16.5869 7.69259 15.8204 8.6344 15.8204ZM44.0721 41.5706C44.0721 43.0231 42.8904 44.2056 41.4371 44.2056H9.56188C8.10931 44.2056 6.92686 43.0239 6.92686 41.5706V31.2162H44.0721V41.5706ZM24.2318 23.892V14.8595C24.2318 14.5957 24.4461 14.3814 24.7098 14.3814C24.9736 14.3814 25.1879 14.5957 25.1879 14.8595V23.892C25.1879 24.1557 24.9736 24.3701 24.7098 24.3701C24.4461 24.3701 24.2318 24.1565 24.2318 23.892ZM26.258 23.892V14.8595C26.258 14.5957 26.4724 14.3814 26.7361 14.3814C26.9998 14.3814 27.2142 14.5957 27.2142 14.8595V23.892C27.2142 24.1557 26.9998 24.3701 26.7361 24.3701C26.4724 24.3701 26.258 24.1565 26.258 23.892ZM21.4007 38.9467H29.599C30.8348 38.9467 31.8396 37.9419 31.8396 36.7061C31.8396 35.4703 30.8348 34.4655 29.599 34.4655H21.4007C20.1649 34.4655 19.1601 35.4703 19.1601 36.7061C19.1601 37.9419 20.1649 38.9467 21.4007 38.9467ZM21.4007 35.4217H29.599C30.3074 35.4217 30.8834 35.9978 30.8834 36.7061C30.8834 37.4145 30.3066 37.9905 29.5982 37.9905H21.4007C20.6924 37.9905 20.1163 37.4145 20.1163 36.7061C20.1163 35.9978 20.6924 35.4217 21.4007 35.4217ZM33.6149 17.5678C33.6149 17.304 33.8292 17.0897 34.093 17.0897H35.92C36.1838 17.0897 36.3981 17.304 36.3981 17.5678C36.3981 17.8315 36.1838 18.0459 35.92 18.0459H34.093C33.8284 18.0459 33.6149 17.8323 33.6149 17.5678ZM33.6149 20.0331C33.6149 19.7693 33.8292 19.555 34.093 19.555H35.92C36.1838 19.555 36.3981 19.7693 36.3981 20.0331C36.3981 20.2968 36.1838 20.5112 35.92 20.5112H34.093C33.8284 20.5112 33.6149 20.2968 33.6149 20.0331ZM33.6149 22.4976C33.6149 22.2338 33.8292 22.0195 34.093 22.0195H35.92C36.1838 22.0195 36.3981 22.2338 36.3981 22.4976C36.3981 22.7613 36.1838 22.9757 35.92 22.9757H34.093C33.8284 22.9757 33.6149 22.7613 33.6149 22.4976ZM33.6149 24.9621C33.6149 24.6983 33.8292 24.484 34.093 24.484H35.92C36.1838 24.484 36.3981 24.6983 36.3981 24.9621C36.3981 25.2258 36.1838 25.4402 35.92 25.4402H34.093C33.8284 25.4402 33.6149 25.2258 33.6149 24.9621ZM33.6149 27.4266C33.6149 27.1628 33.8292 26.9485 34.093 26.9485H35.92C36.1838 26.9485 36.3981 27.1628 36.3981 27.4266C36.3981 27.6903 36.1838 27.9047 35.92 27.9047H34.093C33.8284 27.9047 33.6149 27.6911 33.6149 27.4266Z" fill="#3797E4"/>
</svg>
