<svg width="36" height="36" viewBox="0 0 36 36" fill="none" xmlns="http://www.w3.org/2000/svg">
<g clip-path="url(#clip0_194_55)">
<path d="M18 0C8.11336 0 0 8.11336 0 18C0 27.8866 8.11336 36 18 36C27.8866 36 36 27.8866 36 18C36 8.11336 27.8866 0 18 0ZM26.2036 8.30489C26.6155 7.893 27.2832 7.893 27.6951 8.30489C28.107 8.71678 28.107 9.38454 27.6951 9.79643C27.2832 10.2083 26.6155 10.2083 26.2036 9.79643C25.7917 9.38454 25.7917 8.71678 26.2036 8.30489ZM16.9453 5.34375C16.9453 4.76079 17.417 4.28906 18 4.28906C18.583 4.28906 19.0547 4.76079 19.0547 5.34375V7.45312C19.0547 8.03609 18.583 8.50781 18 8.50781C17.417 8.50781 16.9453 8.03609 16.9453 7.45312V5.34375ZM5.34375 19.0547C4.76079 19.0547 4.28906 18.583 4.28906 18C4.28906 17.417 4.76079 16.9453 5.34375 16.9453H7.45312C8.03609 16.9453 8.50781 17.417 8.50781 18C8.50781 18.583 8.03609 19.0547 7.45312 19.0547H5.34375ZM9.79643 27.6951C9.38454 28.107 8.71678 28.107 8.30489 27.6951C7.893 27.2832 7.893 26.6155 8.30489 26.2036C8.71678 25.7916 9.38454 25.7916 9.79643 26.2036C10.2083 26.6155 10.2083 27.2832 9.79643 27.6951ZM9.79643 9.79643C9.38454 10.2083 8.71678 10.2083 8.30489 9.79643C7.893 9.38454 7.893 8.71678 8.30489 8.30489C8.71678 7.893 9.38454 7.893 9.79643 8.30489C10.2083 8.71678 10.2083 9.38454 9.79643 9.79643ZM19.0547 30.6562C19.0547 31.2392 18.583 31.7109 18 31.7109C17.417 31.7109 16.9453 31.2392 16.9453 30.6562V28.5469C16.9453 27.9639 17.417 27.4922 18 27.4922C18.583 27.4922 19.0547 27.9639 19.0547 28.5469V30.6562ZM25.0738 25.0738C24.6618 25.4858 23.9944 25.4858 23.5824 25.0738L17.2543 18.7457C17.0565 18.5479 16.9453 18.2801 16.9453 18V11.6719C16.9453 11.0889 17.417 10.6172 18 10.6172C18.583 10.6172 19.0547 11.0889 19.0547 11.6719V17.5633L25.0738 23.5824C25.4858 23.9944 25.4858 24.6618 25.0738 25.0738ZM27.6951 27.6951C27.2832 28.107 26.6155 28.107 26.2036 27.6951C25.7917 27.2832 25.7917 26.6155 26.2036 26.2036C26.6155 25.7916 27.2832 25.7916 27.6951 26.2036C28.1069 26.6155 28.1069 27.2832 27.6951 27.6951ZM31.7109 18C31.7109 18.583 31.2392 19.0547 30.6562 19.0547H28.5469C27.9639 19.0547 27.4922 18.583 27.4922 18C27.4922 17.417 27.9639 16.9453 28.5469 16.9453H30.6562C31.2392 16.9453 31.7109 17.417 31.7109 18Z" fill="#2C2C2C"/>
</g>
<defs>
<clipPath id="clip0_194_55">
<rect width="36" height="36" fill="white"/>
</clipPath>
</defs>
</svg>
