<svg width="58" height="59" viewBox="0 0 58 59" fill="none" xmlns="http://www.w3.org/2000/svg">
<path d="M11.3589 43.5989C8.94219 40.9406 7.49219 38.0406 7.49219 33.2073C7.49219 24.7489 13.5339 17.2573 21.9922 13.3906L24.1672 16.5323C16.1922 20.8823 14.5005 26.4406 14.0172 30.0656C15.2255 29.3406 16.9172 29.0989 18.6089 29.3406C22.9589 29.8239 26.3422 33.2073 26.3422 37.7989C26.3422 39.9739 25.3755 42.1489 23.9255 43.8406C22.2339 45.5323 20.3005 46.2573 17.8839 46.2573C15.2255 46.2573 12.8089 45.0489 11.3589 43.5989ZM35.5255 43.5989C33.1089 40.9406 31.6589 38.0406 31.6589 33.2073C31.6589 24.7489 37.7005 17.2573 46.1589 13.3906L48.3339 16.5323C40.3589 20.8823 38.6672 26.4406 38.1839 30.0656C39.3922 29.3406 41.0839 29.0989 42.7755 29.3406C47.1255 29.8239 50.5089 33.2073 50.5089 37.7989C50.5089 39.9739 49.5422 42.1489 48.0922 43.8406C46.6422 45.5323 44.4672 46.2573 42.0505 46.2573C39.3922 46.2573 36.9755 45.0489 35.5255 43.5989Z" fill="white"/>
</svg>
