<svg width="50" height="51" viewBox="0 0 50 51" fill="none" xmlns="http://www.w3.org/2000/svg">
<g clip-path="url(#clip0_102_8700)">
<path d="M39.5155 31.4244C38.4919 30.3585 37.2572 29.7887 35.9487 29.7887C34.6507 29.7887 33.4054 30.348 32.3396 31.4138L29.0049 34.738C28.7305 34.5902 28.4562 34.453 28.1923 34.3159C27.8124 34.1259 27.4536 33.9465 27.1476 33.7566C24.024 31.7726 21.1852 29.1872 18.4626 25.8419C17.1435 24.1746 16.2571 22.771 15.6133 21.3464C16.4787 20.5549 17.2807 19.7318 18.0616 18.9404C18.3571 18.6449 18.6526 18.3388 18.948 18.0434C21.1641 15.8273 21.1641 12.9569 18.948 10.7408L16.0671 7.85988C15.74 7.53274 15.4023 7.19505 15.0857 6.85736C14.4525 6.20308 13.7877 5.5277 13.1018 4.89453C12.0781 3.88146 10.854 3.34326 9.56656 3.34326C8.27911 3.34326 7.03388 3.88146 5.97859 4.89453C5.96804 4.90508 5.96804 4.90508 5.95749 4.91564L2.36952 8.53526C1.01876 9.88602 0.248402 11.5323 0.0795562 13.4423C-0.173712 16.5238 0.733832 19.3941 1.43032 21.2725C3.13988 25.8841 5.69367 30.158 9.50324 34.738C14.1254 40.2571 19.6867 44.6154 26.0395 47.6863C28.4667 48.8366 31.7064 50.1979 35.326 50.43C35.5477 50.4406 35.7798 50.4511 35.9909 50.4511C38.4286 50.4511 40.4758 49.5753 42.0799 47.834C42.0904 47.8129 42.1115 47.8024 42.1221 47.7813C42.6708 47.1165 43.304 46.5149 43.9688 45.8712C44.4226 45.4385 44.8869 44.9848 45.3407 44.5099C46.3854 43.423 46.9342 42.1566 46.9342 40.8586C46.9342 39.5501 46.3749 38.2943 45.309 37.239L39.5155 31.4244ZM43.2934 42.5365C43.2829 42.5365 43.2829 42.5471 43.2934 42.5365C42.8819 42.9797 42.4598 43.3807 42.006 43.824C41.3201 44.4782 40.6236 45.1642 39.9693 45.9345C38.9035 47.0742 37.6477 47.6124 36.0014 47.6124C35.8431 47.6124 35.6743 47.6124 35.516 47.6019C32.3818 47.4014 29.4692 46.1772 27.2848 45.1325C21.3119 42.241 16.0671 38.136 11.7088 32.9334C8.11027 28.5962 5.70422 24.5861 4.11074 20.2806C3.12933 17.6529 2.77053 15.6057 2.92882 13.6745C3.03435 12.4398 3.50923 11.4162 4.38512 10.5403L7.98363 6.94178C8.50072 6.45635 9.04947 6.19253 9.58767 6.19253C10.2525 6.19253 10.7907 6.59354 11.1284 6.93123C11.1389 6.94178 11.1495 6.95233 11.16 6.96289C11.8038 7.5644 12.4158 8.18702 13.0596 8.85185C13.3867 9.18954 13.7244 9.52723 14.0621 9.87547L16.943 12.7564C18.0616 13.875 18.0616 14.9092 16.943 16.0278C16.637 16.3338 16.3415 16.6398 16.0355 16.9353C15.149 17.8429 14.3048 18.6871 13.3867 19.5102C13.3656 19.5313 13.3445 19.5419 13.3339 19.563C12.4264 20.4705 12.5952 21.357 12.7852 21.9585C12.7957 21.9901 12.8063 22.0218 12.8168 22.0534C13.5661 23.8685 14.6214 25.5781 16.2254 27.6148L16.236 27.6254C19.1485 31.2133 22.2194 34.0098 25.6069 36.152C26.0395 36.4264 26.4828 36.648 26.9049 36.8591C27.2848 37.049 27.6436 37.2284 27.9496 37.4184C27.9918 37.4395 28.034 37.4712 28.0762 37.4923C28.435 37.6717 28.7727 37.7561 29.121 37.7561C29.9969 37.7561 30.5456 37.2073 30.725 37.0279L34.3341 33.4189C34.6929 33.0601 35.2627 32.6274 35.9276 32.6274C36.5818 32.6274 37.12 33.039 37.4472 33.3978C37.4577 33.4083 37.4577 33.4083 37.4683 33.4189L43.2829 39.2335C44.3698 40.3099 44.3698 41.4179 43.2934 42.5365Z" fill="#3797E4"/>
<path d="M27.0213 12.3447C29.7861 12.809 32.2977 14.1176 34.3027 16.1226C36.3078 18.1276 37.6058 20.6392 38.0807 23.4041C38.1967 24.1005 38.7983 24.586 39.4842 24.586C39.5686 24.586 39.6425 24.5754 39.7269 24.5649C40.5078 24.4382 41.0249 23.6995 40.8983 22.9186C40.3284 19.5734 38.7455 16.5236 36.3289 14.107C33.9123 11.6904 30.8625 10.1075 27.5173 9.53763C26.7364 9.41099 26.0082 9.92808 25.871 10.6984C25.7338 11.4688 26.2404 12.218 27.0213 12.3447Z" fill="#3797E4"/>
<path d="M49.942 22.5072C49.0028 16.9986 46.4068 11.986 42.4178 7.99707C38.4289 4.00809 33.4163 1.41209 27.9077 0.472891C27.1373 0.335704 26.4092 0.863346 26.272 1.6337C26.1454 2.41461 26.6624 3.14276 27.4434 3.27995C32.361 4.11362 36.8459 6.4458 40.4128 10.0021C43.9797 13.569 46.3013 18.0539 47.135 22.9716C47.251 23.668 47.8526 24.1535 48.5385 24.1535C48.6229 24.1535 48.6968 24.1429 48.7812 24.1324C49.5516 24.0163 50.0792 23.2776 49.942 22.5072Z" fill="#3797E4"/>
</g>
<defs>
<clipPath id="clip0_102_8700">
<rect width="50" height="50" fill="white" transform="translate(0 0.451172)"/>
</clipPath>
</defs>
</svg>
