<svg width="51" height="51" viewBox="0 0 51 51" fill="none" xmlns="http://www.w3.org/2000/svg">
<path fill-rule="evenodd" clip-rule="evenodd" d="M21.4498 9.18707C21.2962 9.18707 21.1565 9.23727 21.0762 9.35371L18.1368 13.5841C17.9612 13.8361 17.8948 14.1042 17.949 14.3391C18.0003 14.556 18.1529 14.7397 18.3918 14.8722L20.487 16.0337C21.1465 16.399 21.5109 16.9483 21.5119 17.5788L21.522 24.9223C21.523 25.2948 21.8131 25.604 22.1986 25.6432L29.746 26.4051C30.5371 26.4844 31.1404 27.1149 31.284 28.0094L33.4524 41.5973C33.5107 41.9657 33.7375 42.3964 34.1812 42.3964L43.5287 42.3963C43.7606 42.3963 43.9453 42.3081 44.0908 42.1273C44.2374 41.9466 44.2846 41.7479 44.2354 41.521L40.5872 24.6783C40.4658 24.115 40.5892 23.6083 40.9366 23.2499L46.4962 17.5064C46.685 17.3116 46.5986 16.9573 46.4932 16.6943L44.4492 11.6005C44.3368 11.3213 43.9242 11.2913 43.7515 11.2913L25.4031 11.2913C25.1361 11.2912 24.7385 11.2601 24.357 10.9992L21.9336 9.34065C21.7931 9.24422 21.6133 9.18707 21.4498 9.18707ZM43.5287 43.3601H34.1813C33.33 43.3601 32.6543 42.7127 32.5007 41.7489L30.3323 28.162C30.3042 27.9873 30.1726 27.4171 29.6486 27.3639L22.1022 26.6019C21.2229 26.5136 20.5592 25.7918 20.5582 24.9244L20.5482 17.5798C20.5472 17.3077 20.3695 17.0708 20.0201 16.8771L17.924 15.7155C17.4472 15.4515 17.1228 15.0399 17.0104 14.557C16.894 14.054 17.0124 13.514 17.3447 13.0341L20.2842 8.80359C20.7962 8.06675 21.8221 8.09588 22.4787 8.54565L24.9012 10.204C25.0286 10.2913 25.1742 10.3276 25.4031 10.3276L43.7515 10.3275C43.7515 10.3275 43.7515 10.3276 43.7525 10.3276C44.5185 10.3275 45.1128 10.6689 45.3427 11.2411L47.3877 16.3359C47.6869 17.0808 47.6165 17.7344 47.1889 18.1762L41.6293 23.9205C41.4808 24.073 41.4927 24.306 41.5299 24.4746L45.1771 41.3162C45.2865 41.8251 45.168 42.3282 44.8407 42.7328C44.5145 43.1373 44.0487 43.3602 43.5287 43.3601Z" fill="#3797E4"/>
<path fill-rule="evenodd" clip-rule="evenodd" d="M19.4565 14.5569C19.1905 14.5569 18.9746 14.3412 18.9746 14.0751C18.9747 13.809 19.1904 13.5932 19.4565 13.5932C19.7225 13.5932 19.9384 13.8091 19.9384 14.0751C19.9384 14.3411 19.7225 14.557 19.4565 14.5569Z" fill="#3797E4"/>
<path fill-rule="evenodd" clip-rule="evenodd" d="M41.4722 40.6696C41.2061 40.6696 40.9902 40.4548 40.9902 40.1878C40.9903 39.9217 41.2061 39.7059 41.4721 39.7059C41.7381 39.7059 41.954 39.9218 41.954 40.1878C41.954 40.4548 41.7381 40.6697 41.4722 40.6696Z" fill="#3797E4"/>
<path fill-rule="evenodd" clip-rule="evenodd" d="M27.2866 22.3583C26.8218 22.3583 26.4433 22.7358 26.4433 23.2016C26.4433 23.6664 26.8217 24.0449 27.2865 24.0449C27.7514 24.0448 28.1298 23.6665 28.1298 23.2016C28.1298 22.7358 27.7513 22.3584 27.2866 22.3583ZM27.2866 25.0087C26.2897 25.0087 25.4795 24.1975 25.4795 23.2016C25.4796 22.2047 26.2896 21.3946 27.2865 21.3946C28.2834 21.3946 29.0936 22.2048 29.0936 23.2016C29.0937 24.1974 28.2834 25.0087 27.2866 25.0087Z" fill="#3797E4"/>
<path fill-rule="evenodd" clip-rule="evenodd" d="M38.9175 13.5631C38.49 13.5631 38.1405 13.9115 38.1405 14.3402L38.1405 20.1478C38.1405 20.5764 38.4899 20.9248 38.9175 20.9248C39.3463 20.9248 39.6956 20.5764 39.6956 20.1478L39.6956 14.3401C39.6956 13.9115 39.3462 13.5632 38.9175 13.5631ZM38.9175 21.8885C37.9579 21.8885 37.1768 21.1075 37.1768 20.1478L37.1768 14.3401C37.1768 13.3804 37.9578 12.5994 38.9175 12.5994C39.8783 12.5993 40.6593 13.3804 40.6593 14.3402V20.1478C40.6593 21.1074 39.8782 21.8885 38.9175 21.8885Z" fill="#3797E4"/>
<path fill-rule="evenodd" clip-rule="evenodd" d="M40.1775 16.4091H37.6587C37.3926 16.4091 37.1768 16.1933 37.1768 15.9273C37.1768 15.6612 37.3926 15.4454 37.6586 15.4454L40.1775 15.4454C40.4435 15.4454 40.6593 15.6613 40.6593 15.9273C40.6593 16.1933 40.4435 16.4092 40.1775 16.4091Z" fill="#3797E4"/>
<path fill-rule="evenodd" clip-rule="evenodd" d="M40.1775 19.21H37.6587C37.3926 19.21 37.1768 18.9953 37.1768 18.7282C37.1768 18.4621 37.3926 18.2463 37.6586 18.2463L40.1775 18.2463C40.4435 18.2463 40.6593 18.4622 40.6593 18.7282C40.6593 18.9952 40.4435 19.2101 40.1775 19.21Z" fill="#3797E4"/>
<path fill-rule="evenodd" clip-rule="evenodd" d="M18.8794 40.4758C18.4949 40.4758 18.1023 40.3021 17.8202 39.9869C17.474 39.6014 17.3905 39.1005 17.6004 38.6798L17.6807 38.5191C18.6866 36.5113 21.0407 31.81 21.6722 26.0697C21.7014 25.8056 21.9392 25.6149 22.2043 25.6441C22.4684 25.6731 22.659 25.9111 22.6299 26.1751C21.9805 32.0871 19.571 36.8969 18.543 38.9499L18.4627 39.1105C18.4196 39.1967 18.4998 39.3022 18.537 39.3434C18.6575 39.4768 18.8402 39.5432 18.9637 39.498C21.4082 38.5904 24.7622 33.7215 26.1607 26.4833C26.212 26.2222 26.4638 26.0516 26.7259 26.1018C26.987 26.152 27.1575 26.405 27.1074 26.667C26.4679 29.9728 25.3174 33.1804 23.8668 35.6982C22.4443 38.1657 20.8219 39.8363 19.299 40.4015C19.1635 40.4516 19.0219 40.4758 18.8794 40.4758Z" fill="#3797E4"/>
<path fill-rule="evenodd" clip-rule="evenodd" d="M33.732 16.4011H31.6841C31.418 16.4011 31.2021 16.1853 31.2021 15.9183C31.2022 15.6521 31.418 15.4364 31.684 15.4364L33.732 15.4363C33.9981 15.4363 34.2139 15.6522 34.2139 15.9183C34.2139 16.1853 33.998 16.4011 33.732 16.4011Z" fill="#3797E4"/>
<path fill-rule="evenodd" clip-rule="evenodd" d="M33.732 19.0514H31.6841C31.418 19.0514 31.2021 18.8356 31.2021 18.5696C31.2022 18.3035 31.418 18.0877 31.684 18.0877H33.732C33.9981 18.0877 34.2139 18.3035 34.2139 18.5696C34.2139 18.8356 33.998 19.0515 33.732 19.0514Z" fill="#3797E4"/>
<path fill-rule="evenodd" clip-rule="evenodd" d="M27.226 16.1893C26.9601 16.1893 26.7441 15.9745 26.7441 15.7075L26.7442 13.6595C26.7442 13.3934 26.96 13.1776 27.226 13.1776C27.4921 13.1776 27.7079 13.3935 27.7079 13.6595L27.7079 15.7074C27.7079 15.9744 27.492 16.1894 27.226 16.1893Z" fill="#3797E4"/>
<path fill-rule="evenodd" clip-rule="evenodd" d="M25.0874 16.1893C24.8213 16.1893 24.6055 15.9745 24.6055 15.7074V13.6594C24.6055 13.3934 24.8213 13.1776 25.0873 13.1776C25.3535 13.1775 25.5692 13.3934 25.5692 13.6595L25.5693 15.7074C25.5693 15.9744 25.3534 16.1893 25.0874 16.1893Z" fill="#3797E4"/>
<path fill-rule="evenodd" clip-rule="evenodd" d="M21.0353 22.5079H18.2496C17.9824 22.5079 17.7676 22.2921 17.7676 22.0261C17.7676 21.76 17.9824 21.5442 18.2495 21.5442L21.0353 21.5442C21.3014 21.5442 21.5172 21.7601 21.5172 22.0261C21.5172 22.2921 21.3013 22.508 21.0353 22.5079Z" fill="#3797E4"/>
<path fill-rule="evenodd" clip-rule="evenodd" d="M18.2496 24.0348C17.9824 24.0348 17.7676 23.8191 17.7676 23.553L17.7676 20.5002C17.7676 20.2341 17.9824 20.0183 18.2495 20.0183C18.5155 20.0183 18.7313 20.2341 18.7313 20.5002V23.553C18.7313 23.819 18.5155 24.0349 18.2496 24.0348Z" fill="#3797E4"/>
<path fill-rule="evenodd" clip-rule="evenodd" d="M36.6105 38.3373C36.3865 38.3373 36.1857 38.1808 36.1385 37.9529L34.3868 29.4598C34.3336 29.1988 34.5011 28.9438 34.7622 28.8906C35.0222 28.8364 35.2772 29.0041 35.3314 29.2651L37.0832 37.7581C37.1364 38.0192 36.9688 38.2742 36.7088 38.3274C36.6756 38.3344 36.6425 38.3374 36.6105 38.3373Z" fill="#3797E4"/>
<path fill-rule="evenodd" clip-rule="evenodd" d="M39.9037 38.3373C39.6799 38.3373 39.4791 38.1808 39.4319 37.9529L37.6801 29.4598C37.6259 29.1988 37.7945 28.9438 38.0545 28.8906C38.3156 28.8364 38.5705 29.0041 38.6237 29.2651L40.3756 37.7581C40.4298 38.0192 40.2621 38.2742 40.0011 38.3274C39.969 38.3344 39.9358 38.3374 39.9037 38.3373Z" fill="#3797E4"/>
<path fill-rule="evenodd" clip-rule="evenodd" d="M20.3478 10.0393H15.4507C15.1846 10.0393 14.9688 9.82353 14.9688 9.55749C14.9688 9.2914 15.1846 9.07559 15.4506 9.07559L20.3478 9.07556C20.6137 9.07556 20.8295 9.29145 20.8295 9.55749C20.8296 9.82347 20.6137 10.0394 20.3478 10.0393ZM18.3289 12.9457H15.4507C15.1846 12.9457 14.9688 12.7299 14.9688 12.4638C14.9688 12.1977 15.1846 11.9819 15.4506 11.9819L18.3289 11.9818C18.5949 11.9818 18.8107 12.1978 18.8107 12.4638C18.8108 12.7299 18.5949 12.9457 18.3289 12.9457Z" fill="#3797E4"/>
<path fill-rule="evenodd" clip-rule="evenodd" d="M6.7167 13.4084H14.9689V8.61276H6.7167V13.4084ZM15.4508 14.3722H6.23489C5.96882 14.3722 5.75293 14.1564 5.75293 13.8904L5.75299 8.13095C5.75299 7.86485 5.96876 7.64908 6.2348 7.64908L15.4508 7.64905C15.7168 7.64905 15.9325 7.86491 15.9325 8.13095L15.9326 13.8903C15.9326 14.1564 15.7167 14.3722 15.4508 14.3722Z" fill="#3797E4"/>
<path fill-rule="evenodd" clip-rule="evenodd" d="M6.2347 12.9457H3.91165C3.64558 12.9457 3.42969 12.7299 3.42969 12.4638L3.42972 9.55746C3.42972 9.2914 3.64555 9.07559 3.91156 9.07559L6.2347 9.07556C6.5007 9.07556 6.71648 9.29145 6.71648 9.55749C6.71651 9.82347 6.50065 10.0394 6.23461 10.0394L4.39346 10.0393V11.9818H6.2347C6.5007 11.9818 6.71648 12.1978 6.71648 12.4638C6.71651 12.7299 6.50065 12.9457 6.2347 12.9457Z" fill="#3797E4"/>
<path fill-rule="evenodd" clip-rule="evenodd" d="M8.64404 12.0943C8.37794 12.0943 8.16211 11.8795 8.16211 11.6125L8.16214 10.4078C8.16214 10.1417 8.37794 9.9259 8.64401 9.9259C8.91002 9.92587 9.12585 10.1417 9.12585 10.4078L9.12594 11.6124C9.12594 11.8795 8.91002 12.0944 8.64404 12.0943Z" fill="#3797E4"/>
<path fill-rule="evenodd" clip-rule="evenodd" d="M10.8423 12.0943C10.5762 12.0943 10.3604 11.8795 10.3604 11.6125L10.3604 10.4078C10.3604 10.1417 10.5762 9.9259 10.8422 9.9259C11.1083 9.92587 11.3241 10.1417 11.3241 10.4078L11.3241 11.6124C11.3241 11.8795 11.1082 12.0944 10.8423 12.0943Z" fill="#3797E4"/>
<path fill-rule="evenodd" clip-rule="evenodd" d="M13.0415 12.0943C12.7755 12.0943 12.5596 11.8795 12.5596 11.6125L12.5597 10.4078C12.5597 10.1417 12.7754 9.9259 13.0414 9.9259C13.3076 9.92587 13.5233 10.1417 13.5233 10.4078L13.5234 11.6124C13.5234 11.8795 13.3075 12.0944 13.0415 12.0943Z" fill="#3797E4"/>
</svg>
