<svg width="51" height="50" viewBox="0 0 51 50" fill="none" xmlns="http://www.w3.org/2000/svg">
<path fill-rule="evenodd" clip-rule="evenodd" d="M39.567 47.0703H11.4335C9.31936 47.0703 7.57256 45.5314 7.36979 43.4895L5.85292 28.1665C5.82694 27.9015 6.0206 27.6656 6.2856 27.6395C6.54973 27.6124 6.78552 27.8061 6.8126 28.0711L8.32961 43.3952C8.48226 44.9411 9.81721 46.1066 11.4334 46.1066H39.567C41.1831 46.1066 42.5181 44.9411 42.6707 43.3952L44.1878 28.0711C44.2149 27.8061 44.4506 27.6124 44.7146 27.6395C44.9797 27.6656 45.1734 27.9015 45.1473 28.1665L43.6306 43.4895C43.4278 45.5314 41.6809 47.0703 39.567 47.0703Z" fill="#3797E4"/>
<path fill-rule="evenodd" clip-rule="evenodd" d="M5.03286 22.6975C4.68049 22.6975 4.39337 22.9846 4.39337 23.3369L4.39343 26.998C4.39343 27.3504 4.68046 27.6365 5.03286 27.6365H45.9678C46.3202 27.6365 46.6071 27.3504 46.6071 26.998L46.6073 23.3369C46.6073 22.9846 46.32 22.6975 45.9676 22.6975H5.03286ZM45.9678 28.6002H5.03286C4.14948 28.6002 3.42969 27.8814 3.42969 26.998L3.42989 23.3369C3.42989 22.4525 4.14942 21.7338 5.03286 21.7338H45.9678C46.8512 21.7338 47.5708 22.4525 47.5708 23.3369L47.5708 26.998C47.5708 27.8814 46.8511 28.6002 45.9678 28.6002Z" fill="#3797E4"/>
<path fill-rule="evenodd" clip-rule="evenodd" d="M32.0657 47.0704C31.7996 47.0704 31.5837 46.8556 31.5837 46.5885V40.7681C31.5837 39.705 30.7184 38.8407 29.6563 38.8407H21.3435C20.2812 38.8407 19.4159 39.705 19.4159 40.7681V46.5885C19.4159 46.8556 19.2 47.0704 18.934 47.0704C18.668 47.0704 18.4521 46.8556 18.4521 46.5885L18.4523 40.7681C18.4523 39.1739 19.7491 37.877 21.3433 37.877H29.6564C31.2506 37.877 32.5474 39.1739 32.5474 40.7681L32.5475 46.5885C32.5475 46.8556 32.3316 47.0704 32.0657 47.0704Z" fill="#3797E4"/>
<path fill-rule="evenodd" clip-rule="evenodd" d="M15.8448 33.3947H12.4477C12.1808 33.3947 11.9658 33.1799 11.9658 32.9129L11.966 28.1184C11.966 27.8524 12.1806 27.6366 12.4477 27.6366C12.7138 27.6366 12.9295 27.8524 12.9295 28.1184L12.9295 32.431H15.3631V28.1184C15.3631 27.8524 15.5787 27.6366 15.8448 27.6366C16.1118 27.6366 16.3266 27.8524 16.3266 28.1184V32.9129C16.3266 33.1799 16.1118 33.3947 15.8448 33.3947Z" fill="#3797E4"/>
<path fill-rule="evenodd" clip-rule="evenodd" d="M38.5538 33.3947H35.1558C34.8889 33.3947 34.6738 33.1799 34.6738 32.9129V28.1184C34.6738 27.8524 34.8887 27.6366 35.1557 27.6366C35.4219 27.6366 35.6375 27.8524 35.6375 28.1184L35.6376 32.431H38.072V28.1184C38.072 27.8524 38.2868 27.6366 38.5537 27.6366C38.8199 27.6366 39.0356 27.8524 39.0356 28.1184L39.0358 32.9129C39.0358 33.1799 38.8198 33.3947 38.5538 33.3947Z" fill="#3797E4"/>
<path fill-rule="evenodd" clip-rule="evenodd" d="M3.91222 12.6458C3.85599 12.6458 3.79876 12.6357 3.74356 12.6147C3.55691 12.5454 3.43237 12.3677 3.43035 12.1689C3.40241 9.42132 4.2545 7.2269 5.9631 5.6438C8.31126 3.46842 12.1288 2.59406 17.3088 3.04479C17.4003 3.05284 17.4865 3.08698 17.5598 3.14217C18.7363 4.04265 18.9913 4.13902 20.2923 3.62802C20.3486 3.60593 20.4087 3.59492 20.469 3.59492H22.3805C23.0511 3.59492 23.597 4.1079 23.597 4.73831V8.14742C23.597 8.77886 23.0509 9.29187 22.3803 9.29187L20.4692 9.29184C20.3395 9.29184 20.216 9.23965 20.1257 9.14827C19.6598 8.67549 18.9682 8.14644 18.3096 8.31008C17.7386 8.45259 17.2385 9.11119 16.9384 10.117C16.8622 10.372 16.594 10.5176 16.339 10.4413C16.0841 10.365 15.9395 10.097 16.0148 9.842C16.4216 8.48073 17.1532 7.60436 18.0768 7.37546C18.6582 7.22993 19.5695 7.28616 20.6657 8.32816L22.3805 8.32813C22.525 8.32813 22.6333 8.23277 22.6333 8.14745L22.6335 4.73831C22.6335 4.65295 22.5249 4.55863 22.3803 4.55863L20.5584 4.5586C18.9351 5.179 18.3067 4.91498 17.0869 3.99345C12.2595 3.59391 8.7378 4.38694 6.61761 6.35053C5.391 7.48691 4.66711 9.00075 4.4573 10.8609C6.76836 8.45962 8.60631 7.41765 10.0539 7.67965C11.0045 7.85229 11.7273 8.56706 12.2031 9.80685C12.2985 10.0548 12.174 10.3339 11.926 10.4292C11.6772 10.5246 11.399 10.4001 11.3037 10.1522C10.9514 9.23564 10.4865 8.73771 9.88222 8.62831C9.01892 8.47268 7.34544 9.01381 4.27258 12.4831C4.18034 12.5885 4.04769 12.6458 3.91222 12.6458Z" fill="#3797E4"/>
<path fill-rule="evenodd" clip-rule="evenodd" d="M12.2352 12.2171H15.9948V10.4613H12.2352V12.2171ZM16.4766 13.1808H11.7534C11.4874 13.1808 11.2715 12.9649 11.2715 12.6989L11.2717 9.97943C11.2717 9.71339 11.4873 9.49759 11.7533 9.49759L16.4766 9.49756C16.7427 9.49756 16.9584 9.71342 16.9584 9.97946V12.6989C16.9584 12.9649 16.7426 13.1808 16.4766 13.1808Z" fill="#3797E4"/>
<path fill-rule="evenodd" clip-rule="evenodd" d="M12.1579 22.4797C11.8918 22.4797 11.6758 22.2649 11.6758 21.9988L11.6758 12.699C11.6758 12.433 11.8916 12.2172 12.1577 12.2172C12.4237 12.2172 12.6395 12.433 12.6395 12.699L12.6396 21.9988C12.6396 22.2649 12.4237 22.4797 12.1579 22.4797ZM16.0478 22.4797C15.7817 22.4797 15.5658 22.2649 15.5658 21.9988V12.699C15.5658 12.433 15.7816 12.2172 16.0476 12.2172C16.3139 12.2172 16.5295 12.433 16.5295 12.699L16.5296 21.9988C16.5296 22.2649 16.3137 22.4797 16.0478 22.4797Z" fill="#3797E4"/>
<path fill-rule="evenodd" clip-rule="evenodd" d="M20.6844 22.6974C20.6431 22.6974 20.6009 22.6924 20.5597 22.6814C20.3029 22.6121 20.1502 22.3481 20.2184 22.0911L21.2224 18.3467C21.2556 18.2242 21.3357 18.1188 21.4461 18.0546C21.5576 17.9903 21.6891 17.9733 21.8115 18.0063L27.4564 19.5182C27.7135 19.5875 27.8659 19.8515 27.7966 20.1085L27.1985 22.3401C27.1303 22.5971 26.866 22.7497 26.6091 22.6814C26.3512 22.6121 26.1995 22.3481 26.2677 22.0911L26.7406 20.3253L22.0285 19.0624L21.1501 22.3401C21.0918 22.5559 20.897 22.6974 20.6844 22.6974Z" fill="#3797E4"/>
<path fill-rule="evenodd" clip-rule="evenodd" d="M25.6315 20.0101C25.5904 20.0101 25.5481 20.0051 25.5059 19.9941C25.2491 19.9248 25.0963 19.6608 25.1656 19.4038L27.5449 10.5236L27.2176 9.83593L26.5913 10.2676L24.211 19.1478C24.1428 19.4048 23.8777 19.5574 23.6207 19.4891C23.3638 19.4199 23.2111 19.1558 23.2804 18.8989L25.7058 9.84697C25.7359 9.73552 25.804 9.63918 25.8984 9.57393L27.1374 8.72264C27.2528 8.64234 27.3982 8.61725 27.5348 8.65439C27.6705 8.69052 27.7837 8.78487 27.8449 8.91238L28.4915 10.2686C28.5407 10.373 28.5516 10.4905 28.5215 10.6009L26.0964 19.6527C26.039 19.8685 25.8442 20.0102 25.6315 20.0101Z" fill="#3797E4"/>
<path fill-rule="evenodd" clip-rule="evenodd" d="M35.2767 13.4187H30.3609C30.0949 13.4187 29.8789 13.2029 29.8789 12.9369V3.41217C29.8789 3.14616 30.0947 2.93033 30.3608 2.93033L37.4392 2.9303C37.4751 2.9303 37.5103 2.93433 37.5455 2.94241L44.162 4.44719C44.197 4.45518 44.2312 4.46726 44.2643 4.48332L47.298 5.94592C47.4647 6.02626 47.5711 6.19489 47.5711 6.37964L47.5711 9.96946C47.5711 10.1692 47.4476 10.3489 47.2608 10.4202L40.9005 12.8465C40.6516 12.9409 40.3733 12.8164 40.278 12.5675C40.1838 12.3185 40.3081 12.0404 40.556 11.9461L46.6075 9.63817V6.68178L43.8951 5.37475L37.3848 3.89404H30.8427V12.455H35.2767C35.5428 12.455 35.7586 12.6708 35.7586 12.9369C35.7588 13.2029 35.5427 13.4187 35.2767 13.4187Z" fill="#3797E4"/>
<path fill-rule="evenodd" clip-rule="evenodd" d="M35.7588 17.0688H40.2471V10.5989C40.2471 10.0377 39.7901 9.582 39.229 9.582L36.7757 9.58197C36.2144 9.58197 35.7586 10.0377 35.7586 10.5989L35.7588 17.0688ZM40.728 18.0325H35.2768C35.0098 18.0325 34.7949 17.8167 34.7949 17.5507L34.7951 10.5989C34.7951 9.50671 35.6833 8.61829 36.7755 8.61829H39.2291C40.3212 8.61829 41.2097 9.50671 41.2097 10.5989L41.2098 17.5507C41.2098 17.8167 40.9948 18.0325 40.728 18.0325Z" fill="#3797E4"/>
<path fill-rule="evenodd" clip-rule="evenodd" d="M35.9577 22.6975C35.6916 22.6975 35.4756 22.4817 35.4756 22.2157L35.4756 17.5507C35.4756 17.2846 35.6914 17.0688 35.9575 17.0688C36.2246 17.0688 36.4393 17.2847 36.4393 17.5507L36.4394 22.2157C36.4394 22.4817 36.2245 22.6975 35.9577 22.6975ZM40.0473 22.6975C39.7803 22.6975 39.5654 22.4817 39.5654 22.2157L39.5655 17.5507C39.5655 17.2846 39.7802 17.0688 40.0472 17.0688C40.3134 17.0688 40.5291 17.2847 40.5291 17.5507L40.5293 22.2157C40.5293 22.4817 40.3132 22.6975 40.0473 22.6975Z" fill="#3797E4"/>
<path fill-rule="evenodd" clip-rule="evenodd" d="M44.0552 11.6088C43.7882 11.6088 43.5732 11.393 43.5732 11.127V4.91705C43.5732 4.65102 43.7881 4.43518 44.0551 4.43518C44.3213 4.43518 44.537 4.65104 44.537 4.91705L44.537 11.127C44.537 11.393 44.3211 11.6088 44.0552 11.6088Z" fill="#3797E4"/>
<path fill-rule="evenodd" clip-rule="evenodd" d="M32.9019 13.4188C32.6358 13.4188 32.4209 13.203 32.4209 12.937L32.4211 3.41226C32.4211 3.14625 32.6357 2.93042 32.9018 2.93042C33.1689 2.93039 33.3836 3.14625 33.3836 3.41229L33.3837 12.937C33.3837 13.203 33.1688 13.4188 32.9019 13.4188Z" fill="#3797E4"/>
<path fill-rule="evenodd" clip-rule="evenodd" d="M36.927 6.21997H35.6099C35.3439 6.21997 35.1279 6.00416 35.1279 5.73813C35.1279 5.47209 35.3438 5.25623 35.6098 5.25623H36.927C37.1931 5.25623 37.4087 5.47212 37.4087 5.73813C37.4088 6.00416 37.1929 6.21997 36.927 6.21997Z" fill="#3797E4"/>
<path fill-rule="evenodd" clip-rule="evenodd" d="M42.1974 7.79004H40.8804C40.6134 7.79004 40.3984 7.5742 40.3984 7.30819C40.3986 7.04115 40.6133 6.82632 40.8803 6.82632L42.1974 6.82629C42.4635 6.82629 42.6792 7.04115 42.6792 7.30819C42.6792 7.57417 42.4634 7.79004 42.1974 7.79004Z" fill="#3797E4"/>
<path fill-rule="evenodd" clip-rule="evenodd" d="M21.5848 34.1116H29.4159V32.3659H21.5848V34.1116ZM29.898 35.0753H21.103C20.837 35.0753 20.6211 34.8595 20.6211 34.5935L20.6213 31.884C20.6213 31.618 20.8369 31.4022 21.1029 31.4022H29.898C30.164 31.4022 30.3797 31.618 30.3797 31.884L30.3797 34.5935C30.3797 34.8595 30.1639 35.0754 29.898 35.0753Z" fill="#3797E4"/>
</svg>
