<svg width="51" height="51" viewBox="0 0 51 51" fill="none" xmlns="http://www.w3.org/2000/svg">
<path fill-rule="evenodd" clip-rule="evenodd" d="M20.5586 23.1107C20.2928 23.1107 20.0767 22.895 20.0767 22.6289L20.0768 18.0574C20.0768 17.7913 20.2926 17.5757 20.5586 17.5757C20.8247 17.5757 21.0404 17.7914 21.0404 18.0575L21.0405 22.6287C21.0405 22.895 20.8246 23.1107 20.5586 23.1107ZM20.5586 35.3565C20.2928 35.3565 20.0767 35.141 20.0767 34.8749L20.0768 27.1022C20.0768 26.8359 20.2926 26.6204 20.5586 26.6204C20.8247 26.6203 21.0404 26.8361 21.0404 27.1022L21.0405 34.8748C21.0405 35.1409 20.8246 35.3567 20.5586 35.3565ZM12.2351 43.9585C12.1078 43.9585 11.9791 43.9452 11.8466 43.9186C9.78802 43.5043 8.46374 42.332 7.9067 40.431C5.50556 40.8103 4.55799 40.2168 3.52908 38.8798C3.46498 38.7954 3.42969 38.6923 3.42969 38.5861L3.42972 14.9304C3.42972 14.8243 3.46487 14.7211 3.52908 14.6369C4.55811 13.2998 5.5066 12.7063 7.9067 13.0857C8.4638 11.1846 9.78781 10.0124 11.8466 9.59819C12.1116 9.54468 12.3585 9.54479 12.6235 9.59825C14.6825 10.0122 16.0063 11.1846 16.5624 13.0857C18.9636 12.7062 19.9131 13.2999 20.941 14.6369C21.0053 14.7211 21.0404 14.8243 21.0404 14.9306L21.0405 15.7853C21.0405 16.0514 20.8246 16.2672 20.5586 16.2672C20.2928 16.2671 20.0767 16.0515 20.0767 15.7855L20.0768 15.096C19.2597 14.0645 18.5891 13.6698 16.2974 14.1106C16.0406 14.16 15.7915 13.9957 15.7353 13.7403C15.347 11.9573 14.2657 10.9115 12.4328 10.543C12.2964 10.5152 12.1738 10.5153 12.0373 10.5429C10.2045 10.9113 9.12327 11.9574 8.73382 13.7403C8.6786 13.9956 8.42966 14.1602 8.17268 14.1106C5.88117 13.6695 5.21049 14.0646 4.39337 15.0963L4.39346 38.4203C5.21149 39.4522 5.881 39.8469 8.17268 39.406C8.42972 39.3562 8.6786 39.5209 8.73382 39.7763C9.12333 41.5592 10.2044 42.6051 12.0373 42.9738C12.174 43.0013 12.2963 43.0013 12.4328 42.9738C14.2658 42.6051 15.3468 41.5593 15.7353 39.7764C15.7917 39.5209 16.0405 39.3564 16.2974 39.406C18.5891 39.8468 19.2596 39.4521 20.0767 38.4205L20.0768 37.4134C20.0768 37.1474 20.2926 36.9317 20.5586 36.9317C20.8247 36.9317 21.0404 37.1475 21.0404 37.4136L21.0405 38.5861C21.0405 38.6922 21.0053 38.7956 20.941 38.8797C19.9133 40.2167 18.9635 40.8103 16.5624 40.431C16.0065 42.3319 14.6824 43.5043 12.6235 43.9185C12.491 43.9452 12.3625 43.9585 12.2351 43.9585Z" fill="#3797E4"/>
<path fill-rule="evenodd" clip-rule="evenodd" d="M6.64923 16.0566C6.37501 16.0566 6.15116 16.2799 6.15116 16.5543C6.15118 16.8288 6.37501 17.0521 6.64906 17.0521C6.92429 17.0519 7.14693 16.8289 7.14693 16.5543C7.14699 16.2797 6.92409 16.0566 6.64923 16.0566ZM6.64923 18.0156C5.84316 18.0156 5.1875 17.3602 5.1875 16.5543C5.1877 15.7483 5.84302 15.0929 6.64906 15.0929C7.4553 15.0929 8.11059 15.7485 8.11059 16.5543C8.11073 17.36 7.45513 18.0158 6.64923 18.0156Z" fill="#3797E4"/>
<path fill-rule="evenodd" clip-rule="evenodd" d="M6.64923 36.4647C6.37501 36.4647 6.15116 36.688 6.15116 36.9625C6.15118 37.2369 6.37501 37.4602 6.64906 37.4602C6.92429 37.4602 7.14693 37.237 7.14693 36.9625C7.14699 36.6878 6.92409 36.4648 6.64923 36.4647ZM6.64923 38.4239C5.84316 38.4239 5.1875 37.7684 5.1875 36.9625C5.1877 36.1566 5.84302 35.5011 6.64906 35.5011C7.4553 35.5009 8.11059 36.1567 8.11059 36.9625C8.11073 37.7683 7.45513 38.4239 6.64923 38.4239Z" fill="#3797E4"/>
<path fill-rule="evenodd" clip-rule="evenodd" d="M12.2353 23.8379C10.6252 23.8379 9.31522 25.148 9.31522 26.7583C9.31528 28.3686 10.6251 29.6788 12.2353 29.6788C13.4349 29.6788 14.4988 28.9593 14.9465 27.8459C15.0018 27.7084 15.1162 27.6043 15.2587 27.5629C17.7814 26.8253 20.3901 26.493 23.01 26.5743C26.4873 26.6824 29.8429 27.5003 32.9828 29.0047C33.8522 29.4204 34.898 29.0513 35.3136 28.1818C35.7292 27.312 35.3598 26.2665 34.4905 25.8507C30.9082 24.1336 27.0765 23.2006 23.1024 23.0769C20.0318 22.981 16.9882 23.3797 14.0541 24.2609C13.9277 24.2987 13.7911 24.2834 13.6767 24.2181C13.2402 23.9694 12.7412 23.838 12.2353 23.8379ZM12.2353 30.6423C10.0933 30.6423 8.35156 28.9 8.35156 26.7583C8.35156 24.6167 10.0932 22.8743 12.2353 22.8743C12.8377 22.8742 13.4318 23.0146 13.9678 23.2814C16.9433 22.4096 20.0247 22.017 23.1325 22.1137C27.2411 22.2416 31.202 23.2065 34.9071 24.9814C36.2553 25.6263 36.8284 27.2487 36.1829 28.5976C35.5375 29.9464 33.9153 30.5191 32.5662 29.874C29.5478 28.4276 26.3226 27.6416 22.9799 27.5376C20.5369 27.4613 18.1025 27.7602 15.7435 28.4259C15.1021 29.7799 13.75 30.6423 12.2353 30.6423Z" fill="#3797E4"/>
<path fill-rule="evenodd" clip-rule="evenodd" d="M12.2359 32.7172C11.468 32.7172 10.8426 33.3423 10.8426 34.1106C10.8426 34.6485 11.1578 35.1439 11.6446 35.3726C11.8142 35.4519 11.9216 35.6221 11.9216 35.8089L11.9218 38.3561C11.9218 38.5262 12.0652 38.6702 12.2358 38.6702C12.4067 38.6701 12.55 38.5264 12.55 38.3562L12.5501 35.8087C12.5501 35.6219 12.6574 35.4521 12.8271 35.3726C13.3139 35.1438 13.6291 34.6485 13.6291 34.1106C13.6292 33.3421 13.0037 32.7172 12.2359 32.7172ZM12.2359 39.6338C11.5313 39.6338 10.958 39.0607 10.958 38.3562L10.958 36.091C10.2936 35.661 9.87891 34.9139 9.87891 34.1106C9.87891 32.8107 10.9359 31.7535 12.2358 31.7535C13.5359 31.7535 14.5928 32.8109 14.5928 34.1106C14.593 34.9137 14.1782 35.6609 13.5137 36.0912L13.5138 38.3561C13.5138 39.0606 12.9405 39.6339 12.2359 39.6338Z" fill="#3797E4"/>
<path fill-rule="evenodd" clip-rule="evenodd" d="M14.5685 18.0468H9.90277C9.6367 18.0468 9.4209 17.8311 9.4209 17.5651C9.42104 17.2989 9.6367 17.0833 9.90271 17.0833H14.5685C14.8345 17.0833 15.0492 17.299 15.0492 17.5651C15.0493 17.8311 14.8344 18.0469 14.5685 18.0468Z" fill="#3797E4"/>
<path fill-rule="evenodd" clip-rule="evenodd" d="M14.5685 20.4023H9.90277C9.6367 20.4023 9.4209 20.1867 9.4209 19.9206C9.42104 19.6544 9.6367 19.4387 9.90271 19.4387L14.5685 19.4385C14.8345 19.4385 15.0492 19.6544 15.0492 19.9206C15.0493 20.1866 14.8344 20.4024 14.5685 20.4023Z" fill="#3797E4"/>
<path fill-rule="evenodd" clip-rule="evenodd" d="M41.331 16.0868C43.8656 16.0669 45.6362 15.0147 46.3197 13.1236C47.0266 11.1638 46.3599 8.67329 44.7669 7.32999C43.2302 6.03354 41.1703 6.00805 38.9659 7.25781C34.9066 9.55981 32.6711 11.3221 33.2593 13.5182C33.8475 15.7142 36.6622 16.1222 41.331 16.0868ZM40.6885 17.053C36.6723 17.053 33.1148 16.7002 32.3288 13.7676C31.5007 10.6778 34.771 8.52877 38.4901 6.41962C41.0338 4.97721 43.5472 5.04073 45.3882 6.59341C47.3046 8.20944 48.0774 11.0934 47.2262 13.4509C46.4082 15.7155 44.2619 17.0277 41.3389 17.0504C41.1212 17.0519 40.9042 17.0531 40.6885 17.053Z" fill="#3797E4"/>
<path fill-rule="evenodd" clip-rule="evenodd" d="M30.89 16.7673C30.677 16.7673 30.4823 16.6254 30.424 16.4101L29.358 12.4313C29.3251 12.3078 29.3429 12.1765 29.4062 12.0658C29.4705 11.955 29.5758 11.8743 29.6993 11.8412L32.9006 10.9834C33.1576 10.9145 33.4214 11.0672 33.4907 11.3242C33.5589 11.5812 33.4063 11.8454 33.1494 11.9143L30.4141 12.6473L31.2313 15.6952L33.9666 14.962C34.2236 14.8934 34.4874 15.046 34.5567 15.303C34.625 15.5599 34.4724 15.8242 34.2154 15.8931L31.0145 16.7508C30.9731 16.7619 30.9309 16.7674 30.89 16.7673Z" fill="#3797E4"/>
<path fill-rule="evenodd" clip-rule="evenodd" d="M18.0526 19.1939C17.7834 19.1939 17.5234 19.0786 17.3016 18.8566C16.8389 18.3946 16.6009 17.5055 16.7705 16.8745C16.877 16.4764 17.1319 16.2049 17.4883 16.1094L29.9486 12.7705C30.2054 12.7019 30.4694 12.8543 30.5387 13.1114C30.607 13.3684 30.4544 13.6326 30.1974 13.7016L17.7373 17.0401C17.6971 17.0758 17.6338 17.3209 17.7292 17.6795C17.8256 18.0382 18.0032 18.2186 18.0574 18.2299L30.5166 14.8904C30.7737 14.8218 31.0376 14.9743 31.1058 15.2313C31.1753 15.4883 31.0225 15.7525 30.7656 15.8214L18.3056 19.16C18.2211 19.1826 18.1357 19.194 18.0526 19.1939Z" fill="#3797E4"/>
<path fill-rule="evenodd" clip-rule="evenodd" d="M38.739 44.1294L42.8295 45.2253C44.8068 45.7554 46.1117 44.4909 46.4862 43.0915C46.8617 41.692 46.3637 39.9446 44.3863 39.4147L40.2959 38.3186L40.0479 39.2455C39.9788 39.5026 39.7146 39.6551 39.4576 39.5863L36.8156 38.8783C36.6923 38.8451 36.5867 38.7645 36.5235 38.6539C36.4592 38.5431 36.4422 38.4117 36.4753 38.2882L36.7233 37.3614L34.7389 36.8296L33.1818 42.6404L35.1665 43.172L35.4145 42.2454C35.4474 42.122 35.5287 42.0168 35.6391 41.953C35.7496 41.8887 35.882 41.8718 36.0045 41.9047L38.6467 42.6126C38.7702 42.6456 38.8754 42.7265 38.9396 42.8372C39.004 42.9478 39.0209 43.0793 38.9878 43.2028L38.739 44.1294ZM43.7248 46.313C43.3625 46.313 42.9799 46.2634 42.5794 46.1563L38.0242 44.9355C37.9009 44.9025 37.7953 44.8218 37.732 44.7111C37.668 44.6003 37.6508 44.469 37.6839 44.3455L37.9318 43.4187L36.2214 42.9602L35.9725 43.8869C35.9393 44.0104 35.859 44.1157 35.7485 44.1796C35.6371 44.2435 35.5056 44.2607 35.3822 44.2278L32.4672 43.4465C32.3437 43.4135 32.2383 43.3328 32.175 43.2221C32.1109 43.1113 32.0937 42.98 32.1268 42.8565L33.9328 36.1149C34.0019 35.8577 34.2659 35.7055 34.5229 35.7742L37.4381 36.5552C37.5614 36.5883 37.6668 36.6692 37.7311 36.7798C37.7954 36.8906 37.8123 37.0221 37.7792 37.1455L37.5305 38.0722L39.2418 38.5305L39.4898 37.6038C39.5591 37.3468 39.823 37.1941 40.08 37.2633L44.6352 38.4837C47.1368 39.1541 47.9277 41.4346 47.4177 43.3409C46.9882 44.9423 45.6309 46.313 43.7248 46.313Z" fill="#3797E4"/>
<path fill-rule="evenodd" clip-rule="evenodd" d="M33.1775 41.2768C33.1362 41.2768 33.094 41.2715 33.0529 41.2603L17.0876 36.9823C16.972 36.9512 16.8716 36.8781 16.8064 36.777L15.8246 35.2444C15.7524 35.1303 15.7303 34.9909 15.7654 34.86C15.8007 34.729 15.8889 34.6191 16.0093 34.5568L17.6256 33.7203C17.732 33.665 17.8553 33.6518 17.9718 33.6829L33.9373 37.9605C34.1943 38.0297 34.3468 38.2939 34.2775 38.5509C34.2084 38.8079 33.9442 38.9604 33.6872 38.8917L17.9025 34.6619L16.9219 35.1696L17.5172 36.0999L33.302 40.3293C33.5588 40.3982 33.7114 40.6625 33.6431 40.9195C33.585 41.1347 33.3901 41.2768 33.1775 41.2768Z" fill="#3797E4"/>
<path fill-rule="evenodd" clip-rule="evenodd" d="M43.8886 41.2052C43.8475 41.2052 43.8052 41.1999 43.763 41.1887L41.3943 40.5538C41.1372 40.4849 40.9845 40.2209 41.0538 39.9638C41.1232 39.7066 41.387 39.5542 41.644 39.6231L44.013 40.2577C44.2701 40.3266 44.4226 40.5909 44.3533 40.848C44.2963 41.0631 44.1013 41.2052 43.8886 41.2052Z" fill="#3797E4"/>
<path fill-rule="evenodd" clip-rule="evenodd" d="M43.4707 42.7652C43.4296 42.7652 43.3872 42.76 43.3461 42.7488L40.9773 42.1141C40.7202 42.045 40.5676 41.781 40.6368 41.524C40.7051 41.2669 40.9701 41.1147 41.2271 41.1832L43.5952 41.8178C43.8522 41.8867 44.0046 42.151 43.9363 42.408C43.8781 42.6232 43.6834 42.7653 43.4707 42.7652Z" fill="#3797E4"/>
<path fill-rule="evenodd" clip-rule="evenodd" d="M43.0533 44.3252C43.0122 44.3252 42.9698 44.32 42.9277 44.3087L40.5598 43.6739C40.3028 43.605 40.1502 43.341 40.2184 43.0839C40.2877 42.8269 40.5517 42.6742 40.8087 42.7433L43.1777 43.378C43.4348 43.4469 43.5872 43.7111 43.5179 43.9681C43.4607 44.1834 43.266 44.3253 43.0533 44.3252Z" fill="#3797E4"/>
</svg>
