<svg width="20" height="21" viewBox="0 0 20 21" fill="none" xmlns="http://www.w3.org/2000/svg">
<g clip-path="url(#clip0_102_247)">
<path d="M14.5406 10.7736C16.0193 11.2992 17.6889 10.9398 18.8076 9.821C21.1563 7.47232 19.2578 4.49688 19.2424 4.41466L16.7361 6.92091L15.9075 6.09231L18.4138 3.58607C18.252 3.5558 15.3951 1.63323 13.0075 4.02081C11.8887 5.13955 11.5292 6.80911 12.0548 8.28783L10.9375 9.40512L7.45581 5.89713L8.28596 5.06697L7.45737 4.23838C7.50338 4.20705 8.36045 3.153 9.94319 3.153H11.3577L10.3575 2.16684C8.75836 0.567778 6.15634 0.567739 4.55728 2.16684L0 6.7242L3.31441 10.0386L4.97003 8.38298L8.4517 11.891L7.33128 13.0113C5.85257 12.4857 4.183 12.8453 3.06426 13.964C1.8371 15.1912 1.51497 17.0672 2.26274 18.6324L2.61987 19.38L5.13576 16.8641L5.96436 17.6927L3.44917 20.2079C3.73919 20.3224 6.52214 22.1066 8.86445 19.7642C9.98322 18.6455 10.3427 16.9759 9.8171 15.4972L10.9359 14.3784L17.5142 20.9585L20 18.4726L13.4217 11.8926L14.5406 10.7736ZM1.65722 6.7242L5.38591 2.99551C6.18692 2.1945 7.34015 1.95513 8.3517 2.27769C7.73833 2.50409 7.17598 2.86267 6.69987 3.33878L5.80019 4.23846L6.62878 5.06705L3.31437 8.38146L1.65722 6.7242ZM5.79866 7.55435L6.62725 6.72576L10.1089 10.2338L9.28033 11.0623L5.79866 7.55435ZM8.03586 18.9356C7.37066 19.6008 6.4423 19.8895 5.55098 19.7633L7.62158 17.6927L5.13576 15.2069L3.06387 17.2788C2.93693 16.3827 3.23023 15.4552 3.89286 14.7926C5.52582 13.1597 7.55858 14.403 7.59123 14.4086L13.4521 8.54774C13.4491 8.52997 12.2116 6.47382 13.8361 4.84937C14.4924 4.19307 15.4157 3.9039 16.3111 4.03152L14.2504 6.09224L16.7362 8.57805L18.7969 6.51733C18.9246 7.41276 18.6354 8.33607 17.979 8.99237C16.346 10.6253 14.3133 9.38192 14.2807 9.37633L8.41982 15.2373C8.42287 15.255 9.66031 17.3112 8.03586 18.9356ZM18.3429 18.4725L17.5143 19.3011L11.7645 13.5498L12.5931 12.7212L18.3429 18.4725Z" fill="#3797E4"/>
</g>
<defs>
<clipPath id="clip0_102_247">
<rect width="20" height="20" fill="white" transform="translate(0 0.966797)"/>
</clipPath>
</defs>
</svg>
