<svg width="51" height="50" viewBox="0 0 51 50" fill="none" xmlns="http://www.w3.org/2000/svg">
<path d="M24.3147 42.0578C24.2377 41.9712 24.1401 41.87 24.0236 41.7576C23.9646 41.7024 23.9023 41.6426 23.8329 41.5837C23.7985 41.5538 23.7632 41.5231 23.7263 41.4926C23.6889 41.4627 23.6506 41.4321 23.6115 41.4008C23.453 41.2781 23.2738 41.1529 23.0741 41.0359C22.8744 40.919 22.6543 40.8104 22.4209 40.7153C22.363 40.6908 22.3027 40.6683 22.2426 40.6453C22.2132 40.6346 22.1837 40.624 22.1541 40.6133L22.1097 40.5973L22.062 40.5812C21.9375 40.5376 21.8099 40.5029 21.6811 40.4702C21.4235 40.4052 21.1594 40.36 20.8953 40.323C20.6308 40.2883 20.3661 40.2629 20.1054 40.2478C20.0402 40.2443 19.9754 40.2395 19.9107 40.2372C19.8462 40.2349 19.7819 40.2326 19.7181 40.2304C19.6542 40.2289 19.5908 40.2274 19.5278 40.2259C19.4648 40.2244 19.4019 40.2251 19.3397 40.2247C19.0935 40.2241 18.8513 40.2287 18.6231 40.2449C18.3949 40.2611 18.1803 40.2862 17.9835 40.3158C17.5898 40.3755 17.268 40.454 17.0457 40.5169C16.9901 40.5322 16.9406 40.5469 16.8977 40.5604C16.8548 40.5736 16.8184 40.5849 16.7891 40.5946C16.7305 40.6141 16.6992 40.6246 16.6992 40.6246C16.6992 40.6246 16.732 40.6213 16.7935 40.615C16.855 40.6078 16.9449 40.5995 17.0592 40.5883C17.1734 40.5773 17.312 40.5649 17.4707 40.5536C17.6295 40.5421 17.8083 40.5314 18.0032 40.5247C18.1979 40.5178 18.4087 40.5146 18.6309 40.5176C18.7422 40.5203 18.8558 40.5216 18.9727 40.5277C19.0312 40.5306 19.0903 40.5335 19.1499 40.5365C19.2103 40.5393 19.2713 40.5423 19.3316 40.5462C19.453 40.5538 19.5764 40.5615 19.7014 40.5693C19.8261 40.5792 19.9525 40.5891 20.0798 40.5992C20.3338 40.6219 20.5913 40.6478 20.8465 40.6833C21.1018 40.7172 21.3553 40.76 21.6002 40.8137C21.661 40.8282 21.7222 40.841 21.7816 40.8575C21.8116 40.8651 21.8414 40.8727 21.8712 40.8803C21.9005 40.8887 21.9298 40.8971 21.9589 40.9055L22.0015 40.9178L22.0466 40.9319C22.0765 40.9414 22.1063 40.9508 22.1361 40.9602C22.1933 40.98 22.2506 40.9968 22.307 41.0172C22.5335 41.0959 22.7476 41.1828 22.9456 41.2778C23.1439 41.3723 23.3262 41.474 23.4916 41.5742C23.5328 41.5997 23.5731 41.6246 23.6126 41.649C23.6513 41.6745 23.6892 41.6994 23.7262 41.7237C23.8012 41.7711 23.8685 41.8215 23.9341 41.8661C24.0632 41.9582 24.1748 42.0411 24.2651 42.1116C24.3567 42.1807 24.4268 42.2377 24.4751 42.2761C24.5239 42.3142 24.5499 42.3345 24.5499 42.3345C24.5499 42.3345 24.529 42.309 24.4898 42.2612C24.4496 42.2141 24.3935 42.1423 24.3147 42.0578Z" fill="white"/>
<path d="M39.8196 41.6025L39.8196 41.6029C39.8061 41.8429 39.7955 42.0829 39.7836 42.3229L39.7535 43.0429C39.7341 43.523 39.7195 44.003 39.7023 44.483C39.6944 44.7428 39.6868 45.0026 39.6797 45.2624C39.7731 45.1947 39.8663 45.1267 39.9588 45.0578C39.9534 44.8662 39.9479 44.6746 39.942 44.483C39.9248 44.003 39.9102 43.523 39.8908 43.0429L39.8607 42.3229C39.8488 42.0829 39.8382 41.8429 39.8247 41.6029L39.8293 41.5566L39.8196 41.6025Z" fill="white"/>
<path d="M36.6287 39.6835C36.6287 39.376 36.5658 39.0717 36.4439 38.7894L36.4418 38.7844C36.0997 37.9934 35.7244 37.6911 35.7244 37.6911C36.5184 38.0881 36.8933 38.1322 36.8933 38.1322C35.1289 37.3603 34.2025 35.8384 34.6216 34.6033C35.0406 33.3682 35.6803 32.4418 36.386 31.4713C37.0918 30.5009 38.0182 30.4127 38.0182 30.4127C38.0182 30.8225 37.9626 31.2304 37.8531 31.6253L37.2788 33.6959C37.2159 33.9228 37.2506 34.1657 37.3745 34.3659L37.417 34.4346C37.4521 34.4912 37.4935 34.5439 37.5421 34.5894C38.3361 35.3332 39.6277 35.3364 40.2554 35.286C40.4815 35.2679 40.6905 35.1592 40.8358 34.985C40.9121 34.8933 40.9682 34.7864 41.0004 34.6715L41.9 31.4493C43.1131 33.2799 43.1793 36.2354 42.0103 37.5367C40.9026 38.7699 39.0821 38.7354 38.8944 38.7284C40.7356 38.8131 41.5251 38.3307 41.5251 38.3307C40.9783 39.3728 40.6094 40.4952 40.43 41.6517V44.701C43.62 42.2054 46.1892 38.9526 47.8653 35.2122L25.0331 11.6387L2.21094 35.2019C5.14836 41.7653 10.8331 46.8302 17.8022 48.9351C17.815 48.1122 17.8212 47.3638 17.8184 46.7221H21.942C21.9115 47.2763 21.8513 48.4146 21.7912 49.79C22.8548 49.9281 23.9392 49.9995 25.0404 49.9995C29.2227 49.9995 33.1647 48.9717 36.6287 47.1561L36.6287 39.6835ZM18.3087 25.0002H24.3237V30.9135H18.3087V25.0002ZM18.3087 31.8979H24.3237V37.8112H18.3087V31.8979ZM27.1274 45.8975C26.2666 45.0367 24.751 43.3756 23.49 42.9876C22.229 42.5996 21.9623 43.9576 21.9623 46.3582H17.8156V44.9671C17.8156 44.3362 17.565 43.7312 17.1189 43.2851C16.8702 43.0364 16.5703 42.8439 16.2385 42.7275C15.6226 42.5114 14.6157 42.3813 13.4022 43.0603H11.2925C11.1585 42.6721 11.0136 42.1122 10.9934 41.4275C10.9686 40.5827 11.1443 39.9015 11.2925 39.4714C11.9149 39.4714 12.5373 39.4714 13.1597 39.4714C13.1597 39.4714 13.8387 39.9564 14.4449 40.1504C14.8996 40.2959 15.7771 40.2368 16.5967 40.0549C17.3963 39.8774 18.2126 39.7858 19.0316 39.7972C20.0335 39.8112 21.2905 39.8983 22.2048 40.1988C23.975 40.7808 25.5755 41.9448 28.3156 46.7947C28.3156 46.7948 27.9883 46.7584 27.1274 45.8975ZM31.3231 37.8112H25.3081V31.8979H31.3231V37.8112ZM31.3231 30.9135H25.3081V25.0002H31.3231V30.9135Z" fill="white"/>
<path d="M35.1911 34.7988C35.1911 34.7988 35.1831 34.8112 35.1692 34.8354C35.1624 34.8476 35.1532 34.8625 35.144 34.8807C35.135 34.899 35.1252 34.9203 35.1144 34.9446C35.1036 34.9688 35.095 34.9966 35.084 35.027C35.0734 35.0575 35.0662 35.0913 35.0563 35.1276C35.0419 35.2005 35.028 35.2853 35.0275 35.3782C35.0263 35.4711 35.0324 35.5729 35.0528 35.6778C35.0728 35.7827 35.1025 35.8921 35.145 36.0003C35.1665 36.0545 35.189 36.1079 35.2174 36.1633C35.231 36.1909 35.245 36.2197 35.2582 36.2431L35.279 36.2799L35.2895 36.2983L35.2947 36.3076L35.3026 36.3203C35.3651 36.424 35.4366 36.524 35.5138 36.6186C35.5328 36.6426 35.5538 36.6647 35.5739 36.6876C35.5943 36.7101 35.6138 36.7336 35.6351 36.7551C35.677 36.7989 35.7197 36.8415 35.764 36.8815C35.7861 36.9015 35.8073 36.9223 35.8298 36.9414C35.8525 36.9601 35.8752 36.9788 35.8977 36.9973C35.942 37.0352 35.9889 37.0684 36.0341 37.102C36.0804 37.1343 36.1258 37.1659 36.1715 37.1949C36.2181 37.2226 36.2623 37.2515 36.3076 37.276C36.3531 37.2999 36.3961 37.325 36.4397 37.3457C36.4835 37.3661 36.5249 37.387 36.566 37.4046C36.6074 37.4215 36.6465 37.4383 36.6843 37.453C36.7225 37.4669 36.7586 37.4801 36.7929 37.4915C36.8269 37.5032 36.8594 37.5134 36.8898 37.5217C36.92 37.5302 36.9475 37.5382 36.9726 37.5446C37.0225 37.5571 37.0629 37.5639 37.0898 37.5699C37.117 37.5754 37.1319 37.5776 37.1319 37.5776C37.1319 37.5776 37.1204 37.5679 37.0985 37.551C37.0765 37.5343 37.0444 37.5089 37.0031 37.4786C36.9629 37.4464 36.9134 37.4114 36.8582 37.3678C36.8306 37.3459 36.8006 37.3243 36.7698 37.3002C36.7394 37.2754 36.7069 37.2507 36.6735 37.2244C36.607 37.1712 36.5359 37.1135 36.4624 37.0515C36.426 37.0202 36.3887 36.988 36.3506 36.9552C36.3134 36.9216 36.2755 36.8873 36.2369 36.8525C36.2181 36.8346 36.1996 36.8162 36.1803 36.7985C36.1608 36.7809 36.1416 36.7627 36.1231 36.7438C36.0854 36.7064 36.0475 36.6687 36.0103 36.6297C35.9357 36.5521 35.863 36.4711 35.7944 36.3873L35.743 36.3245C35.7257 36.3037 35.7105 36.2816 35.6941 36.2602C35.6613 36.2176 35.631 36.1738 35.6001 36.1306L35.5973 36.1265L35.5958 36.1245C35.5965 36.1255 35.5934 36.1207 35.5971 36.1266L35.5964 36.1255L35.5906 36.1166L35.5792 36.0988L35.5563 36.0632C35.5396 36.0391 35.5274 36.0183 35.5143 35.9972C35.4877 35.9559 35.4637 35.9097 35.4386 35.8665C35.391 35.7782 35.3507 35.6903 35.3168 35.6047C35.2821 35.5192 35.2573 35.4355 35.2374 35.3568C35.2326 35.3369 35.2279 35.3175 35.2233 35.2985C35.2198 35.2794 35.2167 35.2606 35.2129 35.2422C35.2047 35.2053 35.2027 35.17 35.1968 35.1363C35.194 35.1028 35.1907 35.0709 35.1889 35.0413C35.1881 35.0118 35.1863 34.9841 35.1862 34.9592C35.1867 34.9343 35.1869 34.9117 35.1867 34.8918C35.187 34.872 35.1887 34.8554 35.1894 34.8416C35.1908 34.814 35.1911 34.7988 35.1911 34.7988Z" fill="white"/>
<path d="M25.0384 0C11.2317 0 0.0390625 11.1926 0.0390625 24.9994C0.0390625 27.5776 0.429513 30.0645 1.15418 32.4045L25.0312 7.75203L39.4019 22.5898L39.6694 22.866C39.7403 22.1974 39.8754 21.6237 39.9229 21.2318C40.0512 20.1734 39.6503 19.3556 39.2173 18.7141C38.9138 18.2645 38.4527 17.8936 38.204 17.712C38.0952 17.6325 38.0306 17.506 38.0306 17.3712V17.3692V17.0477C38.0306 17.0253 38.0228 17.0048 38.0097 16.9886H43.2553C43.2422 17.0047 43.2344 17.0252 43.2344 17.0477V17.3692C43.2344 17.5051 43.1688 17.6325 43.0585 17.7119C42.8061 17.8934 42.3376 18.2643 42.0293 18.7141C41.5896 19.3555 41.1825 20.1733 41.3127 21.2318C41.4029 21.964 41.8036 23.331 41.5089 24.7652L43.5866 26.9105L46.0923 29.4976L48.9191 32.4163C49.6461 30.0728 50.0378 27.5818 50.0378 24.9994C50.0378 11.1926 38.8452 0 25.0384 0ZM43.4221 16.8599C43.4221 16.8604 43.422 16.8609 43.422 16.8614H37.843C37.843 16.8609 37.8429 16.8604 37.8429 16.8599V14.5966H43.4221V16.8599ZM43.4319 14.4694H37.8331L37.5941 11.3736L37.7721 11.4499L37.9502 11.3736L38.1155 11.4372L38.3445 11.3736L38.5352 11.4499L38.7387 11.3736L38.9041 11.4753L39.1457 11.3736L39.3873 11.4753L39.6417 11.3736L39.9215 11.5007L40.1377 11.3736L40.3793 11.5135L40.6325 11.3736L40.8857 11.5135L41.1273 11.3736L41.3435 11.5007L41.6233 11.3736L41.8776 11.4753L42.1193 11.3736L42.3609 11.4753L42.5262 11.3736L42.7297 11.4499L42.9205 11.3736L43.1494 11.4372L43.3147 11.3736L43.4927 11.4499L43.6708 11.3736L43.4319 14.4694Z" fill="#2C2C2C"/>
</svg>
