<svg width="142" height="50" viewBox="0 0 142 50" fill="none" xmlns="http://www.w3.org/2000/svg">
<path d="M24.3166 42.057C24.2397 41.9705 24.142 41.8693 24.0256 41.7569C23.9665 41.7016 23.9043 41.6418 23.8348 41.5829C23.8004 41.5531 23.7652 41.5224 23.7283 41.4919C23.6908 41.4619 23.6526 41.4313 23.6134 41.4C23.4549 41.2773 23.2758 41.1521 23.076 41.0352C22.8764 40.9183 22.6563 40.8097 22.4228 40.7146C22.3649 40.6901 22.3046 40.6676 22.2445 40.6445C22.2152 40.6339 22.1857 40.6233 22.1561 40.6125L22.1117 40.5965L22.0639 40.5805C21.9394 40.5369 21.8119 40.5021 21.683 40.4695C21.4255 40.4044 21.1613 40.3593 20.8972 40.3223C20.6328 40.2875 20.3681 40.2622 20.1073 40.247C20.0422 40.2436 19.9773 40.2388 19.9127 40.2365C19.8481 40.2342 19.7839 40.2319 19.72 40.2296C19.6562 40.2282 19.5927 40.2267 19.5297 40.2252C19.4668 40.2237 19.4038 40.2244 19.3416 40.2239C19.0955 40.2233 18.8532 40.228 18.6251 40.2442C18.3968 40.2604 18.1822 40.2854 17.9855 40.315C17.5918 40.3748 17.27 40.4533 17.0477 40.5161C16.992 40.5315 16.9425 40.5462 16.8997 40.5597C16.8568 40.5728 16.8204 40.5842 16.7911 40.5939C16.7324 40.6134 16.7012 40.6239 16.7012 40.6239C16.7012 40.6239 16.734 40.6205 16.7955 40.6142C16.8569 40.6071 16.9468 40.5987 17.0611 40.5876C17.1754 40.5765 17.3139 40.5642 17.4727 40.5528C17.6314 40.5414 17.8103 40.5307 18.0051 40.524C18.1999 40.517 18.4106 40.5139 18.6329 40.5169C18.7442 40.5196 18.8578 40.5209 18.9747 40.5269C19.0332 40.5299 19.0922 40.5328 19.1519 40.5358C19.2123 40.5386 19.2733 40.5415 19.3336 40.5455C19.455 40.553 19.5784 40.5608 19.7033 40.5686C19.8281 40.5785 19.9544 40.5884 20.0817 40.5984C20.3358 40.6212 20.5932 40.647 20.8484 40.6826C21.1038 40.7164 21.3573 40.7592 21.6021 40.8129C21.6629 40.8275 21.7242 40.8403 21.7836 40.8567C21.8135 40.8644 21.8433 40.872 21.8731 40.8795C21.9024 40.888 21.9317 40.8964 21.9609 40.9047L22.0035 40.917L22.0485 40.9312C22.0785 40.9407 22.1083 40.9501 22.1381 40.9594C22.1952 40.9793 22.2525 40.996 22.309 41.0165C22.5354 41.0951 22.7496 41.182 22.9476 41.2771C23.1459 41.3715 23.3282 41.4733 23.4936 41.5735C23.5348 41.5989 23.5751 41.6239 23.6145 41.6482C23.6533 41.6737 23.6912 41.6987 23.7281 41.723C23.8031 41.7703 23.8705 41.8208 23.9361 41.8654C24.0652 41.9574 24.1767 42.0403 24.2671 42.1108C24.3587 42.18 24.4288 42.2369 24.4771 42.2753C24.5258 42.3134 24.5518 42.3338 24.5518 42.3338C24.5518 42.3338 24.5309 42.3083 24.4918 42.2604C24.4516 42.2134 24.3955 42.1415 24.3166 42.057Z" fill="white"/>
<path d="M39.8196 41.6032L39.8196 41.6036C39.8061 41.8436 39.7955 42.0836 39.7836 42.3236L39.7535 43.0437C39.7341 43.5237 39.7195 44.0037 39.7023 44.4838C39.6944 44.7435 39.6868 45.0033 39.6797 45.2631C39.7731 45.1954 39.8663 45.1274 39.9588 45.0585C39.9534 44.8669 39.9479 44.6754 39.942 44.4838C39.9248 44.0037 39.9102 43.5237 39.8908 43.0437L39.8607 42.3236C39.8488 42.0836 39.8382 41.8436 39.8247 41.6036L39.8293 41.5574L39.8196 41.6032Z" fill="white"/>
<path d="M36.6297 39.6835C36.6297 39.376 36.5668 39.0717 36.4449 38.7894L36.4427 38.7844C36.1007 37.9934 35.7253 37.6911 35.7253 37.6911C36.5194 38.0881 36.8943 38.1322 36.8943 38.1322C35.1298 37.3603 34.2035 35.8384 34.6226 34.6033C35.0416 33.3682 35.6812 32.4418 36.387 31.4713C37.0928 30.5009 38.0191 30.4127 38.0191 30.4127C38.0191 30.8225 37.9636 31.2304 37.8541 31.6253L37.2798 33.6959C37.2168 33.9228 37.2515 34.1657 37.3755 34.3659L37.418 34.4346C37.4531 34.4912 37.4944 34.5439 37.543 34.5894C38.3371 35.3332 39.6287 35.3364 40.2564 35.286C40.4825 35.2679 40.6915 35.1592 40.8367 34.985C40.9131 34.8933 40.9692 34.7864 41.0013 34.6715L41.901 31.4493C43.1141 33.2799 43.1803 36.2354 42.0113 37.5367C40.9036 38.7699 39.083 38.7354 38.8954 38.7284C40.7366 38.8131 41.5261 38.3307 41.5261 38.3307C40.9793 39.3728 40.6104 40.4952 40.431 41.6517V44.701C43.621 42.2054 46.1901 38.9526 47.8662 35.2122L25.0341 11.6387L2.21191 35.2019C5.14934 41.7653 10.834 46.8302 17.8032 48.9351C17.816 48.1122 17.8222 47.3638 17.8193 46.7221H21.9429C21.9125 47.2763 21.8523 48.4146 21.7922 49.79C22.8557 49.9281 23.9402 49.9995 25.0413 49.9995C29.2237 49.9995 33.1656 48.9717 36.6297 47.1561L36.6297 39.6835ZM18.3097 25.0002H24.3247V30.9135H18.3097V25.0002ZM18.3097 31.8979H24.3247V37.8112H18.3097V31.8979ZM27.1284 45.8975C26.2675 45.0367 24.7519 43.3756 23.491 42.9876C22.23 42.5996 21.9632 43.9576 21.9632 46.3582H17.8166V44.9671C17.8166 44.3362 17.566 43.7312 17.1199 43.2851C16.8712 43.0364 16.5713 42.8439 16.2394 42.7275C15.6236 42.5114 14.6167 42.3813 13.4032 43.0603H11.2935C11.1595 42.6721 11.0146 42.1122 10.9944 41.4275C10.9696 40.5827 11.1453 39.9015 11.2935 39.4714C11.9159 39.4714 12.5383 39.4714 13.1607 39.4714C13.1607 39.4714 13.8397 39.9564 14.4459 40.1504C14.9006 40.2959 15.7781 40.2368 16.5977 40.0549C17.3973 39.8774 18.2136 39.7858 19.0326 39.7972C20.0345 39.8112 21.2915 39.8983 22.2057 40.1988C23.976 40.7808 25.5764 41.9448 28.3166 46.7947C28.3166 46.7948 27.9892 46.7584 27.1284 45.8975ZM31.3241 37.8112H25.3091V31.8979H31.3241V37.8112ZM31.3241 30.9135H25.3091V25.0002H31.3241V30.9135Z" fill="white"/>
<path d="M35.1941 34.7979C35.1941 34.7979 35.186 34.8102 35.1721 34.8345C35.1654 34.8466 35.1562 34.8615 35.1469 34.8797C35.1379 34.898 35.1281 34.9193 35.1173 34.9436C35.1065 34.9679 35.0979 34.9956 35.0869 35.026C35.0763 35.0565 35.0691 35.0903 35.0592 35.1267C35.0448 35.1995 35.0309 35.2843 35.0304 35.3773C35.0292 35.4701 35.0354 35.5719 35.0557 35.6768C35.0757 35.7817 35.1054 35.8911 35.1479 35.9993C35.1694 36.0535 35.1919 36.1069 35.2203 36.1624C35.2339 36.1899 35.2479 36.2187 35.2611 36.2421L35.282 36.2789L35.2924 36.2974L35.2977 36.3066L35.3055 36.3193C35.368 36.423 35.4396 36.523 35.5168 36.6176C35.5357 36.6416 35.5567 36.6637 35.5768 36.6866C35.5973 36.7091 35.6168 36.7326 35.638 36.7542C35.6799 36.7979 35.7226 36.8405 35.7669 36.8805C35.789 36.9005 35.8103 36.9213 35.8327 36.9404C35.8555 36.9591 35.8781 36.9778 35.9006 36.9964C35.9449 37.0342 35.9918 37.0675 36.0371 37.1011C36.0833 37.1333 36.1287 37.165 36.1745 37.194C36.2211 37.2216 36.2652 37.2505 36.3105 37.275C36.356 37.2989 36.399 37.324 36.4426 37.3447C36.4865 37.3651 36.5279 37.386 36.5689 37.4036C36.6103 37.4205 36.6494 37.4373 36.6872 37.452C36.7254 37.466 36.7616 37.4791 36.7958 37.4905C36.8298 37.5022 36.8623 37.5124 36.8927 37.5207C36.9229 37.5293 36.9504 37.5372 36.9756 37.5436C37.0255 37.5562 37.0658 37.5629 37.0928 37.5689C37.12 37.5744 37.1348 37.5766 37.1348 37.5766C37.1348 37.5766 37.1234 37.567 37.1015 37.55C37.0794 37.5334 37.0473 37.5079 37.006 37.4776C36.9659 37.4454 36.9164 37.4104 36.8611 37.3668C36.8336 37.3449 36.8035 37.3233 36.7728 37.2992C36.7423 37.2745 36.7099 37.2498 36.6764 37.2234C36.61 37.1702 36.5389 37.1125 36.4653 37.0505C36.429 37.0192 36.3916 36.9871 36.3535 36.9542C36.3164 36.9206 36.2784 36.8864 36.2399 36.8515C36.2211 36.8336 36.2025 36.8152 36.1832 36.7975C36.1637 36.78 36.1446 36.7617 36.126 36.7428C36.0883 36.7055 36.0504 36.6677 36.0133 36.6287C35.9386 36.5512 35.8659 36.4702 35.7973 36.3863L35.746 36.3235C35.7286 36.3027 35.7134 36.2806 35.697 36.2593C35.6642 36.2166 35.6339 36.1728 35.6031 36.1296L35.6002 36.1256L35.5988 36.1235C35.5994 36.1246 35.5963 36.1197 35.6 36.1257L35.5993 36.1246L35.5936 36.1156L35.5821 36.0978L35.5592 36.0623C35.5425 36.0381 35.5303 36.0174 35.5172 35.9962C35.4907 35.9549 35.4667 35.9087 35.4415 35.8655C35.3939 35.7773 35.3536 35.6893 35.3198 35.6037C35.285 35.5182 35.2602 35.4346 35.2403 35.3558C35.2356 35.3359 35.2308 35.3165 35.2263 35.2975C35.2228 35.2784 35.2196 35.2596 35.2158 35.2412C35.2077 35.2043 35.2056 35.169 35.1997 35.1353C35.197 35.1019 35.1936 35.0699 35.1919 35.0403C35.191 35.0108 35.1893 34.9832 35.1892 34.9582C35.1897 34.9333 35.1899 34.9108 35.1896 34.8908C35.1899 34.871 35.1916 34.8544 35.1923 34.8406C35.1937 34.813 35.1941 34.7979 35.1941 34.7979Z" fill="white"/>
<path d="M25.0384 -0.000488281C11.2317 -0.000488281 0.0390625 11.1922 0.0390625 24.9989C0.0390625 27.5771 0.429513 30.064 1.15418 32.404L25.0312 7.75155L39.4019 22.5893L39.6694 22.8655C39.7403 22.197 39.8754 21.6232 39.9229 21.2313C40.0512 20.1729 39.6503 19.3551 39.2173 18.7136C38.9138 18.264 38.4527 17.8931 38.204 17.7115C38.0952 17.632 38.0306 17.5055 38.0306 17.3707V17.3687V17.0472C38.0306 17.0248 38.0228 17.0043 38.0097 16.9881H43.2553C43.2422 17.0042 43.2344 17.0248 43.2344 17.0472V17.3687C43.2344 17.5046 43.1688 17.632 43.0585 17.7114C42.8061 17.8929 42.3376 18.2638 42.0293 18.7136C41.5896 19.355 41.1825 20.1729 41.3127 21.2313C41.4029 21.9635 41.8036 23.3305 41.5089 24.7647L43.5866 26.91L46.0923 29.4971L48.9191 32.4158C49.6461 30.0723 50.0378 27.5814 50.0378 24.9989C50.0378 11.1922 38.8452 -0.000488281 25.0384 -0.000488281ZM43.4221 16.8594C43.4221 16.8599 43.422 16.8604 43.422 16.8609H37.843C37.843 16.8604 37.8429 16.8599 37.8429 16.8594V14.5961H43.4221V16.8594ZM43.4319 14.4689H37.8331L37.5941 11.3731L37.7721 11.4494L37.9502 11.3731L38.1155 11.4367L38.3445 11.3731L38.5352 11.4494L38.7387 11.3731L38.9041 11.4748L39.1457 11.3731L39.3873 11.4748L39.6417 11.3731L39.9215 11.5003L40.1377 11.3731L40.3793 11.513L40.6325 11.3731L40.8857 11.513L41.1273 11.3731L41.3435 11.5003L41.6233 11.3731L41.8776 11.4748L42.1193 11.3731L42.3609 11.4748L42.5262 11.3731L42.7297 11.4494L42.9205 11.3731L43.1494 11.4367L43.3147 11.3731L43.4927 11.4494L43.6708 11.3731L43.4319 14.4689Z" fill="#3797E4"/>
<path d="M135.513 30.2882C135.513 29.5397 135.779 28.8996 136.31 28.3678C136.842 27.836 137.502 27.5701 138.29 27.5701C139.117 27.5701 139.787 27.836 140.299 28.3678C140.811 28.8996 141.067 29.5397 141.067 30.2882C141.067 31.0367 140.811 31.6768 140.299 32.2086C139.787 32.7404 139.117 33.0063 138.29 33.0063C137.502 33.0063 136.842 32.7404 136.31 32.2086C135.779 31.6768 135.513 31.0367 135.513 30.2882Z" fill="#3797E4"/>
<path d="M129.291 18.7066V32.2972H124.889V18.7066H129.291ZM133.22 23.3156C132.984 23.0792 132.728 22.8921 132.452 22.7542C132.196 22.6163 131.871 22.5474 131.477 22.5474C131.044 22.5474 130.66 22.6656 130.325 22.9019C129.99 23.1383 129.734 23.483 129.557 23.936C129.379 24.389 129.291 24.9405 129.291 25.5905L128.227 24.0246C128.227 22.9413 128.434 21.9762 128.848 21.1293C129.281 20.2823 129.842 19.6126 130.532 19.1202C131.221 18.6278 131.94 18.3816 132.688 18.3816C133.181 18.3816 133.654 18.4801 134.107 18.677C134.56 18.874 134.904 19.1498 135.141 19.5043L133.22 23.3156Z" fill="white"/>
<path d="M114.866 32.5926C113.291 32.5926 111.922 32.307 110.76 31.7358C109.617 31.1449 108.731 30.3177 108.101 29.2541C107.47 28.1904 107.155 26.9397 107.155 25.5019C107.155 24.0443 107.461 22.7838 108.071 21.7201C108.682 20.6565 109.558 19.8391 110.701 19.2679C111.863 18.6967 113.232 18.4111 114.807 18.4111C116.383 18.4111 117.713 18.6869 118.796 19.2384C119.879 19.7702 120.706 20.5482 121.278 21.5724C121.849 22.5966 122.134 23.8375 122.134 25.2951C122.134 25.5117 122.134 25.7284 122.134 25.945C122.134 26.142 122.115 26.3094 122.075 26.4473H109.667V23.9655H118.057L116.994 25.3246C117.092 25.1867 117.171 25.0193 117.23 24.8223C117.309 24.6057 117.348 24.4284 117.348 24.2905C117.348 23.6996 117.24 23.1875 117.023 22.7542C116.807 22.3209 116.501 21.986 116.107 21.7497C115.713 21.5133 115.251 21.3952 114.719 21.3952C114.049 21.3952 113.488 21.5429 113.035 21.8383C112.582 22.1338 112.237 22.5868 112.001 23.1974C111.784 23.7883 111.666 24.5367 111.646 25.4428C111.646 26.27 111.764 26.9791 112.001 27.57C112.237 28.1609 112.592 28.6139 113.064 28.9291C113.537 29.2245 114.118 29.3722 114.807 29.3722C115.595 29.3722 116.265 29.2245 116.816 28.9291C117.388 28.6336 117.841 28.1904 118.175 27.5996L122.164 28.5745C121.455 29.9139 120.49 30.9184 119.269 31.5881C118.067 32.2578 116.6 32.5926 114.866 32.5926Z" fill="white"/>
<path d="M106.893 18.7065L98.0299 38.797H93.5391L96.8482 31.204L90.9688 18.7065H95.8732L100.275 29.6086L97.9709 29.579L102.314 18.7065H106.893Z" fill="white"/>
<path d="M84.5469 13.5953C84.5469 12.8862 84.8029 12.315 85.315 11.8817C85.8271 11.4287 86.4377 11.2021 87.1468 11.2021C87.8756 11.2021 88.4862 11.4287 88.9786 11.8817C89.4907 12.315 89.7468 12.8862 89.7468 13.5953C89.7468 14.3043 89.4907 14.8854 88.9786 15.3384C88.4862 15.7914 87.8756 16.0179 87.1468 16.0179C86.4377 16.0179 85.8271 15.7914 85.315 15.3384C84.8029 14.8854 84.5469 14.3043 84.5469 13.5953ZM84.99 18.7065H89.3036V32.2971H84.99V18.7065Z" fill="white"/>
<path d="M63.5879 11.6157H68.7287V32.297H63.5879V11.6157ZM70.9741 32.297H66.8969V27.8653H70.7968C71.5847 27.8653 72.343 27.7669 73.0718 27.5699C73.8202 27.3729 74.4702 27.0479 75.0217 26.5949C75.5929 26.1419 76.0459 25.5411 76.3808 24.7927C76.7156 24.0245 76.883 23.0791 76.883 21.9564C76.883 20.8337 76.7156 19.8981 76.3808 19.1496C76.0459 18.3815 75.5929 17.7709 75.0217 17.3179C74.4702 16.8648 73.8202 16.5398 73.0718 16.3429C72.343 16.1459 71.5847 16.0474 70.7968 16.0474H66.8969V11.6157H70.9741C73.2392 11.6157 75.199 12.0392 76.8535 12.8861C78.508 13.7331 79.7883 14.9247 80.6943 16.4611C81.6003 17.9974 82.0534 19.8292 82.0534 21.9564C82.0534 24.0639 81.6003 25.8957 80.6943 27.4517C79.7883 28.988 78.508 30.1797 76.8535 31.0266C75.199 31.8736 73.2392 32.297 70.9741 32.297Z" fill="white"/>
</svg>
