<svg width="166" height="179" viewBox="0 0 166 179" fill="none" xmlns="http://www.w3.org/2000/svg">
<path d="M7.39967 59.8299C7.83538 59.7733 8.23301 59.6732 8.59256 59.5297C8.94255 59.3824 9.24489 59.1877 9.49958 58.9457C9.75427 58.7038 9.94591 58.425 10.0745 58.1094C10.1992 57.8033 10.2355 57.5226 10.1834 57.2672C10.1218 57.0079 9.95705 56.8237 9.68925 56.7146C9.49796 56.6367 9.31677 56.6297 9.14567 56.6939C8.96501 56.7541 8.74928 56.9004 8.49848 57.1328C8.25158 57.3556 7.92923 57.6815 7.53143 58.1105C7.33447 58.3202 7.09714 58.5469 6.81942 58.7906C6.53213 59.0304 6.20571 59.2432 5.84014 59.4288C5.47846 59.6049 5.07694 59.7145 4.63556 59.7577C4.19807 59.7914 3.73066 59.7069 3.23331 59.5043C2.60205 59.2471 2.13941 58.8635 1.84539 58.3534C1.5418 57.8394 1.38824 57.2583 1.38469 56.61C1.38113 55.9617 1.51769 55.2981 1.79434 54.619C2.08268 53.9112 2.44683 53.3459 2.88678 52.9229C3.31718 52.496 3.77272 52.1854 4.25342 51.9909C4.72455 51.7925 5.1693 51.6726 5.58765 51.6311L5.8964 54.1992C5.59884 54.2452 5.33458 54.3327 5.10362 54.4617C4.86699 54.5772 4.66277 54.7226 4.49097 54.8979C4.31917 55.0733 4.18846 55.271 4.09884 55.4909C3.98584 55.7683 3.95361 56.0117 4.00214 56.221C4.05067 56.4304 4.17058 56.574 4.36187 56.6519C4.58185 56.7416 4.80538 56.7267 5.03244 56.6073C5.25384 56.4745 5.49773 56.2727 5.76411 56.0021C6.02483 55.718 6.31937 55.3919 6.64775 55.0238C6.93361 54.7054 7.23453 54.4321 7.55051 54.204C7.86082 53.9624 8.19185 53.7794 8.54361 53.655C8.8858 53.5268 9.24482 53.4668 9.62066 53.4749C9.99651 53.483 10.3853 53.5689 10.787 53.7326C11.3226 53.9508 11.7512 54.2537 12.0729 54.6412C12.3984 55.0192 12.6239 55.4512 12.7493 55.9372C12.8691 56.4097 12.9004 56.9076 12.8434 57.4308C12.7959 57.9579 12.6728 58.4654 12.4741 58.9532C12.1936 59.6418 11.8129 60.2339 11.3322 60.7295C10.865 61.2194 10.3429 61.5977 9.76582 61.8645C9.17921 62.1273 8.59242 62.2674 8.00545 62.2848L7.39967 59.8299Z" fill="#2C2C2C"/>
<path d="M12.0599 46.3996C12.5767 46.7223 13.0903 46.8846 13.6004 46.8865C14.1073 46.8742 14.5774 46.7355 15.0108 46.4704C15.4354 46.1997 15.7926 45.8323 16.0825 45.368C16.3559 44.9299 16.5369 44.5133 16.6254 44.118C16.7138 43.7228 16.7498 43.3434 16.7332 42.98C16.7078 42.6111 16.6545 42.2674 16.5733 41.9488L19.2541 43.6224C19.2927 44.1457 19.2629 44.681 19.1646 45.2284C19.0631 45.7616 18.8018 46.3655 18.3806 47.0401C17.9048 47.8022 17.3534 48.432 16.7264 48.9293C16.0993 49.4267 15.429 49.7691 14.7153 49.9567C14.0017 50.1443 13.272 50.1819 12.5265 50.0695C11.7776 49.9429 11.0396 49.6526 10.3125 49.1987C9.58533 48.7447 9.00484 48.2119 8.57101 47.6002C8.13389 46.9742 7.84289 46.2994 7.69801 45.5759C7.55314 44.8523 7.56643 44.0997 7.7379 43.318C7.90937 42.5363 8.23302 41.7643 8.70884 41.0021C9.12996 40.3275 9.55774 39.8276 9.99219 39.5022C10.4321 39.1681 10.9 38.9062 11.3958 38.7166L14.0765 40.3901C13.7547 40.4571 13.4269 40.5629 13.0931 40.7076C12.7505 40.8468 12.4211 41.0429 12.1049 41.2959C11.7886 41.549 11.4938 41.8945 11.2203 42.3326C10.9304 42.7969 10.7615 43.2819 10.7136 43.7877C10.657 44.2881 10.7388 44.7713 10.9591 45.2376C11.176 45.6896 11.543 46.0769 12.0599 46.3996Z" fill="#2C2C2C"/>
<path d="M20.9807 34.9095L23.0313 32.6077L28.7696 33.3628L26.4407 35.9769L20.9807 34.9095ZM14.5 33.0781L16.4991 30.8341L24.5961 38.0475L22.597 40.2915L14.5 33.0781ZM17.6748 33.3338L15.7778 31.6438L17.3338 29.8972C17.9933 29.1569 18.6517 28.6507 19.309 28.3787C19.9731 28.099 20.6126 28.0255 21.2274 28.1582C21.8414 28.2764 22.4144 28.5725 22.9465 29.0465C23.4709 29.5137 23.8348 30.0523 24.0382 30.6623C24.2408 31.2578 24.2414 31.9014 24.04 32.5934C23.8377 33.2707 23.4068 33.9795 22.7473 34.7198L21.1912 36.4664L19.4909 34.9516L20.882 33.3901C21.095 33.151 21.2389 32.9196 21.3137 32.6958C21.3886 32.4721 21.3944 32.2559 21.3312 32.0475C21.2748 31.8313 21.1502 31.6373 20.9575 31.4655C20.7647 31.2938 20.5615 31.1958 20.348 31.1716C20.1336 31.1327 19.9196 31.1634 19.7059 31.2635C19.4922 31.3636 19.2789 31.5332 19.066 31.7722L17.6748 33.3338Z" fill="#2C2C2C"/>
<path d="M29.3846 25.5187C29.7445 25.9715 30.1547 26.3051 30.6153 26.5195C31.0694 26.7259 31.5386 26.8016 32.0226 26.7467C32.5002 26.6837 32.9574 26.4788 33.394 26.1318C33.8387 25.7784 34.1416 25.3794 34.3027 24.9348C34.4655 24.4756 34.4977 24.0015 34.3993 23.5125C34.2945 23.0154 34.0622 22.5404 33.7024 22.0876C33.3361 21.6267 32.93 21.2899 32.4839 21.0772C32.0378 20.8644 31.5759 20.7895 31.0983 20.8525C30.6223 20.9009 30.1539 21.1083 29.693 21.4745C29.2564 21.8215 28.9567 22.2245 28.7939 22.6837C28.6247 23.1348 28.5893 23.6048 28.6877 24.0938C28.7861 24.5829 29.0184 25.0578 29.3846 25.5187ZM26.8983 27.4945C26.365 26.8234 26.0004 26.1238 25.8044 25.3957C25.61 24.6532 25.5688 23.9208 25.6809 23.1985C25.7865 22.4682 26.0347 21.7763 26.4256 21.1227C26.8181 20.4546 27.3418 19.8604 27.9967 19.3399C28.6678 18.8066 29.3691 18.4275 30.1005 18.2024C30.8335 17.9629 31.5677 17.8741 32.303 17.9362C33.0319 17.9902 33.728 18.2022 34.3913 18.5721C35.0562 18.9275 35.6554 19.4407 36.1887 20.1118C36.7156 20.7749 37.0875 21.4753 37.3044 22.2131C37.5214 22.9509 37.5875 23.6898 37.5028 24.4299C37.4117 25.1619 37.1691 25.8691 36.7749 26.5517C36.3824 27.2198 35.8466 27.8237 35.1674 28.3634C34.4882 28.9032 33.7788 29.2888 33.0394 29.5202C32.2935 29.7436 31.5497 29.8202 30.8079 29.75C30.0679 29.6654 29.363 29.434 28.6933 29.056C28.0235 28.678 27.4252 28.1575 26.8983 27.4945Z" fill="#2C2C2C"/>
<path d="M41.6092 16.838C41.8801 17.3489 42.2224 17.7519 42.636 18.047C43.0448 18.3329 43.4921 18.4931 43.9781 18.5277C44.4592 18.5532 44.9461 18.4353 45.4388 18.174C45.9406 17.9079 46.3114 17.571 46.5511 17.1634C46.7952 16.7417 46.9135 16.2815 46.9062 15.7827C46.8941 15.2748 46.7525 14.7654 46.4816 14.2544C46.2058 13.7343 45.8681 13.3289 45.4685 13.0382C45.0688 12.7474 44.6284 12.5893 44.1474 12.5639C43.6706 12.5244 43.1721 12.6426 42.652 12.9184C42.1593 13.1796 41.7909 13.5211 41.5469 13.9427C41.2981 14.3552 41.1773 14.8109 41.1846 15.3097C41.1919 15.8085 41.3334 16.3179 41.6092 16.838ZM38.8035 18.3257C38.4019 17.5684 38.1713 16.8139 38.1118 16.0623C38.0565 15.2967 38.15 14.5691 38.3923 13.8795C38.6297 13.1809 39.0002 12.546 39.504 11.9749C40.0121 11.3899 40.6357 10.9014 41.3748 10.5096C42.1321 10.108 42.8908 9.86347 43.6511 9.776C44.4156 9.67457 45.1536 9.7216 45.8651 9.91711C46.5718 10.1035 47.2174 10.4392 47.8019 10.9242C48.3906 11.3952 48.8858 12.0094 49.2873 12.7667C49.6841 13.5149 49.9216 14.2715 50 15.0366C50.0783 15.8016 50.0082 16.5402 49.7896 17.2523C49.5662 17.9552 49.1983 18.6062 48.6859 19.2052C48.1778 19.7902 47.5406 20.2859 46.7741 20.6923C46.0077 21.0987 45.2398 21.3481 44.4704 21.4404C43.6963 21.5236 42.951 21.4629 42.2346 21.2582C41.5225 21.0396 40.8718 20.6833 40.2825 20.1892C39.6932 19.6951 39.2002 19.0739 38.8035 18.3257Z" fill="#2C2C2C"/>
<path d="M50.9062 6.32031L53.7549 5.36242L56.3965 13.2182L60.5519 11.8208L61.3666 14.2436L54.3626 16.5988L50.9062 6.32031Z" fill="#2C2C2C"/>
<path d="M69.9219 1.23438L73.0247 0.973662L73.9327 11.7797L70.8298 12.0404L69.9219 1.23438ZM74.8744 11.7005L72.8675 11.8692L72.647 9.24485L74.5304 9.08661C74.8906 9.05634 75.2374 8.99092 75.571 8.89035C75.914 8.77862 76.2162 8.61331 76.4777 8.39442C76.7382 8.16525 76.9357 7.86364 77.0701 7.4896C77.2139 7.10441 77.2621 6.6288 77.2145 6.06277C77.167 5.49674 77.0406 5.04098 76.8353 4.69548C76.6396 4.33882 76.3945 4.0744 76.1002 3.90221C75.805 3.71973 75.4795 3.60717 75.1235 3.56453C74.777 3.51073 74.4236 3.49897 74.0634 3.52923L72.1801 3.68748L71.9596 1.06316L73.9664 0.894541C75.1911 0.791639 76.2594 0.924704 77.1714 1.29373C78.0927 1.65161 78.8239 2.21202 79.3647 2.97498C79.9159 3.73707 80.2386 4.679 80.3328 5.80076C80.4262 6.91224 80.2652 7.89481 79.8498 8.74847C79.4439 9.59098 78.8169 10.2707 77.9691 10.7876C77.1306 11.2933 76.099 11.5976 74.8744 11.7005Z" fill="#2C2C2C"/>
<path d="M87.2056 5.96999C87.1522 6.54586 87.2176 7.07054 87.4018 7.54401C87.587 8.0072 87.8734 8.38642 88.2608 8.68169C88.6493 8.96667 89.1211 9.13493 89.6765 9.18647C90.242 9.23896 90.7368 9.16042 91.1608 8.95084C91.596 8.73193 91.9472 8.41188 92.2145 7.99069C92.4827 7.55921 92.6436 7.05553 92.697 6.47966C92.7514 5.8935 92.6912 5.3693 92.5163 4.90707C92.3414 4.44483 92.0597 4.07123 91.6712 3.78624C91.2941 3.49193 90.8124 3.31757 90.2262 3.26317C89.6709 3.21163 89.1756 3.29532 88.7404 3.51423C88.3062 3.72285 87.9554 4.03776 87.6882 4.45896C87.4209 4.88015 87.26 5.38383 87.2056 5.96999ZM84.0435 5.67649C84.1227 4.82296 84.3434 4.06554 84.7055 3.40422C85.0789 2.73358 85.5559 2.17627 86.1365 1.73229C86.718 1.27803 87.3759 0.950143 88.1103 0.748628C88.8559 0.537784 89.6452 0.471017 90.4782 0.548327C91.3317 0.627546 92.1004 0.83891 92.7842 1.18242C93.4792 1.5166 94.0707 1.96046 94.5587 2.51398C95.0476 3.05722 95.4036 3.69184 95.6266 4.41784C95.8609 5.13452 95.9384 5.91962 95.8592 6.77315C95.7809 7.6164 95.5649 8.37944 95.2111 9.06228C94.8573 9.74511 94.3939 10.3244 93.8207 10.8002C93.2485 11.2657 92.584 11.6085 91.8272 11.8287C91.0816 12.0396 90.2768 12.1049 89.413 12.0247C88.5492 11.9445 87.7703 11.7322 87.0762 11.3878C86.3831 11.033 85.793 10.5737 85.306 10.0099C84.8302 9.43679 84.4813 8.78208 84.2592 8.04579C84.0371 7.30951 83.9652 6.51974 84.0435 5.67649Z" fill="#2C2C2C"/>
<path d="M109.424 10.5616L112.905 5.71535L116.34 6.77009L108.357 16.3596L106.691 9.59297L101.53 14.2638L100.302 1.84645L103.738 2.9012L103.9 8.86583L108.473 3.78767L109.424 10.5616Z" fill="#2C2C2C"/>
<path d="M126.303 12.1169L128.826 13.5086L123.326 23.4786L119.89 14.6656L117.227 19.4946L114.704 18.1029L120.203 8.13281L123.639 16.9459L126.303 12.1169Z" fill="#2C2C2C"/>
<path d="M135.194 26.2094L137.054 24.2795L143.133 30.138L141.274 32.0678L135.194 26.2094ZM144.438 26.0601L146.602 28.1455L139.078 35.9541L136.914 33.8687L144.438 26.0601ZM139.195 21.0078L141.359 23.0932L133.835 30.9018L131.671 28.8164L139.195 21.0078Z" fill="#2C2C2C"/>
<path d="M142.485 40.1255L144.437 38.6747L147.699 43.0637L145.747 44.5145L142.485 40.1255ZM149.236 35.1077L151.189 33.6569L154.451 38.0459L152.499 39.4967L149.236 35.1077ZM146.066 37.4641L147.956 36.0595L151.033 40.1999L149.143 41.6045L146.066 37.4641ZM149.969 32.0156L151.688 34.3283L142.984 40.7969L141.265 38.4843L149.969 32.0156Z" fill="#2C2C2C"/>
<path d="M153.529 48.1172L154.962 50.8466L152.236 55.9523L150.609 52.8525L153.529 48.1172ZM157.523 42.6953L158.921 45.3562L149.319 50.3973L147.922 47.7365L157.523 42.6953ZM156.167 45.5771L158.416 44.3961L159.504 46.4672C159.965 47.345 160.207 48.1394 160.23 48.8503C160.258 49.5704 160.102 50.1949 159.762 50.7236C159.435 51.2568 158.956 51.6889 158.325 52.0202C157.703 52.3467 157.071 52.4978 156.429 52.4736C155.8 52.4538 155.197 52.2278 154.621 51.7958C154.058 51.3681 153.546 50.7154 153.085 49.8375L151.997 47.7665L154.014 46.7078L154.986 48.5594C155.135 48.8429 155.301 49.059 155.484 49.2079C155.667 49.3567 155.867 49.4382 156.085 49.4523C156.307 49.4756 156.532 49.4273 156.761 49.3072C156.989 49.1872 157.153 49.0315 157.25 48.8402C157.362 48.6532 157.409 48.4421 157.39 48.2068C157.372 47.9716 157.288 47.7122 157.139 47.4288L156.167 45.5771Z" fill="#2C2C2C"/>
<path d="M153.977 60.452L156.281 59.6724L158.034 64.8524L155.73 65.632L153.977 60.452ZM161.945 57.7557L164.249 56.9761L166.002 62.156L163.698 62.9356L161.945 57.7557ZM158.203 59.0219L160.434 58.2671L162.087 63.1536L159.857 63.9084L158.203 59.0219ZM163.594 55.0391L164.517 57.7685L154.245 61.2444L153.322 58.515L163.594 55.0391Z" fill="#2C2C2C"/>
<path d="M158.6 118.428C158.165 118.485 157.767 118.585 157.407 118.728C157.057 118.875 156.755 119.07 156.5 119.312C156.246 119.554 156.054 119.833 155.926 120.148C155.801 120.454 155.765 120.735 155.817 120.991C155.878 121.25 156.043 121.434 156.311 121.543C156.502 121.621 156.683 121.628 156.854 121.564C157.035 121.504 157.251 121.357 157.502 121.125C157.748 120.902 158.071 120.576 158.469 120.147C158.666 119.938 158.903 119.711 159.181 119.467C159.468 119.227 159.794 119.015 160.16 118.829C160.522 118.653 160.923 118.543 161.364 118.5C161.802 118.466 162.269 118.551 162.767 118.754C163.398 119.011 163.861 119.394 164.155 119.904C164.458 120.418 164.612 121 164.615 121.648C164.619 122.296 164.482 122.96 164.206 123.639C163.917 124.347 163.553 124.912 163.113 125.335C162.683 125.762 162.227 126.072 161.747 126.267C161.275 126.465 160.831 126.585 160.412 126.627L160.104 124.059C160.401 124.013 160.665 123.925 160.896 123.796C161.133 123.681 161.337 123.535 161.509 123.36C161.681 123.185 161.812 122.987 161.901 122.767C162.014 122.49 162.046 122.246 161.998 122.037C161.949 121.827 161.829 121.684 161.638 121.606C161.418 121.516 161.195 121.531 160.968 121.651C160.746 121.783 160.502 121.985 160.236 122.256C159.975 122.54 159.681 122.866 159.352 123.234C159.066 123.552 158.765 123.826 158.449 124.054C158.139 124.295 157.808 124.478 157.456 124.603C157.114 124.731 156.755 124.791 156.379 124.783C156.003 124.775 155.615 124.689 155.213 124.525C154.677 124.307 154.249 124.004 153.927 123.617C153.602 123.239 153.376 122.807 153.251 122.321C153.131 121.848 153.1 121.35 153.157 120.827C153.204 120.3 153.327 119.792 153.526 119.305C153.806 118.616 154.187 118.024 154.668 117.528C155.135 117.038 155.657 116.66 156.234 116.393C156.821 116.13 157.408 115.99 157.995 115.973L158.6 118.428Z" fill="#2C2C2C"/>
<path d="M153.94 131.858C153.423 131.536 152.91 131.373 152.4 131.371C151.893 131.384 151.423 131.522 150.989 131.787C150.565 132.058 150.207 132.426 149.918 132.89C149.644 133.328 149.463 133.745 149.375 134.14C149.286 134.535 149.25 134.914 149.267 135.278C149.292 135.647 149.345 135.99 149.427 136.309L146.746 134.635C146.707 134.112 146.737 133.577 146.835 133.029C146.937 132.496 147.198 131.892 147.619 131.218C148.095 130.456 148.647 129.826 149.274 129.328C149.901 128.831 150.571 128.489 151.285 128.301C151.998 128.114 152.728 128.076 153.474 128.188C154.222 128.315 154.96 128.605 155.688 129.059C156.415 129.513 156.995 130.046 157.429 130.658C157.866 131.284 158.157 131.958 158.302 132.682C158.447 133.405 158.434 134.158 158.262 134.94C158.091 135.722 157.767 136.494 157.291 137.256C156.87 137.93 156.442 138.43 156.008 138.756C155.568 139.09 155.1 139.352 154.604 139.541L151.923 137.868C152.245 137.801 152.573 137.695 152.907 137.55C153.249 137.411 153.579 137.215 153.895 136.962C154.211 136.709 154.506 136.363 154.78 135.925C155.07 135.461 155.238 134.976 155.286 134.47C155.343 133.97 155.261 133.486 155.041 133.02C154.824 132.568 154.457 132.181 153.94 131.858Z" fill="#2C2C2C"/>
<path d="M145.019 143.348L142.969 145.65L137.23 144.895L139.559 142.281L145.019 143.348ZM151.5 145.18L149.501 147.424L141.404 140.21L143.403 137.966L151.5 145.18ZM148.325 144.924L150.222 146.614L148.666 148.361C148.007 149.101 147.348 149.607 146.691 149.879C146.027 150.159 145.387 150.232 144.773 150.1C144.159 149.981 143.586 149.685 143.054 149.211C142.529 148.744 142.165 148.206 141.962 147.596C141.759 147 141.759 146.356 141.96 145.664C142.162 144.987 142.593 144.278 143.253 143.538L144.809 141.791L146.509 143.306L145.118 144.868C144.905 145.107 144.761 145.338 144.686 145.562C144.611 145.786 144.606 146.002 144.669 146.21C144.725 146.427 144.85 146.621 145.043 146.792C145.235 146.964 145.438 147.062 145.652 147.086C145.866 147.125 146.08 147.094 146.294 146.994C146.508 146.894 146.721 146.725 146.934 146.486L148.325 144.924Z" fill="#2C2C2C"/>
<path d="M136.615 152.739C136.256 152.286 135.845 151.953 135.385 151.738C134.931 151.532 134.461 151.456 133.977 151.511C133.5 151.574 133.043 151.779 132.606 152.126C132.161 152.479 131.858 152.878 131.697 153.323C131.534 153.782 131.502 154.256 131.601 154.745C131.705 155.242 131.938 155.717 132.298 156.17C132.664 156.631 133.07 156.968 133.516 157.181C133.962 157.393 134.424 157.468 134.902 157.405C135.378 157.357 135.846 157.15 136.307 156.783C136.744 156.436 137.043 156.033 137.206 155.574C137.375 155.123 137.411 154.653 137.312 154.164C137.214 153.675 136.982 153.2 136.615 152.739ZM139.102 150.763C139.635 151.434 140 152.134 140.196 152.862C140.39 153.605 140.431 154.337 140.319 155.059C140.214 155.79 139.965 156.482 139.574 157.135C139.182 157.803 138.658 158.397 138.003 158.918C137.332 159.451 136.631 159.83 135.9 160.055C135.166 160.295 134.432 160.384 133.697 160.322C132.968 160.268 132.272 160.056 131.609 159.686C130.944 159.33 130.345 158.817 129.811 158.146C129.284 157.483 128.913 156.783 128.696 156.045C128.479 155.307 128.412 154.568 128.497 153.828C128.588 153.096 128.831 152.389 129.225 151.706C129.618 151.038 130.153 150.434 130.833 149.894C131.512 149.355 132.221 148.969 132.961 148.738C133.707 148.514 134.45 148.438 135.192 148.508C135.932 148.592 136.637 148.824 137.307 149.202C137.976 149.58 138.575 150.1 139.102 150.763Z" fill="#2C2C2C"/>
<path d="M124.391 161.42C124.12 160.909 123.778 160.506 123.364 160.211C122.955 159.925 122.508 159.765 122.022 159.73C121.541 159.705 121.054 159.823 120.561 160.084C120.059 160.35 119.689 160.687 119.449 161.094C119.205 161.516 119.086 161.976 119.094 162.475C119.106 162.983 119.247 163.492 119.518 164.003C119.794 164.523 120.132 164.929 120.532 165.22C120.931 165.51 121.372 165.668 121.853 165.694C122.329 165.733 122.828 165.615 123.348 165.339C123.841 165.078 124.209 164.737 124.453 164.315C124.702 163.903 124.823 163.447 124.815 162.948C124.808 162.449 124.667 161.94 124.391 161.42ZM127.197 159.932C127.598 160.689 127.829 161.444 127.888 162.196C127.943 162.961 127.85 163.689 127.608 164.378C127.37 165.077 127 165.712 126.496 166.283C125.988 166.868 125.364 167.356 124.625 167.748C123.868 168.15 123.109 168.394 122.349 168.482C121.584 168.583 120.846 168.536 120.135 168.341C119.428 168.154 118.783 167.819 118.198 167.334C117.609 166.863 117.114 166.248 116.713 165.491C116.316 164.743 116.078 163.986 116 163.221C115.922 162.456 115.992 161.718 116.21 161.006C116.434 160.303 116.802 159.652 117.314 159.053C117.822 158.468 118.459 157.972 119.226 157.565C119.992 157.159 120.76 156.91 121.53 156.817C122.304 156.734 123.049 156.795 123.765 157C124.477 157.218 125.128 157.575 125.717 158.069C126.307 158.563 126.8 159.184 127.197 159.932Z" fill="#2C2C2C"/>
<path d="M115.094 171.938L112.245 172.895L109.604 165.04L105.448 166.437L104.633 164.014L111.637 161.659L115.094 171.938Z" fill="#2C2C2C"/>
<path d="M96.0781 177.023L92.9753 177.284L92.0673 166.478L95.1702 166.217L96.0781 177.023ZM91.1256 166.557L93.1325 166.389L93.353 169.013L91.4696 169.171C91.1094 169.201 90.7626 169.267 90.429 169.367C90.086 169.479 89.7838 169.645 89.5223 169.863C89.2618 170.093 89.0643 170.394 88.9299 170.768C88.7861 171.153 88.7379 171.629 88.7855 172.195C88.833 172.761 88.9594 173.217 89.1647 173.562C89.3604 173.919 89.6055 174.183 89.8998 174.356C90.195 174.538 90.5205 174.651 90.8765 174.693C91.223 174.747 91.5764 174.759 91.9366 174.729L93.8199 174.57L94.0404 177.195L92.0336 177.363C90.8089 177.466 89.7406 177.333 88.8286 176.964C87.9073 176.606 87.1761 176.046 86.6353 175.283C86.0841 174.521 85.7614 173.579 85.6672 172.457C85.5738 171.346 85.7348 170.363 86.1502 169.509C86.5561 168.667 87.1831 167.987 88.0309 167.47C88.8694 166.964 89.901 166.66 91.1256 166.557Z" fill="#2C2C2C"/>
<path d="M78.7944 172.288C78.8478 171.712 78.7824 171.187 78.5982 170.714C78.413 170.251 78.1266 169.871 77.7392 169.576C77.3507 169.291 76.8789 169.123 76.3235 169.071C75.758 169.019 75.2632 169.097 74.8392 169.307C74.404 169.526 74.0528 169.846 73.7855 170.267C73.5173 170.699 73.3564 171.202 73.303 171.778C73.2486 172.364 73.3088 172.889 73.4837 173.351C73.6586 173.813 73.9403 174.187 74.3288 174.472C74.7059 174.766 75.1876 174.94 75.7738 174.995C76.3291 175.046 76.8244 174.962 77.2596 174.744C77.6938 174.535 78.0446 174.22 78.3118 173.799C78.5791 173.378 78.74 172.874 78.7944 172.288ZM81.9565 172.581C81.8773 173.435 81.6566 174.192 81.2945 174.854C80.9211 175.524 80.4441 176.082 79.8635 176.526C79.282 176.98 78.6241 177.308 77.8897 177.509C77.1441 177.72 76.3548 177.787 75.5218 177.709C74.6683 177.63 73.8996 177.419 73.2158 177.075C72.5208 176.741 71.9293 176.297 71.4413 175.744C70.9524 175.201 70.5964 174.566 70.3734 173.84C70.1391 173.123 70.0616 172.338 70.1408 171.485C70.2191 170.641 70.4351 169.878 70.7889 169.196C71.1427 168.513 71.6061 167.933 72.1793 167.458C72.7515 166.992 73.416 166.649 74.1728 166.429C74.9184 166.218 75.7232 166.153 76.587 166.233C77.4508 166.313 78.2297 166.526 78.9238 166.87C79.6169 167.225 80.207 167.684 80.694 168.248C81.1698 168.821 81.5187 169.476 81.7408 170.212C81.9629 170.948 82.0348 171.738 81.9565 172.581Z" fill="#2C2C2C"/>
<path d="M56.5763 167.696L53.0954 172.542L49.6596 171.488L57.6432 161.898L59.3093 168.665L64.4703 163.994L65.6982 176.411L62.2624 175.357L62.1002 169.392L57.5272 174.47L56.5763 167.696Z" fill="#2C2C2C"/>
<path d="M39.6969 166.141L37.1739 164.749L42.6735 154.779L46.1097 163.592L48.7735 158.763L51.2965 160.155L45.7969 170.125L42.3607 161.312L39.6969 166.141Z" fill="#2C2C2C"/>
<path d="M30.8059 152.048L28.9463 153.978L22.8667 148.12L24.7264 146.19L30.8059 152.048ZM21.5618 152.198L19.3977 150.112L26.9223 142.304L29.0864 144.389L21.5618 152.198ZM26.8047 157.25L24.6406 155.165L32.1652 147.356L34.3293 149.441L26.8047 157.25Z" fill="#2C2C2C"/>
<path d="M23.5149 138.132L21.5629 139.583L18.3008 135.194L20.2529 133.743L23.5149 138.132ZM16.7635 143.15L14.8114 144.601L11.5494 140.212L13.5015 138.761L16.7635 143.15ZM19.9341 140.794L18.0442 142.198L14.967 138.058L16.8569 136.653L19.9341 140.794ZM16.0312 146.242L14.3124 143.93L23.0159 137.461L24.7347 139.774L16.0312 146.242Z" fill="#2C2C2C"/>
<path d="M12.4711 130.141L11.038 127.411L13.7639 122.306L15.3914 125.405L12.4711 130.141ZM8.47656 135.562L7.07944 132.902L16.6805 127.86L18.0777 130.521L8.47656 135.562ZM9.83296 132.681L7.58356 133.862L6.49611 131.791C6.0352 130.913 5.79307 130.118 5.76972 129.407C5.74157 128.687 5.89779 128.063 6.23838 127.534C6.56503 127.001 7.04382 126.569 7.67475 126.238C8.29653 125.911 8.92873 125.76 9.57133 125.784C10.2 125.804 10.8027 126.03 11.3795 126.462C11.9423 126.89 12.4542 127.542 12.9151 128.42L14.0026 130.491L11.9863 131.55L11.0141 129.698C10.8653 129.415 10.6993 129.199 10.5162 129.05C10.3331 128.901 10.1328 128.82 9.91541 128.805C9.69321 128.782 9.46781 128.831 9.23921 128.951C9.01061 129.071 8.8474 129.226 8.74956 129.418C8.63779 129.605 8.59116 129.816 8.60969 130.051C8.62822 130.286 8.7119 130.546 8.86073 130.829L9.83296 132.681Z" fill="#2C2C2C"/>
<path d="M12.0227 117.806L9.71886 118.585L7.966 113.405L10.2698 112.626L12.0227 117.806ZM4.05463 120.502L1.75079 121.282L-0.0020674 116.102L2.30178 115.322L4.05463 120.502ZM7.79654 119.236L5.56607 119.991L3.91253 115.104L6.143 114.349L7.79654 119.236ZM2.40625 123.219L1.48265 120.489L11.7546 117.013L12.6782 119.743L2.40625 123.219Z" fill="#2C2C2C"/>
<circle cx="83" cy="89.1719" r="64.5" stroke="#3797E4"/>
</svg>
