<svg width="60" height="60" viewBox="0 0 60 60" fill="none" xmlns="http://www.w3.org/2000/svg">
<g clip-path="url(#clip0_207_21)">
<path d="M20.7696 4.61572H6.9232C4.99986 4.61572 3.36536 5.28887 2.01894 6.63479C0.673148 7.98096 0 9.61546 0 11.5389V25.3848C0 27.3081 0.672769 28.9424 2.01894 30.2883C3.36524 31.6341 5.00024 32.3075 6.9232 32.3075H15.0001C15.9613 32.3075 16.7788 32.6442 17.452 33.3171C18.1251 33.9896 18.4616 34.8074 18.4616 35.7694V36.9226C18.4616 39.4708 17.56 41.6456 15.7572 43.4488C13.9544 45.2512 11.7791 46.1526 9.23059 46.1526H6.9232C6.29779 46.1526 5.75712 46.3816 5.30019 46.838C4.84364 47.2945 4.61517 47.8355 4.61517 48.4605V53.0765C4.61517 53.7005 4.84364 54.2425 5.30019 54.6991C5.7575 55.1554 6.29766 55.3845 6.9232 55.3845H9.23072C11.731 55.3845 14.1168 54.897 16.3886 53.9238C18.6602 52.9504 20.6252 51.6339 22.284 49.9752C23.9424 48.3163 25.2586 46.3517 26.2321 44.0799C27.2054 41.8082 27.6923 39.4225 27.6923 36.9227V11.5384C27.6923 9.61495 27.0191 7.98058 25.6732 6.63466C24.3273 5.28874 22.6924 4.61572 20.7696 4.61572Z" fill="white"/>
<path d="M57.9807 6.63479C56.6349 5.28887 55.0003 4.61572 53.0769 4.61572H39.231C37.3077 4.61572 35.6732 5.28887 34.3273 6.63479C32.9815 7.98109 32.3086 9.61546 32.3086 11.5389V25.3848C32.3086 27.3081 32.9815 28.9424 34.3273 30.2883C35.6732 31.6341 37.3078 32.3075 39.231 32.3075H47.3079C48.2692 32.3075 49.0873 32.6442 49.7603 33.3171C50.4327 33.99 50.7699 34.8074 50.7699 35.7694V36.9226C50.7699 39.4708 49.8683 41.6456 48.0652 43.4488C46.2625 45.2512 44.0877 46.1526 41.5389 46.1526H39.231C38.6061 46.1526 38.065 46.3816 37.6085 46.838C37.1517 47.2945 36.923 47.8355 36.923 48.4605V53.0765C36.923 53.7005 37.1517 54.2425 37.6085 54.6991C38.0648 55.1554 38.606 55.3845 39.231 55.3845H41.5389C44.0388 55.3845 46.4245 54.897 48.6965 53.9238C50.9678 52.9504 52.9326 51.6339 54.5914 49.9752C56.2502 48.3163 57.5672 46.3512 58.54 44.0799C59.5133 41.8087 60.0004 39.4225 60.0004 36.9227V11.5384C60 9.61495 59.3275 7.98058 57.9807 6.63479Z" fill="white"/>
</g>
<defs>
<clipPath id="clip0_207_21">
<rect width="60.0001" height="60" fill="white"/>
</clipPath>
</defs>
</svg>
